<svg xmlns="http://www.w3.org/2000/svg" id="Layer_1" data-name="Layer 1" viewBox="17.93 23.89 1139.07 208.18"><defs><style>.cls-1{fill:#53cbc9}.cls-2{fill:#f45b5b}</style></defs><path class="cls-1" d="M1152.68 211.27h-52.15a4.12 4.12 0 010-8.23h52.15a4.12 4.12 0 110 8.23z"/><path class="cls-2" d="M168.1 193.24q-.94-10.61-2-24.57t-2.23-29.2q-1.12-15.25-2.22-30.68t-1.88-28.9q-3.78 12.6-7.65 25.32l-7.35 24.14q-3.48 11.42-6.44 20.68T133.5 165q-2 3.83-4 7.28a46.46 46.46 0 01-4.13 6.05 21.53 21.53 0 01-4.38 4.14 8.23 8.23 0 01-4.7 1.54 9.45 9.45 0 01-5.43-1.48 6.55 6.55 0 01-2.74-4.44 10.82 10.82 0 01-.17-1.18 4.71 4.71 0 01.07-1.17q-4-17.53-7.67-35.37t-6.93-35.13l-1.53-8.15c-.51-2.72-1-5.39-1.38-8q-2.51 11.06-5.73 23.03t-6.92 23.65q-3.72 11.67-8 22.47a202.94 202.94 0 01-8.83 19.63 96.05 96.05 0 01-9.52 15.07q-4.91 6.23-10 8.7a49.65 49.65 0 01-7.89 3 24.19 24.19 0 01-6.2.92 10.6 10.6 0 01-6.53-1.79 7 7 0 01-2.85-4.38 9.51 9.51 0 011.27-6.39 12.12 12.12 0 015.86-5.19q4.92-2.22 9.83-9.81a127.28 127.28 0 009.57-18.45q4.68-10.87 9-24.21t8.2-27q3.85-13.7 7.07-26.85t5.62-23.77Q76.88 47.05 78.38 40c1-4.73 1.64-7.68 1.88-8.83a8.82 8.82 0 013.48-5.56 9.79 9.79 0 015.58-1.72q4.17 0 6.25 2.4t3.23 8.58q2.39 7.78 4.3 14.64t3.74 14.07q1.81 7.23 3.55 15.56t3.78 19.2q1.45 7.78 2.92 17.16t3.65 21q8.85-26.92 15.72-47.48t12.19-34.45a155.69 155.69 0 019.45-21q4.11-7.09 7.36-7.1h.81a3.82 3.82 0 00.68-.06 3.94 3.94 0 01.69-.07q2.78 0 5.09 3.71a27.71 27.71 0 013.43 9.63c.45 4 .92 9.06 1.43 15.06s1 12.62 1.57 19.82 1.1 14.8 1.67 22.78 1.12 15.91 1.67 23.77 1.11 15.5 1.68 22.91 1.16 14.12 1.75 20.12a22 22 0 00.38 3.28c.21 1.11.42 2.24.64 3.39q.6 3.21 1.33 6.48c.48 2.19.93 4.35 1.33 6.49q.69 3.7 1 7.47A16.43 16.43 0 01190 198a9.21 9.21 0 01-4 4.94q-3 1.91-8.91 1.91a7.18 7.18 0 01-5.45-2.53q-2.3-2.53-3.54-9.08zM246 112.13a44.34 44.34 0 019.78 1.24 37.41 37.41 0 0110.49 4.2 36.4 36.4 0 019.29 7.85 30.9 30.9 0 016.17 12.06 46.28 46.28 0 011.41 8.46 61.28 61.28 0 010 9.95 9.62 9.62 0 003.25 2.11 9.39 9.39 0 008.39-.87 27.43 27.43 0 005-3.83 48 48 0 004.79-5.32q2.31-3 4.27-5.93c1.3-2 2.47-3.85 3.48-5.63s1.86-3.27 2.52-4.51a1.94 1.94 0 011.73-.86 5 5 0 013.39 1.79 11.22 11.22 0 012.66 5 17.72 17.72 0 01.25 7.41 19 19 0 01-4.27 8.75c-1.26 2.14-2.71 4.62-4.32 7.42a59.7 59.7 0 01-5.46 7.91 34.06 34.06 0 01-6.72 6.3 13.68 13.68 0 01-8.09 2.6 20.12 20.12 0 01-6.12-1 29.11 29.11 0 01-6.62-3.21 52.05 52.05 0 01-6 12.61 39.07 39.07 0 01-9.17 9.76 42.4 42.4 0 01-12.38 6.37 49.63 49.63 0 01-15.53 2.29 29.35 29.35 0 01-7.9-1.36 34.6 34.6 0 01-9.42-4.52A38.92 38.92 0 01212 191a33.9 33.9 0 01-6-12.36 57.67 57.67 0 01-1.78-11.87 72 72 0 01.63-14.27 69.68 69.68 0 013.73-14.59 43 43 0 017.6-13 36.46 36.46 0 0112.26-9.27 40.37 40.37 0 0117.56-3.51zm0 21.76a16.7 16.7 0 00-9.68 2.91 21.46 21.46 0 00-6.8 7.66 29.16 29.16 0 00-3.23 10.76 32.36 32.36 0 001.09 12.3 50 50 0 001.76 5.13 24.37 24.37 0 002.88 5.19 15.84 15.84 0 004.3 4 11 11 0 006 1.6 15.9 15.9 0 009.54-3 22.66 22.66 0 006.79-7.91 29.71 29.71 0 003.2-11.06 34.21 34.21 0 00-1.19-12.47c-.45-1.65-1-3.35-1.7-5.13a19.64 19.64 0 00-2.74-4.88 14.19 14.19 0 00-4.2-3.65 12.09 12.09 0 00-6.02-1.45z"/><path class="cls-2" d="M344.2 112.13a44.35 44.35 0 019.79 1.24 37.35 37.35 0 0110.48 4.2 36.27 36.27 0 019.3 7.85 30.9 30.9 0 016.17 12.06 46.28 46.28 0 011.41 8.46 61.28 61.28 0 010 9.95 9.52 9.52 0 003.25 2.11 9.39 9.39 0 008.39-.87 27.43 27.43 0 005-3.83 48 48 0 004.79-5.32q2.31-3 4.27-5.93c1.3-2 2.46-3.85 3.48-5.63s1.86-3.27 2.52-4.51a1.94 1.94 0 011.73-.86 5 5 0 013.39 1.79 11.22 11.22 0 012.66 5 17.88 17.88 0 01.25 7.41 19 19 0 01-4.23 8.78c-1.26 2.14-2.71 4.62-4.33 7.42a59.7 59.7 0 01-5.46 7.91 33.74 33.74 0 01-6.71 6.3 13.68 13.68 0 01-8.09 2.6 20.07 20.07 0 01-6.12-1 28.91 28.91 0 01-6.62-3.21 52.05 52.05 0 01-6 12.61 39.07 39.07 0 01-9.17 9.76 42.4 42.4 0 01-12.38 6.37 49.68 49.68 0 01-15.53 2.29 29.28 29.28 0 01-7.9-1.36 34.6 34.6 0 01-9.42-4.52 38.92 38.92 0 01-8.81-8.22 33.74 33.74 0 01-6.08-12.36 57 57 0 01-1.78-11.87 72 72 0 01.63-14.27 69.68 69.68 0 013.73-14.59 43 43 0 017.6-13 36.46 36.46 0 0112.26-9.27 40.36 40.36 0 0117.53-3.49zm0 21.76a16.7 16.7 0 00-9.68 2.91 21.46 21.46 0 00-6.8 7.66 29.16 29.16 0 00-3.23 10.76 32.55 32.55 0 001.08 12.3 52.74 52.74 0 001.77 5.13 23.53 23.53 0 002.88 5.19 15.84 15.84 0 004.3 4 11 11 0 006 1.6 15.87 15.87 0 009.53-3 22.59 22.59 0 006.8-7.91 29.71 29.71 0 003.2-11.06A34.21 34.21 0 00358.9 149a52.24 52.24 0 00-1.71-5.13 19.29 19.29 0 00-2.73-4.88 14.31 14.31 0 00-4.2-3.65 12.09 12.09 0 00-6.07-1.45z"/><path class="cls-2" d="M414.68 127q.85-5.31 3.61-7.91a8.7 8.7 0 016.12-2.6 9.15 9.15 0 015.58 2.16 11.77 11.77 0 014 6.37 19.92 19.92 0 01.61 3.46 15.8 15.8 0 01-.18 4 24.41 24.41 0 015.33-7.11 45.11 45.11 0 018.67-6.55 54.17 54.17 0 0110.5-4.76 34.69 34.69 0 0111-1.86 20.38 20.38 0 0111.08 3.08q5 3.16 7.07 10.7a36.39 36.39 0 011.29 9.27 62.46 62.46 0 01-.64 9.64 86.52 86.52 0 01-1.9 9.46q-1.21 4.64-2.52 8.72l-2.39 7.47q-1.1 3.41-1.63 5.63a6.37 6.37 0 00-.25 4.57 3.78 3.78 0 001.06 1.73 2.85 2.85 0 002.06.75A10.22 10.22 0 00485 183a4.69 4.69 0 002.19-1.3 73.7 73.7 0 0011.1-6.18 116.89 116.89 0 0010.4-7.85 108.66 108.66 0 008.77-8.28 79.73 79.73 0 006.33-7.48 3.94 3.94 0 013.15-1.61 4.76 4.76 0 013.51 1.61 9.29 9.29 0 012.23 4.08 18.09 18.09 0 01.1 8.53 18.44 18.44 0 01-4.7 8.78l-9.54 9.27a108.26 108.26 0 01-9.07 7.85 78.24 78.24 0 01-24.13 12.67 38.3 38.3 0 01-5.09 1.48 21.65 21.65 0 01-4.44.5 13.92 13.92 0 01-10-3.65 21.59 21.59 0 01-5.65-10.2c-.16-.57-.3-1.13-.41-1.67s-.21-1.13-.32-1.79a27.81 27.81 0 01-.41-8.41 77.15 77.15 0 011.46-9.39q1-4.83 2.39-9.58t2.43-9q1.08-4.26 1.66-7.6a12.82 12.82 0 000-5.44 6.73 6.73 0 00-1.86-3.15 4.57 4.57 0 00-3.31-1.3 18.76 18.76 0 00-12.78 4.7 44 44 0 00-9.26 11.56 92 92 0 00-6.64 14.52q-2.75 7.67-4.78 13.72a59.15 59.15 0 00-1.82 8.72 85.14 85.14 0 01-1.61 8.65 19.44 19.44 0 01-2.85 6.68 6.61 6.61 0 01-5.81 2.66 10.41 10.41 0 01-7.12-2.72 13.58 13.58 0 01-4.12-6.68 22.17 22.17 0 01-.26-6.8c.22-3.13.6-6.76 1.17-10.88s1.24-8.55 2.06-13.29 1.64-9.43 2.47-14.09 1.66-9 2.45-13.16 1.36-7.63 1.79-10.48z"/><path class="cls-2" d="M590.67 182.87A45.51 45.51 0 01573.74 201q-9.43 5.88-22.3 5.88a33.88 33.88 0 01-12.53-2.17 30.47 30.47 0 01-9.5-5.87 33.21 33.21 0 01-6.73-8.65 49 49 0 01-4.24-10.51 61.1 61.1 0 01-2.1-13 80.3 80.3 0 01.34-13q.5-4.08.78-6.8c.2-1.82.35-3.36.46-4.64s.21-2.39.29-3.34.18-1.93.28-3 .24-2.23.4-3.59.42-3.11.75-5.25l11.66-80.32a8.35 8.35 0 011.17-3.09 11.11 11.11 0 015.59-4.52 11.35 11.35 0 013.93-.68c3.55 0 6.24.75 8.08 2.23a10.44 10.44 0 013.65 5.44 14 14 0 01.33 5.38 34.24 34.24 0 01-1.05 5.37q-3.72 17.57-6.36 35.67t-6.33 35.79a77.26 77.26 0 016.22-6 50.85 50.85 0 017.26-5.19 41.09 41.09 0 018.35-3.71 31.44 31.44 0 019.56-1.43 22.73 22.73 0 017.7 1.48 31.17 31.17 0 018 4.33 32.93 32.93 0 016.91 7 29.2 29.2 0 014.56 9.58 34.08 34.08 0 01.67 5q.33 3.71.28 8.34a92.29 92.29 0 01-.62 9.52 39.87 39.87 0 01-1.85 8.59c-.91 5.31-6.68 17.03-6.68 17.03zm-24.62-50.22a23.47 23.47 0 00-12.27 3.4 29.48 29.48 0 00-9.4 9 34.72 34.72 0 00-5.16 12.54 29.86 29.86 0 00.55 14.16 28.8 28.8 0 001.46 4 14.1 14.1 0 002.49 3.77 12.26 12.26 0 004 2.84 13.91 13.91 0 005.87 1.11 22.1 22.1 0 0012.09-3.4 27.67 27.67 0 008.82-9 33.48 33.48 0 004.5-12.52 33.09 33.09 0 00-.87-14 34.2 34.2 0 00-1.38-4 15.47 15.47 0 00-2.28-3.84 12.1 12.1 0 00-3.46-2.9 9.92 9.92 0 00-4.96-1.16zM737.93 166.4c-1 1.41-2.32 3.34-3.95 5.81s-3.54 5.15-5.72 8-4.54 5.79-7.09 8.71a72.51 72.51 0 01-8.1 8 47 47 0 01-8.75 5.87 19.6 19.6 0 01-9 2.29 15.33 15.33 0 01-7.47-1.86 23.56 23.56 0 01-6.14-4.82 31.43 31.43 0 01-4.7-6.74A39.26 39.26 0 01674 184a40.4 40.4 0 01-1.07-5.13 21.48 21.48 0 01-.16-4.76 103.3 103.3 0 01-5.21 10.69 54.78 54.78 0 01-7.08 10 37.32 37.32 0 01-9 7.42 20.94 20.94 0 01-10.84 2.91 26.81 26.81 0 01-7.37-1.3 32.48 32.48 0 01-8.77-4.27 36.29 36.29 0 01-8.14-7.66 31.77 31.77 0 01-5.61-11.5 62.75 62.75 0 01-1.9-12.11 80.51 80.51 0 01.36-14.65 70.65 70.65 0 013.37-15 44.56 44.56 0 017.16-13.29 35.65 35.65 0 0111.62-9.52q7-3.65 16.84-3.65a30.25 30.25 0 019.29 1.36 49 49 0 017.31 3 47.6 47.6 0 016.52 4.33q1.67-1.11 3.48-2.1a23.39 23.39 0 013.22-1.55 8.68 8.68 0 013.11-.68 12.85 12.85 0 017.9 2.6 10.88 10.88 0 014.36 5.68 6.92 6.92 0 01.26 1.36q.06 2.36-.16 5.94t-.52 8q-.29 4.4-.54 9.15c-.17 3.17-.25 6.28-.26 9.33s.09 5.92.29 8.59a36.48 36.48 0 001.08 6.86 18.11 18.11 0 002.85 6.12 5.55 5.55 0 004.61 2.41 7.75 7.75 0 003.79-1.17 26.28 26.28 0 004.28-3.15 53.33 53.33 0 004.49-4.52q2.25-2.52 4.31-5.13 4.79-6.18 9.9-14.09a4.13 4.13 0 013.14-1.61 6.32 6.32 0 014.55 2.42 12.83 12.83 0 013 5.37 6.8 6.8 0 01-.53 5.7zm-89.09-31.89a16.63 16.63 0 00-9.72 3 22 22 0 00-6.89 7.78 29.22 29.22 0 00-3.23 10.79 31.49 31.49 0 001 12 54.07 54.07 0 001.71 5.13 20.17 20.17 0 002.68 4.89 15 15 0 004 3.71 10.18 10.18 0 005.56 1.48 8.19 8.19 0 005.3-2.41 33.55 33.55 0 005.36-6.18 66.4 66.4 0 004.84-8.29 91.2 91.2 0 003.81-8.83 63.34 63.34 0 002.37-7.79 11.39 11.39 0 00.33-5.07 9.24 9.24 0 00-2.68-4.27 21.55 21.55 0 00-4.61-3.27 23.44 23.44 0 00-5.26-2 19.2 19.2 0 00-4.57-.67z"/><path class="cls-2" d="M749.74 132.41a99 99 0 0115.12 9 96 96 0 0112.4 10.69 71.1 71.1 0 019.07 11.44 43.51 43.51 0 015.17 11.37 19.6 19.6 0 01-.27 12.67 22.18 22.18 0 01-7.21 9.52 35.27 35.27 0 01-12.27 5.94 56 56 0 01-15.25 2 52.8 52.8 0 01-12.09-1.43 46.75 46.75 0 01-11.58-4.38 43.63 43.63 0 01-10.15-7.61 41 41 0 01-7.81-11.06 9.18 9.18 0 01-.68-1.61 6.91 6.91 0 01.62-5.75 4.76 4.76 0 014.2-2.41 10.82 10.82 0 013 .5 5.74 5.74 0 013 2.22 26.2 26.2 0 005.7 5.32 42.74 42.74 0 007.19 4 45 45 0 007.84 2.59 33.85 33.85 0 007.62.93 31 31 0 006.92-.74 14.38 14.38 0 005.37-2.35 8.24 8.24 0 003-4.08 10.52 10.52 0 00-.17-6.06 33.17 33.17 0 00-5.88-11.62 62.3 62.3 0 00-9.61-9.83 99.46 99.46 0 00-11.94-8.4q-6.45-3.9-12.78-7.48a12.71 12.71 0 01-2.33-2.16 9 9 0 01-2.17-3.65 3.19 3.19 0 010-2.35 42.33 42.33 0 012.81-5.32 32 32 0 013.83-5 17.6 17.6 0 015-3.71 14 14 0 016.33-1.42 16.49 16.49 0 015 .74 17 17 0 014.24 1.91 14.86 14.86 0 013.09 2.6 7 7 0 011.61 2.66 6.78 6.78 0 01.11 3.34 10.36 10.36 0 01-1.29 3.09 25.57 25.57 0 01-2.19 3q-1.31 1.48-2.57 2.89z"/><path class="cls-2" d="M833.65 112q9.61 0 15.74 4.94a26 26 0 018.54 13.73 24.62 24.62 0 01.45 10.87 25.92 25.92 0 01-5.61 11.56 61.85 61.85 0 01-13.42 12 138.42 138.42 0 01-22.84 12.31 11.8 11.8 0 005.14 5.62 17 17 0 008.56 2 38.5 38.5 0 0010.95-1.67 68.09 68.09 0 0010.84-4.22q5.25-2.59 10.09-5.63t8.66-5.75c2.55-1.81 4.67-3.38 6.35-4.69a32.93 32.93 0 013.43-2.48 3.32 3.32 0 011.67-.86 11 11 0 011.53-.13 4.77 4.77 0 012.51.68 10.09 10.09 0 012 1.61 8 8 0 011.42 2 10.72 10.72 0 01.73 1.79 19.86 19.86 0 01.5 2.66 6.4 6.4 0 01-.76 3.52 42 42 0 01-3 3.34q-2.55 2.72-6.74 6.43t-9.94 7.85a98.05 98.05 0 01-12.49 7.6 83.33 83.33 0 01-14.46 5.75 55.49 55.49 0 01-15.82 2.29 30.91 30.91 0 01-13.12-2.85 41.49 41.49 0 01-11.27-7.66 50.23 50.23 0 01-8.81-11.13 54.65 54.65 0 01-5.63-13.22 39 39 0 01-1.25-11.69 49.91 49.91 0 012.14-12.79 54.41 54.41 0 015.62-12.55 45.45 45.45 0 019.12-10.82 43.25 43.25 0 0112.69-7.54 44.82 44.82 0 0116.48-2.87zm.55 17.06a5.73 5.73 0 00-1.08-.12h-1a15.44 15.44 0 00-7.71 1.85 18.53 18.53 0 00-5.66 4.88 25.74 25.74 0 00-3.78 6.86 65.67 65.67 0 00-2.36 7.61 54.82 54.82 0 00-1.31 7.23c-.25 2.31-.39 4.24-.42 5.81 2.29-1.49 4.63-3.17 7-5.07s4.59-3.71 6.66-5.44 3.86-3.29 5.37-4.7 2.57-2.35 3.21-2.84c2.84-2.31 4.63-4.47 5.39-6.49a8.48 8.48 0 00.51-5.25 5.52 5.52 0 00-1.92-3 6.31 6.31 0 00-2.9-1.32z"/><path class="cls-1" d="M1050.36 211.27H915.43a4.12 4.12 0 110-8.23h134.93a4.12 4.12 0 010 8.23zM1122.87 232.07a4.11 4.11 0 01-4.11-4.11v-187a4.12 4.12 0 018.23 0V228a4.11 4.11 0 01-4.12 4.07zM1077 116.73a4.11 4.11 0 01-4.11-4.11v-71.7a4.11 4.11 0 118.22 0v71.7a4.11 4.11 0 01-4.11 4.11z"/><path class="cls-1" d="M941.48 232.07a4.12 4.12 0 01-4.12-4.11v-187a4.12 4.12 0 018.23 0V228a4.11 4.11 0 01-4.11 4.07z"/><path class="cls-1" d="M1092.12 66.05H915.43a4.11 4.11 0 110-8.22h176.69a4.11 4.11 0 110 8.22zM966.41 153.69a4.11 4.11 0 01-2.91-7l68-68a4.11 4.11 0 115.81 5.82l-68 68a4.09 4.09 0 01-2.9 1.18zM968 187.13a4.12 4.12 0 01-2.9-7L1048 97.2a4.11 4.11 0 115.81 5.82L971 185.92a4.1 4.1 0 01-3 1.21zM994.75 195.33a4.12 4.12 0 01-2.91-7l65.32-65.33a4.11 4.11 0 115.82 5.81l-65.32 65.32a4.12 4.12 0 01-2.91 1.2z"/><path class="cls-2" d="M1007.17 205a71 71 0 01-22.36-3.61c-29.81-9.69-44.69-34.39-39.67-66.2a92.27 92.27 0 0125-49.1c14.09-14.32 31.72-22.21 49.63-22.21 1.33 0 2.69 0 4 .13h.12c17.77 0 35.14 11.43 46.45 30.5a4.73 4.73 0 008.37-.49c1.07-2.38 2-4.57 2.87-6.58 6.39-14.82 7.9-18.34 24.15-18.34 3.26 0 7.16.16 12.28.51 1.32.07 1.61.57 1.75.81 3 5.27-8.8 27.61-16.61 42.4-5.15 9.75-9.6 18.17-10.78 22.71a4.56 4.56 0 00.26 3.06c.87 2 1.75 4 2.65 6.08 9.54 22.08 21.42 49.56 47.71 49.56a41.05 41.05 0 007.29-.68h.17a3.63 3.63 0 01-.44.68c-6.54 6.91-14.34 10.42-23.19 10.42-17.56 0-36.71-14.29-44.52-33.23a4.76 4.76 0 00-4.41-3 4.66 4.66 0 00-3.69 1.81c-16.91 21.77-42 34.77-67.03 34.77zm11.5-120.75c-10.18 0-20.35 5-28.66 14.2-12.89 14.23-19.27 36.14-17.06 58.61a4.07 4.07 0 00.22 1c5.76 15.65 17.52 24.27 33.11 24.27 18.38 0 38.79-12.68 48.54-30.15 6.09-10.91 6.11-27.21.06-39.65-8.88-18.23-21.75-28.28-36.21-28.28z" id="r1jsk0"/></svg>