<svg xmlns="http://www.w3.org/2000/svg" id="Layer_1" data-name="Layer 1" viewBox="204.66 203.64 2646.63 511.59"><defs><style>.cls-1{fill:#53cbc8}.cls-2{fill:#e1147b}</style></defs><path class="cls-1" d="M600.19 622.25q-2.34-26.24-5.08-60.71t-5.47-72.16q-2.75-37.68-5.43-75.82t-4.56-71.4q-10.12 31.13-20.5 62.55t-19.68 59.65q-9.33 28.23-17.23 51.1t-12.81 36.92q-5.19 9.47-10.54 18a117.43 117.43 0 01-11 15 55.05 55.05 0 01-11.59 10.22 22.71 22.71 0 01-12.38 3.81q-8.55 0-14.29-3.66a16 16 0 01-7.17-11 27.1 27.1 0 01-.41-2.89 10 10 0 01.2-2.9q-10.25-43.35-19.71-87.45t-17.77-86.8l-3.92-20.14q-2-10.06-3.54-19.83-6.87 27.47-15.46 57.05t-18.56 58.43q-9.94 28.84-21.24 55.54a486.73 486.73 0 01-23.53 48.51 237.64 237.64 0 01-25.27 37.22q-13 15.42-26.48 21.51a137.08 137.08 0 01-20.77 7.48 67.31 67.31 0 01-16.34 2.29q-11 0-17.18-4.43T205 637.51q-1.47-7.62 3.33-15.87t15.51-12.81q13-5.49 26-24.26t25.4-45.57q12.48-26.85 24.08-59.8t21.95-66.82q10.37-33.87 19-66.37t15.13-58.73q6.5-26.28 10.6-43.82t5-21.82q2.45-9.45 9.24-13.73a27.14 27.14 0 0114.76-4.27q11 0 16.41 6t8.39 21.2Q426 250 430.94 267t9.66 34.78q4.68 17.85 9.14 38.45t9.68 47.44q3.74 19.23 7.48 42.41t9.31 51.87q23.69-66.51 42.05-117.31t32.58-85.13q14.24-34.32 25.17-51.87t19.47-17.54h2.14a9.8 9.8 0 001.8-.16 10.75 10.75 0 011.8-.15q7.32 0 13.37 9.15t8.9 23.8q1.68 15 3.57 37.23t3.87 49q2 26.7 4.07 56.29t4.08 58.73q2 29.14 4.13 56.6t4.32 49.74a53.26 53.26 0 001 8.08l1.63 8.39q1.53 7.95 3.41 16t3.42 16q1.77 9.15 2.67 18.46a38.57 38.57 0 01-1.81 16.74q-2.65 7.49-10.59 12.21t-23.49 4.73a19.39 19.39 0 01-14.34-6.26q-6.09-6.26-9.24-22.43zM2850.28 543.23a26.25 26.25 0 00-8.43-12.81q-6-4.89-11.45-4.89a11.58 11.58 0 00-4.59.92 6.69 6.69 0 00-3.32 3q-4.83 7.93-13.52 19.68a201.31 201.31 0 01-19.47 22.58 123.33 123.33 0 01-23.36 18.46q-12.57 7.62-25.38 7.62a31.21 31.21 0 01-11.4-1.83q-4.7-1.83-6.8-8.54a31.6 31.6 0 01-.65-15.71 84.91 84.91 0 015-16.33 150.17 150.17 0 017.22-14.95q3.9-7 6.13-11.59a115.13 115.13 0 0010.23-30.21q3.23-16.47-2.5-34.78a54.83 54.83 0 00-25.59-32.49 64.27 64.27 0 00-18.56-7.17 93 93 0 00-19.9-2.14 77 77 0 00-24 3.36 69.34 69.34 0 00-18.13 8.84 78.13 78.13 0 00-14 12.36 143.6 143.6 0 00-10.91 13.88 60.24 60.24 0 00-10-17.69 55.25 55.25 0 00-29.17-18.61 67 67 0 00-16.84-2.14q-17.08 0-29.29 4.88a75.5 75.5 0 00-21 12.36 102.63 102.63 0 00-15.49 16.32q-6.69 8.85-12.54 16.48a46.21 46.21 0 00-1.78-17.39q-3.34-10.68-11.06-16.33t-15.34-5.64a22.79 22.79 0 00-15.85 6.41q-7 6.4-8.38 19.52-1.23 10.69-3.36 25.78t-4.57 32.19c-.46 3.26-.93 6.54-1.4 9.81q-13.09 19.5-25.39 34.74-5.31 6.4-11.14 12.66a131.31 131.31 0 01-11.55 11.16 67 67 0 01-11.14 7.78 21 21 0 01-9.93 2.9 15.22 15.22 0 01-12.23-6 44.13 44.13 0 01-7.78-15.1 84.29 84.29 0 01-3.17-16.94q-1-9.91-1.15-21.2t.27-23q.43-11.75 1-22.58t1-19.68q.43-8.85.14-14.64a15.63 15.63 0 00-.74-3.36q-2.39-7.62-11.72-14a36 36 0 00-20.92-6.41 23.63 23.63 0 00-8.17 1.68 65 65 0 00-8.42 3.81q-4.72 2.44-9.06 5.19a131.65 131.65 0 00-17.37-10.68 136.54 136.54 0 00-19.38-7.32 84.68 84.68 0 00-24.55-3.36q-25.93 0-44.17 9a90.21 90.21 0 00-30.17 23.49 105.06 105.06 0 00-18.26 32.8 163.81 163.81 0 00-8.22 37.08 192.27 192.27 0 00-.88 27.28q-4.87 3.48-11.07 7.65-10 6.72-22.56 14.19t-26.32 13.88a184.71 184.71 0 01-28.41 10.54 106.81 106.81 0 01-28.77 4.12q-13.11 0-22.63-5a30.72 30.72 0 01-13.8-13.88q36.7-15.26 59.6-30.36t34.82-29.6q11.94-14.47 14.26-28.52a57.51 57.51 0 00-1.69-26.85q-6.79-21.7-23.16-33.91t-41.65-12.21q-24.11 0-43.12 7a113.19 113.19 0 00-33.07 18.61 110.55 110.55 0 00-23.53 26.7 128.58 128.58 0 00-14.25 31 115.17 115.17 0 00-5.06 31.58 97.57 97.57 0 001.37 18.65c-.45.13-.89.29-1.35.42a96.54 96.54 0 01-26.77 3.66 37.74 37.74 0 01-7.87-.76 13.18 13.18 0 01-6.78-4.12 93.09 93.09 0 004.49-21.21 212.41 212.41 0 001.19-23.49 196.36 196.36 0 00-1.11-20.6 79.42 79.42 0 00-2-12.2 71.19 71.19 0 00-12.44-23.65 86.73 86.73 0 00-39.71-27.91 64 64 0 00-20.36-3.67 87.61 87.61 0 00-25.15 3.51 108.46 108.46 0 00-21.84 9.16 127.26 127.26 0 00-18.88 12.81 192.35 192.35 0 00-16.11 14.8q8.91-43.63 15.06-88.33t15.15-88a80.7 80.7 0 002.56-13.27 32.05 32.05 0 00-1.1-13.27 26.49 26.49 0 00-9.85-13.43q-7.36-5.49-21.4-5.49a31.09 31.09 0 00-10.31 1.68 28.79 28.79 0 00-8.48 4.58 26.83 26.83 0 00-6 6.56 19 19 0 00-3 7.62l-27.1 198q-1.17 7.94-1.73 13c-.38 3.36-.67 6.31-.89 8.85s-.43 5-.61 7.32-.39 5.09-.62 8.24-.57 7-1 11.44-1 10.07-1.76 16.78q-.85 8.63-.84 17.57-8.89 8.68-19.65 17.37a295.42 295.42 0 01-27 19.37 192.49 192.49 0 01-28.94 15.26 12.23 12.23 0 01-5.71 3.2 27 27 0 01-4.74.46 8 8 0 01-5.45-1.83 9.28 9.28 0 01-2.86-4.27q-2-6.41.43-11.29 1.32-5.49 4-13.88l6-18.46q3.25-10.08 6.23-21.51A196.29 196.29 0 001549 503a143.76 143.76 0 001.25-23.79 85.29 85.29 0 00-3.81-22.89q-5.84-18.6-19.1-26.39a57.07 57.07 0 00-29.43-7.78 95.9 95.9 0 00-28.93 4.58 146.37 146.37 0 00-27.44 11.74 116 116 0 00-22.54 16.12q-9.71 9-13.73 17.55a36.84 36.84 0 00.3-9.77 46.91 46.91 0 00-1.76-8.54q-3.25-10.36-10.72-15.71t-14.79-5.34a23.35 23.35 0 00-16 6.41q-7.14 6.4-9.14 19.52c-.46 3.16-1 6.64-1.63 10.4a4.67 4.67 0 00-2.48 1.81q-2.54 4.57-6.43 11.13t-8.93 13.89q-5 7.32-11 14.64a117.25 117.25 0 01-12.37 13.12 69.72 69.72 0 01-13.06 9.46 26.87 26.87 0 01-13 3.66 27.51 27.51 0 01-9-1.52 26.15 26.15 0 01-8.64-5.19 142.78 142.78 0 00-.37-24.56 107.77 107.77 0 00-4.1-20.9q-5.54-17.7-16.79-29.75a97.06 97.06 0 00-24.83-19.38 105.09 105.09 0 00-27.81-10.37 124.53 124.53 0 00-25.82-3q-26.87 0-46.1 8.69a93.7 93.7 0 00-31.89 22.89 102.18 102.18 0 00-19.41 32 160.71 160.71 0 00-9.17 36 165.59 165.59 0 00-1 35.24 135.92 135.92 0 005.2 29.29q5.64 18 16.58 30.51a102.89 102.89 0 0023.59 20.29 96 96 0 0025 11.14q12.35 3.34 20.89 3.35 22.57 0 40.79-5.64a112.12 112.12 0 0032.31-15.71 97 97 0 0023.73-24.11 122 122 0 0015.22-31.09 79.59 79.59 0 0017.59 7.93 56.64 56.64 0 0016.17 2.45 37.31 37.31 0 0021.18-6.41 84.84 84.84 0 0017.4-15.56c.11-.12.2-.25.3-.37-1.16 7.58-2.2 14.84-3.07 21.72q-1.93 15.27-2.57 26.86t1 16.78a34.06 34.06 0 0011.26 16.47 29 29 0 0018.88 6.71q10.37 0 15.19-6.55a45.82 45.82 0 007.2-16.48 198.52 198.52 0 003.84-21.36 137 137 0 014.4-21.51q5.07-14.94 12-33.87a217.68 217.68 0 0116.85-35.85 107.93 107.93 0 0123.86-28.53q13.92-11.58 33.44-11.59a12.78 12.78 0 018.79 3.2 17.2 17.2 0 015 7.78q1.62 5.19.23 13.43t-4 18.76q-2.65 10.53-6 22.28t-5.87 23.64a178.48 178.48 0 00-3.42 23.19 65 65 0 001.46 20.75c.31 1.63.62 3.1.93 4.42s.7 2.7 1.14 4.12q5.07 16.18 15.36 25.17t26.46 9a59.85 59.85 0 0011.67-1.22 104 104 0 0013.35-3.66 223 223 0 0035.89-14.49 216 216 0 0027.09-16.78 269.84 269.84 0 0023.48-19.43l1.67-1.54a118.49 118.49 0 009.65 20.16 85.38 85.38 0 0018.12 21.38 83.05 83.05 0 0025.29 14.5q14.49 5.32 33.1 5.34 33.87 0 58.47-14.5t40.79-45.61a55.86 55.86 0 0017 8.54 65 65 0 0018.86 2.75 127.85 127.85 0 0029.05-3.21 165.75 165.75 0 0016.14-4.64 129.4 129.4 0 0023 26.46 113.37 113.37 0 0030 18.92 87.37 87.37 0 0034.7 7 153.89 153.89 0 0041.56-5.64 225 225 0 0037.81-14.19A253.08 253.08 0 002097 613q11-7.53 19.81-14.48a74.71 74.71 0 0012.41 20.43 96.47 96.47 0 0021.78 18.87 89.34 89.34 0 0023.28 10.52q11.53 3.21 19.46 3.2a57.34 57.34 0 0028.42-7.17 94.43 94.43 0 0023.26-18.3 133.18 133.18 0 0018.19-24.72 246.6 246.6 0 0013.23-26.35 48.63 48.63 0 00.63 11.75 93 93 0 003.05 12.66 95.22 95.22 0 008.41 19.07 79.22 79.22 0 0012.68 16.63A63.81 63.81 0 002318 647a43.16 43.16 0 0019.74 4.57 53.66 53.66 0 0023.56-5.64 121.79 121.79 0 0022.77-14.49 182.19 182.19 0 0021-19.68c2.38-2.61 4.66-5.2 6.91-7.79-.12 2.44-.22 4.79-.29 7q-.33 11.61 1.39 17.09a34.79 34.79 0 0011.66 16.78 30.15 30.15 0 0019.59 7q10.07 0 14.63-6.86a49.39 49.39 0 006.75-16.94 156.12 156.12 0 003-22 142.13 142.13 0 013.19-22q3-9.76 6.64-21.67t8.22-24a200.06 200.06 0 0110.69-23.34 98.79 98.79 0 0114-20 67.49 67.49 0 0117.88-14 46.55 46.55 0 0122.43-5.34 13.34 13.34 0 018.94 3.2 17.2 17.2 0 015.28 8.09 22.4 22.4 0 011 9 47.15 47.15 0 01-2 9.31q-5.25 17.39-11.93 34t-11.7 32.8a175.74 175.74 0 00-6.79 31.42 71.35 71.35 0 002.8 29.9 21.33 21.33 0 004.89 7.33 35.56 35.56 0 007.61 5.79 41.54 41.54 0 009 3.82 30.4 30.4 0 008.36 1.37q10.06 0 14.63-6.86a49.39 49.39 0 006.75-16.94 156.12 156.12 0 003-22 142.13 142.13 0 013.19-22q3-9.76 6.64-21.67t8.22-24a200.06 200.06 0 0110.69-23.34 99.18 99.18 0 0114-20 67.49 67.49 0 0117.88-14 46.58 46.58 0 0122.43-5.34 13.34 13.34 0 018.94 3.2 17.2 17.2 0 015.28 8.09 22.4 22.4 0 011 9 47.15 47.15 0 01-2 9.31 137.71 137.71 0 01-9.22 23.18 252 252 0 00-10.5 24 108.44 108.44 0 00-6.27 25.78q-1.59 13.42 3.18 28.68 7.26 23.19 24.49 33.87t39.81 10.67a81.57 81.57 0 0032.83-6.71 132.24 132.24 0 0029.5-17.85 204 204 0 0026.76-25.63q12.69-14.49 24.21-30.35 6.64-7 8-14.35a27.44 27.44 0 00-.38-13.23zm-1639.49.61a68.68 68.68 0 01-7.93 27.31 55.48 55.48 0 01-17.53 19.52 43.11 43.11 0 01-25 7.48 30.67 30.67 0 01-15.89-4 41.61 41.61 0 01-11.5-9.91 58.47 58.47 0 01-7.82-12.82 115.12 115.12 0 01-4.88-12.66 75.75 75.75 0 01-3.41-30.36 67.54 67.54 0 018-26.54 52.8 52.8 0 0117.63-18.86 45.47 45.47 0 0125.36-7.17q9.47 0 16 3.51a37.47 37.47 0 0111.21 9 48.22 48.22 0 017.44 12.05 135.08 135.08 0 014.72 12.66 79.4 79.4 0 013.6 30.79zm576.56-7.17a77.55 77.55 0 01-11.36 31 68.84 68.84 0 01-22.82 22.12 60.42 60.42 0 01-31.7 8.39 38.83 38.83 0 01-15.5-2.75 33.16 33.16 0 01-10.59-7 35.5 35.5 0 01-6.73-9.31 68.8 68.8 0 01-4-9.92 69.57 69.57 0 01-2.09-34.93 81.32 81.32 0 0113-31 73.84 73.84 0 0124.35-22.12 64 64 0 0132.16-8.39 27.76 27.76 0 0113.11 2.9 32.33 32.33 0 019.26 7.17 38.44 38.44 0 016.17 9.46 83.67 83.67 0 013.82 9.76 77 77 0 012.92 34.62zm151.26 11.44q0-5.79.85-14.34a127.75 127.75 0 013.1-17.85 159.14 159.14 0 015.87-18.76 61.74 61.74 0 019.65-16.94 47.07 47.07 0 0114.69-12.05 42.62 42.62 0 0120.23-4.58h2.74a16.09 16.09 0 012.85.31 17.69 17.69 0 017.61 3.36 14 14 0 015.19 7.32q1.71 5.49-1.13 13t-13.9 16c-1.65 1.22-4.43 3.57-8.33 7s-8.54 7.32-13.91 11.6-11.15 8.74-17.31 13.42-12.23 8.85-18.2 12.51zm318.29-33a148.45 148.45 0 01-5.88 19.22 211.14 211.14 0 01-9.65 21.82 156.92 156.92 0 01-12.37 20.49 82.36 82.36 0 01-13.84 15.26q-7.14 5.94-13.85 5.94a28.35 28.35 0 01-14.72-3.66A39.7 39.7 0 012176 585a50.4 50.4 0 01-7.28-12 133.19 133.19 0 01-4.73-12.66 74.16 74.16 0 01-3.21-29.75 67.85 67.85 0 018.11-26.7 54.36 54.36 0 0117.78-19.22 45.32 45.32 0 0125.48-7.33 54.12 54.12 0 0112 1.68 66.44 66.44 0 0113.93 5 57 57 0 0112.29 8.08 23.24 23.24 0 017.27 10.53c.74 2.67.53 6.84-.74 12.53zM890.25 418.51a108.73 108.73 0 00-108.72 108.72v.4a5.35 5.35 0 005.35 5h206.73a5.35 5.35 0 005.35-5v-.17a1.77 1.77 0 000-.23 108.73 108.73 0 00-108.71-108.72z"/><circle class="cls-2" cx="702.94" cy="648.62" r="6.62"/><path class="cls-2" d="M986.43 612H764.61a6.52 6.52 0 00-5.74 9.61l.12.21a6.51 6.51 0 005.73 3.41h221.59a6.54 6.54 0 005.74-3.41l.11-.21a6.52 6.52 0 00-5.73-9.61zM1015.9 552H764.6a6.53 6.53 0 00-6.5 6.9v.2a6.5 6.5 0 006.5 6.14h251.28a6.51 6.51 0 006.51-6.14v-.2a6.54 6.54 0 00-6.49-6.9zM921.28 702H808c-6.87 0-9 9.25-2.9 12.35l.41.21a6.5 6.5 0 002.91.67h112.44a6.5 6.5 0 002.91-.67l.41-.21c6.14-3.11 3.97-12.35-2.9-12.35zM990.47 672H877.22c-6.88 0-9 9.25-2.9 12.35l.41.21a6.5 6.5 0 002.91.67h112.42a6.49 6.49 0 002.9-.67l.42-.21a6.52 6.52 0 00-2.91-12.35zM836.05 653.16l-.2-.21a6.51 6.51 0 014.78-10.95h183.81a6.51 6.51 0 014.78 10.94l-.19.21a6.57 6.57 0 01-4.78 2.08H840.82a6.55 6.55 0 01-4.77-2.07zM726.57 642h87.78c6.88 0 9 9.25 2.9 12.35l-.41.2a6.51 6.51 0 01-2.91.68H727a6.51 6.51 0 01-2.91-.68l-.41-.2c-6.15-3.09-3.99-12.35 2.89-12.35z"/><circle class="cls-2" cx="740.97" cy="558.65" r="6.62"/><path class="cls-2" d="M903.56 590.43l.06-.21a6.51 6.51 0 00-6.3-8.19H713.49a6.51 6.51 0 00-6.3 8.19l.06.21a6.53 6.53 0 006.29 4.83h183.72a6.55 6.55 0 006.3-4.83z"/><circle class="cls-2" cx="689.85" cy="588.64" r="6.62"/><circle class="cls-2" cx="740.97" cy="618.63" r="6.62"/><circle class="cls-2" cx="853.59" cy="678.62" r="6.62"/><circle class="cls-2" cx="784.39" cy="708.61" r="6.62"/></svg>