<svg width="27" height="27" fill="none" xmlns="http://www.w3.org/2000/svg"><path fill-rule="evenodd" clip-rule="evenodd" d="M18 2.25H9a3.386 3.386 0 0 0-3.375 3.375v15.75A3.386 3.386 0 0 0 9 24.75h9a3.385 3.385 0 0 0 3.375-3.375V5.625A3.385 3.385 0 0 0 18 2.25zm0 2.25c.61 0 1.125.515 1.125 1.125v15.75A1.14 1.14 0 0 1 18 22.5H9a1.14 1.14 0 0 1-1.125-1.125V5.625C7.875 5.015 8.39 4.5 9 4.5h9z" fill="#008C73"/><path fill-rule="evenodd" clip-rule="evenodd" d="M13.5 18.851a1.407 1.407 0 1 0 .001 2.813 1.407 1.407 0 0 0-.001-2.813z" fill="#008C73"/></svg>