<svg xmlns="http://www.w3.org/2000/svg" width="400" height="345.897"><g fill-rule="evenodd"><path d="M.221.326c.287.346.572.819 1.085 1.802.175.334.541.972.813 1.418.273.446.612 1.039.755 1.317.142.279.308.552.368.608.06.056.224.329.363.608.139.279.475.871.746 1.317.271.446.609 1.039.752 1.317.142.279.323.554.402.612.079.058.242.332.364.608.121.277.439.867.707 1.313.269.446.631 1.084.806 1.419.174.334.497.881.716 1.215.22.335.543.882.718 1.216a36.453 36.453 0 001.517 2.634c.216.335.534.882.706 1.216.171.335.534.973.807 1.419.272.446.612 1.038.754 1.317.142.278.324.554.402.612.079.058.243.331.364.608.121.276.442.867.712 1.313.271.446.609 1.038.751 1.317.142.279.324.554.402.612.079.058.243.331.364.608.121.276.44.867.708 1.313.268.446.631 1.084.805 1.418.175.335.497.882.717 1.216.22.334.542.882.718 1.216a36.69 36.69 0 001.516 2.634c.217.334.534.882.706 1.216.172.334.535.973.807 1.418.273.446.612 1.039.755 1.318.142.278.323.554.402.612.079.058.242.331.363.607.122.277.442.868.713 1.313.27.446.609 1.039.752 1.318.144.278.37.62.502.76.193.202 35.355.243 174.968.202l174.727-.051.836-1.418c.459-.78 1.066-1.829 1.347-2.33.281-.502.913-1.596 1.402-2.432.49-.836 1.028-1.793 1.195-2.128.167-.334.355-.653.419-.709.092-.08 5.007-8.545 6.824-11.753.221-.39.916-1.583 1.544-2.652.628-1.068 1.142-2.041 1.142-2.161 0-.12.074-.249.165-.286.154-.063 6.093-10.243 7.014-12.023.231-.446.47-.856.531-.912.248-.227 2.016-3.396 2.016-3.615 0-.129.082-.235.181-.235.1 0 .234-.137.298-.304.104-.27-22.18-.304-199.8-.304C16.288 0-.028.027.221.326m49.83 86.26c0 .144.101.365.226.489.231.231.518.705 1.08 1.78.175.334.541.973.813 1.419.272.445.612 1.038.754 1.317.143.278.315.552.384.608.116.094.241.315 1.087 1.925.175.334.542.972.814 1.418.273.446.612 1.039.755 1.317.142.279.323.554.402.612.079.058.243.332.364.608.121.276.439.867.708 1.313.268.446.63 1.084.805 1.419.175.334.497.881.717 1.215.219.335.539.882.711 1.216.171.334.535.973.807 1.419.272.445.612 1.038.754 1.317.143.278.315.552.384.608.116.094.241.315 1.087 1.925.175.334.542.972.814 1.418.272.446.596 1.037.72 1.313s.291.55.369.608c.079.058.258.333.397.612.139.279.473.871.742 1.317.269.446.631 1.084.806 1.419.175.334.497.881.717 1.215.219.335.539.882.711 1.216.171.335.535.973.807 1.419.272.445.612 1.038.754 1.317.143.278.324.554.403.612.079.058.242.331.363.608.121.276.44.867.708 1.313.269.445.631 1.084.805 1.418.175.334.498.882.717 1.216.22.334.54.881.711 1.216.172.334.533.972.803 1.418.271.446.634 1.084.809 1.419.175.334.497.881.717 1.215.219.335.539.882.711 1.216.171.335.535.973.807 1.419.272.445.612 1.038.754 1.317.143.278.324.554.403.612.079.058.242.331.363.608.121.276.44.867.708 1.313.269.445.631 1.084.805 1.418.175.334.498.882.717 1.216.22.334.54.881.711 1.216.172.334.536.972.809 1.418.274.446.601 1.061.728 1.368.127.306.304.557.393.557.09 0 .267.251.395.557.24.58.694 1.408 1.527 2.787.27.445.607 1.038.749 1.317.143.278.324.554.403.612.079.058.242.331.363.608.121.276.44.867.708 1.313.269.446.631 1.084.806 1.418.174.335.497.882.716 1.216.22.334.54.881.711 1.216.172.334.535.972.807 1.418.273.446.612 1.039.755 1.317.142.279.315.553.384.608.116.095.241.316 1.086 1.925.176.335.543.973.815 1.419.272.446.612 1.038.754 1.317.143.278.324.554.403.612.079.058.242.331.363.608.121.276.44.867.708 1.313.269.446.631 1.084.806 1.418.174.335.497.882.716 1.216.22.334.54.881.711 1.216.172.334.535.972.807 1.418.273.446.612 1.039.755 1.317.142.279.315.553.384.608.116.095.241.316 1.086 1.925.176.335.543.973.817 1.419.273.446.601 1.061.727 1.368.127.306.304.557.394.557.089 0 .264.251.388.557.123.306.445.922.715 1.368.269.446.633 1.084.808 1.418.174.335.497.882.716 1.216.22.334.54.881.711 1.216.172.334.535.972.807 1.418.273.446.612 1.039.755 1.317.142.279.323.554.402.612.079.058.243.332.364.608.121.277.439.868.708 1.313.268.446.63 1.084.805 1.419.175.334.497.881.717 1.216.219.334.539.881.711 1.215.171.335.533.973.803 1.419.27.446.634 1.084.809 1.418.174.335.497.882.716 1.216.22.334.54.882.711 1.216.172.334.535.973.807 1.418.273.446.612 1.039.755 1.317.142.279.323.554.402.612.079.058.243.332.364.608.121.277.439.868.708 1.313.268.446.63 1.084.805 1.419.175.334.497.881.717 1.216.219.334.539.881.711 1.215.171.335.533.973.803 1.419.27.446.634 1.084.809 1.418.174.335.497.882.716 1.216.22.334.54.882.711 1.216.172.334.535.973.808 1.418.272.446.611 1.039.754 1.317.142.279.323.555.402.612.079.058.243.332.364.608.121.277.439.868.708 1.313.268.446.63 1.084.805 1.419.175.334.497.881.717 1.216.219.334.539.881.711 1.215.171.335.535.973.807 1.419.272.446.612 1.038.754 1.317.143.279.315.552.384.608.116.094.241.315 1.087 1.925.175.334.542.973.815 1.418.272.446.611 1.039.754 1.318.142.278.323.554.402.612.079.058.243.331.364.607.121.277.439.868.708 1.313.268.446.63 1.085.805 1.419.175.334.497.881.717 1.216.219.334.539.881.711 1.215.171.335.535.973.807 1.419.272.446.612 1.038.754 1.317.143.279.315.552.384.608.116.094.241.315 1.087 1.925.175.334.543.973.816 1.418.274.446.601 1.062.728 1.368.127.307.304.557.393.557.09 0 .265.251.388.558.124.306.446.922.715 1.367.27.446.633 1.085.808 1.419.175.334.497.881.717 1.216.219.334.539.881.711 1.216.171.334.535.972.807 1.418.272.446.612 1.038.754 1.317.143.279.315.552.384.608.116.094.241.315 1.087 1.925.175.334.542.973.814 1.418.272.446.596 1.037.72 1.313.124.277.291.55.369.608.079.058.258.334.397.612.139.279.473.872.742 1.317.269.446.631 1.085.806 1.419.175.334.497.881.717 1.216.219.334.539.881.711 1.216.171.334.535.972.807 1.418.272.446.612 1.038.754 1.317.143.279.324.554.403.612.079.058.242.332.363.608.121.276.44.867.708 1.313.269.446.631 1.084.806 1.418.174.335.497.882.716 1.216.22.335.54.882.711 1.216.172.334.533.973.803 1.419.271.445.634 1.084.809 1.418.175.334.497.881.717 1.216.219.334.539.881.711 1.216.171.334.535.972.807 1.418.272.446.612 1.039.754 1.317.143.279.324.554.403.612.079.058.242.332.363.608.121.276.44.867.708 1.313.269.446.631 1.084.806 1.419.174.334.497.881.716 1.215.22.335.54.882.711 1.216.172.334.535.973.808 1.419.272.445.611 1.038.754 1.317.142.278.315.552.384.608.116.094.241.315 1.086 1.925.176.334.543.972.815 1.418.272.446.612 1.039.754 1.317.143.279.324.554.403.612.079.058.242.332.363.608.121.276.44.867.708 1.313.269.446.631 1.084.806 1.419.174.334.497.881.716 1.215.22.335.54.882.711 1.216.172.334.535.973.808 1.419.272.445.611 1.038.754 1.317.142.278.315.552.384.608.116.094.241.315 1.086 1.925.176.334.543.972.815 1.418.272.446.612 1.039.754 1.317.143.279.324.554.403.612.079.058.242.332.363.608.121.276.44.867.708 1.313.269.446.631 1.084.806 1.419.174.334.497.881.716 1.215.22.335.54.882.711 1.216.172.335.535.973.808 1.419.272.445.611 1.038.754 1.317.142.278.315.552.384.608.116.094.241.315 1.086 1.925.176.334.542.972.814 1.418.272.446.597 1.037.721 1.313s.29.55.369.608c.079.058.257.333.397.612.139.279.473.871.741 1.317.269.446.632 1.084.807 1.419.174.334.497.881.716 1.215.22.335.54.882.711 1.216.172.335.535.973.808 1.419.272.445.611 1.038.754 1.317.142.278.323.554.402.612.079.058.243.331.364.608.121.276.439.867.708 1.313.268.445.63 1.084.805 1.418.175.334.497.882.717 1.216.219.334.539.881.711 1.216.171.334.533.972.803 1.418.27.446.637 1.084.816 1.419.759 1.417.959 1.749 1.02 1.687.088-.092 4.154-7.097 4.154-7.158 0-.028.48-.86 1.066-1.849.586-.989 1.202-2.072 1.367-2.407.166-.334.352-.653.413-.709.237-.215 2.017-3.391 2.017-3.598 0-.12.074-.249.165-.286.129-.053 4.423-7.373 6.874-11.719.22-.39.801-1.393 1.291-2.229.489-.836 1.027-1.793 1.194-2.128.167-.334.353-.653.415-.709.237-.215 2.017-3.39 2.017-3.597 0-.121.074-.249.164-.287.129-.052 4.423-7.373 6.875-11.719.22-.39.8-1.393 1.29-2.229a52.645 52.645 0 001.194-2.127c.167-.335.354-.654.415-.709.237-.216 2.017-3.391 2.017-3.598 0-.12.074-.249.165-.286.129-.053 4.423-7.373 6.874-11.719.22-.39.801-1.393 1.291-2.229a54.542 54.542 0 001.194-2.128c.167-.334.353-.653.415-.709.236-.216 2.017-3.391 2.017-3.598 0-.12.073-.249.164-.286.152-.063 8.316-14.081 9.244-15.873.231-.446.469-.856.53-.912.237-.216 2.017-3.391 2.017-3.597 0-.121.074-.249.164-.287.153-.063 8.317-14.081 9.244-15.873.231-.445.47-.856.531-.911.237-.217 2.016-3.392 2.016-3.598 0-.12.074-.249.164-.286.153-.063 8.317-14.082 9.245-15.873.23-.446.469-.856.53-.912.237-.216 2.017-3.391 2.017-3.598 0-.12.074-.249.164-.286.153-.063 8.317-14.081 9.244-15.873.231-.446.47-.856.531-.912.237-.216 2.016-3.391 2.016-3.598 0-.12.074-.249.164-.286.153-.063 8.317-14.081 9.244-15.873.231-.446.47-.856.531-.912.237-.216 2.017-3.391 2.017-3.597 0-.12.073-.249.164-.286.152-.063 8.317-14.082 9.244-15.873.231-.446.469-.857.53-.912.237-.217 2.017-3.391 2.017-3.598 0-.12.074-.249.164-.286.153-.063 8.317-14.081 9.244-15.873.231-.446.47-.856.531-.912.237-.216 2.016-3.391 2.016-3.598 0-.12.074-.249.164-.286.153-.063 8.317-14.081 9.245-15.873.23-.446.469-.856.53-.912.237-.216 2.017-3.391 2.017-3.597 0-.121.074-.249.165-.286.182-.075 9.016-15.293 9.12-15.712.054-.215-27.126-.263-149.696-.263-122.746 0-149.761.048-149.761.264m224.427 43.778c-.284.372-.517.734-.517.804 0 .07-.445.882-.991 1.805-.545.922-1.007 1.769-1.027 1.88-.02.112-.159.34-.308.507-.149.167-.566.851-.926 1.519-.36.669-.761 1.353-.891 1.52a5.5 5.5 0 00-.48.811c-.133.278-.438.825-.676 1.216a53.75 53.75 0 00-1.04 1.823c-.334.613-.745 1.274-.914 1.469-.169.195-.242.355-.164.355.079 0-.089.305-.374.678-.284.372-.517.734-.517.804 0 .07-.445.882-.991 1.805-.545.922-1.007 1.769-1.027 1.88-.02.112-.159.34-.308.507-.149.167-.566.851-.926 1.519-.36.669-.761 1.353-.891 1.52a5.5 5.5 0 00-.48.811c-.133.278-.438.825-.676 1.216a53.75 53.75 0 00-1.04 1.823c-.334.613-.745 1.274-.914 1.469-.169.195-.242.355-.164.355.079 0-.089.305-.374.678-.284.372-.517.734-.517.804 0 .07-.472.927-1.05 1.906-.578.978-1.041 1.825-1.028 1.88.013.056-.099.239-.248.406-.149.167-.566.851-.926 1.519-.36.669-.761 1.353-.891 1.52a5.5 5.5 0 00-.48.811 17.17 17.17 0 01-.676 1.216 53.75 53.75 0 00-1.04 1.823c-.334.613-.745 1.274-.914 1.469-.169.195-.233.355-.143.355.091 0 .023.16-.15.355-.173.195-.491.673-.706 1.063-.532.967-1.895 3.343-2.365 4.124a61.12 61.12 0 00-.991 1.753c-.333.613-.713 1.251-.843 1.418a5.34 5.34 0 00-.476.811 8.817 8.817 0 01-.44.81c-.512.78-2.308 3.963-2.288 4.053.013.056-.097.238-.245.405-.148.167-.445.623-.66 1.013-.532.967-1.895 3.343-2.365 4.124a61.12 61.12 0 00-.991 1.753c-.333.613-.713 1.251-.843 1.418a5.34 5.34 0 00-.476.811 8.817 8.817 0 01-.44.81c-.58.885-2.187 3.767-2.163 3.88.016.072-.121.3-.305.506-.184.207-.51.695-.725 1.086-.532.966-1.895 3.342-2.365 4.123a61.12 61.12 0 00-.991 1.753c-.333.613-.745 1.274-.913 1.469-.169.195-.243.355-.164.355.078 0-.09.305-.374.677-.284.373-.517.735-.517.805 0 .069-.446.881-.991 1.804-.545.923-1.008 1.769-1.028 1.881-.02.111-.158.339-.308.506-.149.168-.565.851-.925 1.52-.36.669-.761 1.353-.891 1.52-.13.167-.346.532-.48.81-.134.279-.438.826-.677 1.216-.238.39-.706 1.211-1.04 1.824-.333.613-.745 1.274-.913 1.469-.169.195-.243.355-.164.355.078 0-.09.305-.374.677-.284.373-.517.735-.517.805 0 .069-.473.927-1.051 1.906-.578.978-1.04 1.824-1.028 1.88.013.056-.098.238-.248.405-.149.168-.565.851-.925 1.52-.36.669-.761 1.353-.891 1.52-.13.167-.346.532-.48.81-.134.279-.438.826-.677 1.216-.238.39-.706 1.211-1.04 1.824-.333.613-.745 1.274-.913 1.469-.169.195-.233.355-.143.355.09 0 .022.159-.151.354-.173.195-.49.674-.705 1.064-.533.967-1.896 3.343-2.365 4.123a62.793 62.793 0 00-.991 1.754c-.334.612-.713 1.251-.843 1.418-.13.167-.345.532-.477.81a8.27 8.27 0 01-.44.811c-.409.624-2.325 3.955-2.331 4.053-.003.055-.211.389-.461.74-.251.352-.456.686-.456.742 0 .164-1.658 3.028-2.052 3.546l-.358.47-.483-.774a47.845 47.845 0 01-1.096-1.887c-.996-1.813-1.516-2.723-1.679-2.939-.085-.111-.381-.613-.659-1.114a195.69 195.69 0 00-.939-1.672c-.239-.418-.626-1.102-.861-1.52-.235-.418-.496-.851-.581-.962-.084-.112-.381-.613-.659-1.115-.899-1.623-1.341-2.39-1.834-3.178a47.845 47.845 0 01-1.096-1.887c-.996-1.813-1.516-2.723-1.679-2.939-.085-.111-.381-.613-.659-1.114-.9-1.624-1.342-2.39-1.835-3.178a47.52 47.52 0 01-1.095-1.888c-.918-1.671-1.409-2.525-1.944-3.381a48.586 48.586 0 01-1.096-1.887c-.996-1.813-1.516-2.723-1.679-2.939-.085-.111-.381-.613-.659-1.114-.9-1.624-1.342-2.39-1.835-3.178a47.52 47.52 0 01-1.095-1.888c-.918-1.671-1.409-2.525-1.944-3.381a47.95 47.95 0 01-1.096-1.888c-.996-1.812-1.516-2.722-1.679-2.938-.085-.111-.381-.613-.659-1.114-.9-1.624-1.342-2.39-1.835-3.178a47.52 47.52 0 01-1.095-1.888c-.996-1.813-1.516-2.723-1.68-2.938-.084-.112-.381-.613-.659-1.115-.278-.501-.7-1.254-.939-1.671-.238-.418-.626-1.102-.86-1.52a13.901 13.901 0 00-.581-.963c-.085-.111-.381-.613-.659-1.114-.9-1.624-1.342-2.39-1.835-3.178a47.52 47.52 0 01-1.095-1.888c-.996-1.813-1.516-2.723-1.68-2.938-.084-.112-.381-.613-.659-1.115-.278-.501-.7-1.254-.939-1.671-.238-.418-.626-1.102-.86-1.52a13.901 13.901 0 00-.581-.963c-.085-.111-.381-.613-.659-1.114-.9-1.624-1.342-2.39-1.835-3.179a46.712 46.712 0 01-1.095-1.887c-.996-1.813-1.516-2.723-1.68-2.938-.084-.112-.381-.613-.659-1.115-.899-1.624-1.341-2.39-1.834-3.178a47.95 47.95 0 01-1.096-1.888c-.918-1.671-1.409-2.525-1.944-3.381a46.712 46.712 0 01-1.095-1.887c-.996-1.813-1.516-2.723-1.68-2.938-.084-.112-.381-.613-.659-1.115-.899-1.624-1.341-2.39-1.834-3.178a47.95 47.95 0 01-1.096-1.888c-.918-1.671-1.409-2.525-1.944-3.381a46.712 46.712 0 01-1.095-1.887c-.996-1.813-1.516-2.723-1.68-2.938-.084-.112-.381-.613-.659-1.115-.899-1.624-1.341-2.39-1.834-3.178a47.95 47.95 0 01-1.096-1.888c-.996-1.813-1.516-2.722-1.679-2.938-.085-.111-.381-.613-.659-1.114a195.69 195.69 0 00-.939-1.672c-1.047-1.834-1.245-2.196-1.245-2.286 0-.052 33.744-.095 74.985-.095h74.985l-.517.678" fill="#043cc3"/><path d="M3.951 7.092c.173.335.36.608.416.608.056 0-.04-.273-.213-.608-.173-.334-.36-.608-.416-.608-.055 0 .04.274.213.608m2.229 3.85c.173.335.36.608.416.608.056 0-.04-.273-.213-.608-.173-.334-.36-.608-.416-.608-.055 0 .04.274.213.608m7.498 12.969c.173.334.36.608.415.608.056 0-.04-.274-.213-.608-.172-.335-.36-.608-.415-.608-.056 0 .04.273.213.608m2.229 3.85c.173.334.36.608.415.608.056 0-.04-.274-.213-.608-.172-.334-.36-.608-.415-.608-.056 0 .04.274.213.608m5.268 9.118c.173.335.36.608.416.608.056 0-.04-.273-.213-.608-.173-.334-.36-.607-.416-.607-.055 0 .04.273.213.607m2.229 3.85c.173.335.36.608.416.608.056 0-.04-.273-.213-.608-.173-.334-.36-.607-.416-.607-.056 0 .04.273.213.607M51.773 89.97c.173.334.36.608.416.608.055 0-.04-.274-.213-.608-.173-.335-.36-.608-.416-.608-.056 0 .04.273.213.608m2.229 3.85c.173.334.36.608.416.608.055 0-.04-.274-.213-.608-.173-.335-.36-.608-.416-.608-.056 0 .04.273.213.608m3.04 5.268c.172.334.359.608.415.608.056 0-.04-.274-.213-.608-.173-.334-.36-.608-.416-.608-.055 0 .041.274.214.608m3.039 5.269c.173.334.36.608.416.608.055 0-.04-.274-.213-.608-.173-.335-.36-.608-.416-.608-.056 0 .04.273.213.608m2.229 3.85c.173.334.36.608.416.608.055 0-.04-.274-.213-.608-.173-.335-.36-.608-.416-.608-.056 0 .04.273.213.608m3.04 5.268c.172.335.359.608.415.608.056 0-.04-.273-.213-.608-.173-.334-.36-.608-.415-.608-.056 0 .04.274.213.608m3.039 5.269c.173.334.36.608.416.608.055 0-.04-.274-.213-.608-.173-.335-.36-.608-.416-.608-.056 0 .04.273.213.608m2.229 3.85c.173.334.36.608.416.608.055 0-.04-.274-.213-.608-.173-.335-.36-.608-.416-.608-.056 0 .04.273.213.608m3.04 5.268c.172.335.359.608.415.608.056 0-.04-.273-.213-.608-.173-.334-.36-.608-.415-.608-.056 0 .04.274.213.608m88.82 1.976c20.655.028 54.394.028 74.975 0 20.581-.029 3.682-.052-37.554-.052-41.236 0-58.075.023-37.421.052m-83.552 7.143c.173.334.36.608.416.608.055 0-.04-.274-.213-.608-.173-.335-.36-.608-.416-.608-.056 0 .04.273.213.608m3.04 5.268c.172.335.36.608.415.608.056 0-.04-.273-.213-.608-.173-.334-.36-.608-.415-.608-.056 0 .04.274.213.608m5.268 9.119c.173.334.36.608.416.608.055 0-.04-.274-.213-.608-.173-.335-.36-.608-.416-.608-.056 0 .04.273.213.608m3.04 5.268c.172.335.36.608.415.608.056 0-.04-.273-.213-.608-.173-.334-.36-.608-.415-.608-.056 0 .04.274.213.608m2.229 3.85c.172.335.359.608.415.608.056 0-.04-.273-.213-.608-.173-.334-.36-.608-.416-.608-.055 0 .041.274.214.608m3.039 5.269c.173.334.36.608.416.608.055 0-.04-.274-.213-.608-.173-.335-.36-.608-.416-.608-.056 0 .04.273.213.608m3.04 5.268c.172.335.36.608.415.608.056 0-.04-.273-.213-.608-.173-.334-.36-.608-.415-.608-.056 0 .04.274.213.608m2.229 3.85c.172.335.359.608.415.608.056 0-.04-.273-.213-.608-.173-.334-.36-.608-.416-.608-.055 0 .041.274.214.608m3.039 5.269c.173.334.36.608.416.608.055 0-.04-.274-.213-.608-.173-.335-.36-.608-.416-.608-.056 0 .04.273.213.608m3.04 5.268c.172.335.36.608.415.608.056 0-.04-.273-.213-.608-.173-.334-.36-.608-.415-.608-.056 0 .04.274.213.608m2.229 3.85c.172.335.359.608.415.608.056 0-.04-.273-.213-.608-.173-.334-.36-.608-.416-.608-.055 0 .041.274.214.608m3.039 5.269c.173.334.36.608.416.608.055 0-.04-.274-.213-.608-.173-.334-.36-.608-.416-.608-.056 0 .04.274.213.608m5.269 9.118c.172.335.359.608.415.608.056 0-.04-.273-.213-.608-.173-.334-.36-.607-.415-.607-.056 0 .04.273.213.607m3.039 5.269c.173.334.36.608.416.608.055 0-.04-.274-.213-.608-.173-.334-.36-.608-.416-.608-.056 0 .04.274.213.608m5.269 9.118c.172.335.36.608.415.608.056 0-.04-.273-.213-.608-.173-.334-.36-.607-.415-.607-.056 0 .04.273.213.607m3.039 5.269c.173.334.36.608.416.608.055 0-.04-.274-.213-.608-.173-.334-.36-.608-.416-.608-.056 0 .04.274.213.608m2.229 3.85c.173.334.36.608.416.608.055 0-.04-.274-.213-.608-.173-.334-.36-.608-.416-.608-.056 0 .04.274.213.608m3.04 5.268c.172.335.36.608.415.608.056 0-.04-.273-.213-.608-.173-.334-.36-.607-.415-.607-.056 0 .04.273.213.607m3.039 5.269c.173.334.36.608.416.608.055 0-.04-.274-.213-.608-.173-.334-.36-.608-.416-.608-.056 0 .04.274.213.608m2.229 3.85c.173.334.36.608.416.608.055 0-.04-.274-.213-.608-.173-.334-.36-.608-.416-.608-.056 0 .04.274.213.608m3.04 5.269c.172.334.36.607.415.607.056 0-.04-.273-.213-.607-.173-.335-.36-.608-.415-.608-.056 0 .04.273.213.608m3.039 5.268c.173.334.36.608.416.608.055 0-.04-.274-.213-.608-.173-.334-.36-.608-.416-.608-.056 0 .04.274.213.608m2.229 3.85c.173.334.36.608.416.608.055 0-.04-.274-.213-.608-.173-.334-.36-.608-.416-.608-.056 0 .04.274.213.608m3.04 5.269c.172.334.36.607.415.607.056 0-.04-.273-.213-.607-.173-.335-.36-.608-.415-.608-.056 0 .04.273.213.608m5.268 9.118c.173.334.36.608.416.608.055 0-.04-.274-.213-.608-.173-.334-.36-.608-.416-.608-.056 0 .04.274.213.608m3.04 5.269c.172.334.36.607.415.607.056 0-.04-.273-.213-.607-.173-.335-.36-.608-.415-.608-.056 0 .04.273.213.608m5.268 9.118c.173.334.36.608.416.608.055 0-.04-.274-.213-.608-.173-.334-.36-.608-.416-.608-.056 0 .04.274.213.608m3.04 5.269c.172.334.36.608.415.608.056 0-.04-.274-.213-.608-.173-.335-.36-.608-.415-.608-.056 0 .04.273.213.608m2.229 3.85c.172.334.359.608.415.608.056 0-.04-.274-.213-.608-.173-.335-.36-.608-.415-.608-.056 0 .04.273.213.608m3.039 5.268c.173.334.36.608.416.608.055 0-.04-.274-.213-.608-.173-.334-.36-.608-.416-.608-.056 0 .04.274.213.608m3.04 5.269c.172.334.36.608.415.608.056 0-.04-.274-.213-.608-.173-.335-.36-.608-.415-.608-.056 0 .04.273.213.608m2.229 3.85c.172.334.36.608.415.608.056 0-.04-.274-.213-.608-.173-.335-.36-.608-.415-.608-.056 0 .04.273.213.608m3.039 5.268c.173.335.36.608.416.608.055 0-.04-.273-.213-.608-.173-.334-.36-.608-.416-.608-.056 0 .04.274.213.608m3.04 5.269c.172.334.36.608.415.608.056 0-.04-.274-.213-.608-.173-.335-.36-.608-.415-.608-.056 0 .04.273.213.608m2.229 3.85c.172.334.36.608.415.608.056 0-.04-.274-.213-.608-.173-.335-.36-.608-.415-.608-.056 0 .04.273.213.608m3.039 5.268c.173.335.36.608.416.608.055 0-.04-.273-.213-.608-.173-.334-.36-.608-.416-.608-.056 0 .04.274.213.608m5.269 9.119c.172.334.36.608.415.608.056 0-.04-.274-.213-.608-.173-.335-.36-.608-.415-.608-.056 0 .04.273.213.608m3.039 5.268c.173.335.36.608.416.608.055 0-.04-.273-.213-.608-.173-.334-.36-.608-.416-.608-.056 0 .04.274.213.608" fill="#0434bc"/></g></svg>