<svg id="svg" version="1.1" xmlns="http://www.w3.org/2000/svg" xmlns:xlink="http://www.w3.org/1999/xlink" width="400" height="345.8966565349544" viewBox="0, 0, 400,345.8966565349544"><g id="svgg"><path id="path0" d="" stroke="none" fill="#0434c4" fill-rule="evenodd"></path><path id="path1" d="M0.221 0.326 C 0.508 0.672,0.793 1.145,1.306 2.128 C 1.481 2.462,1.847 3.100,2.119 3.546 C 2.392 3.992,2.731 4.585,2.874 4.863 C 3.016 5.142,3.182 5.415,3.242 5.471 C 3.302 5.527,3.466 5.800,3.605 6.079 C 3.744 6.358,4.080 6.950,4.351 7.396 C 4.622 7.842,4.960 8.435,5.103 8.713 C 5.245 8.992,5.426 9.267,5.505 9.325 C 5.584 9.383,5.747 9.657,5.869 9.933 C 5.990 10.210,6.308 10.800,6.576 11.246 C 6.845 11.692,7.207 12.330,7.382 12.665 C 7.556 12.999,7.879 13.546,8.098 13.880 C 8.318 14.215,8.641 14.762,8.816 15.096 C 9.304 16.027,9.897 17.058,10.333 17.730 C 10.549 18.065,10.867 18.612,11.039 18.946 C 11.210 19.281,11.573 19.919,11.846 20.365 C 12.118 20.811,12.458 21.403,12.600 21.682 C 12.742 21.960,12.924 22.236,13.002 22.294 C 13.081 22.352,13.245 22.625,13.366 22.902 C 13.487 23.178,13.808 23.769,14.078 24.215 C 14.349 24.661,14.687 25.253,14.829 25.532 C 14.971 25.811,15.153 26.086,15.231 26.144 C 15.310 26.202,15.474 26.475,15.595 26.752 C 15.716 27.028,16.035 27.619,16.303 28.065 C 16.571 28.511,16.934 29.149,17.108 29.483 C 17.283 29.818,17.605 30.365,17.825 30.699 C 18.045 31.033,18.367 31.581,18.543 31.915 C 19.030 32.845,19.624 33.877,20.059 34.549 C 20.276 34.883,20.593 35.431,20.765 35.765 C 20.937 36.099,21.300 36.738,21.572 37.183 C 21.845 37.629,22.184 38.222,22.327 38.501 C 22.469 38.779,22.650 39.055,22.729 39.113 C 22.808 39.171,22.971 39.444,23.092 39.720 C 23.214 39.997,23.534 40.588,23.805 41.033 C 24.075 41.479,24.414 42.072,24.557 42.351 C 24.701 42.629,24.927 42.971,25.059 43.111 C 25.252 43.313,60.414 43.354,200.027 43.313 L 374.754 43.262 375.590 41.844 C 376.049 41.064,376.656 40.015,376.937 39.514 C 377.218 39.012,377.850 37.918,378.339 37.082 C 378.829 36.246,379.367 35.289,379.534 34.954 C 379.701 34.620,379.889 34.301,379.953 34.245 C 380.045 34.165,384.960 25.700,386.777 22.492 C 386.998 22.102,387.693 20.909,388.321 19.840 C 388.949 18.772,389.463 17.799,389.463 17.679 C 389.463 17.559,389.537 17.430,389.628 17.393 C 389.782 17.330,395.721 7.150,396.642 5.370 C 396.873 4.924,397.112 4.514,397.173 4.458 C 397.421 4.231,399.189 1.062,399.189 0.843 C 399.189 0.714,399.271 0.608,399.370 0.608 C 399.470 0.608,399.604 0.471,399.668 0.304 C 399.772 0.034,377.488 0.000,199.868 0.000 C 16.288 0.000,-0.028 0.027,0.221 0.326 M50.051 86.586 C 50.051 86.730,50.152 86.951,50.277 87.075 C 50.508 87.306,50.795 87.780,51.357 88.855 C 51.532 89.189,51.898 89.828,52.170 90.274 C 52.442 90.719,52.782 91.312,52.924 91.591 C 53.067 91.869,53.239 92.143,53.308 92.199 C 53.424 92.293,53.549 92.514,54.395 94.124 C 54.570 94.458,54.937 95.096,55.209 95.542 C 55.482 95.988,55.821 96.581,55.964 96.859 C 56.106 97.138,56.287 97.413,56.366 97.471 C 56.445 97.529,56.609 97.803,56.730 98.079 C 56.851 98.355,57.169 98.946,57.438 99.392 C 57.706 99.838,58.068 100.476,58.243 100.811 C 58.418 101.145,58.740 101.692,58.960 102.026 C 59.179 102.361,59.499 102.908,59.671 103.242 C 59.842 103.576,60.206 104.215,60.478 104.661 C 60.750 105.106,61.090 105.699,61.232 105.978 C 61.375 106.256,61.547 106.530,61.616 106.586 C 61.732 106.680,61.857 106.901,62.703 108.511 C 62.878 108.845,63.245 109.483,63.517 109.929 C 63.789 110.375,64.113 110.966,64.237 111.242 C 64.361 111.518,64.528 111.792,64.606 111.850 C 64.685 111.908,64.864 112.183,65.003 112.462 C 65.142 112.741,65.476 113.333,65.745 113.779 C 66.014 114.225,66.376 114.863,66.551 115.198 C 66.726 115.532,67.048 116.079,67.268 116.413 C 67.487 116.748,67.807 117.295,67.979 117.629 C 68.150 117.964,68.514 118.602,68.786 119.048 C 69.058 119.493,69.398 120.086,69.540 120.365 C 69.683 120.643,69.864 120.919,69.943 120.977 C 70.022 121.035,70.185 121.308,70.306 121.585 C 70.427 121.861,70.746 122.452,71.014 122.898 C 71.283 123.343,71.645 123.982,71.819 124.316 C 71.994 124.650,72.317 125.198,72.536 125.532 C 72.756 125.866,73.076 126.413,73.247 126.748 C 73.419 127.082,73.780 127.720,74.050 128.166 C 74.321 128.612,74.684 129.250,74.859 129.585 C 75.034 129.919,75.356 130.466,75.576 130.800 C 75.795 131.135,76.115 131.682,76.287 132.016 C 76.458 132.351,76.822 132.989,77.094 133.435 C 77.366 133.880,77.706 134.473,77.848 134.752 C 77.991 135.030,78.172 135.306,78.251 135.364 C 78.330 135.422,78.493 135.695,78.614 135.972 C 78.735 136.248,79.054 136.839,79.322 137.285 C 79.591 137.730,79.953 138.369,80.127 138.703 C 80.302 139.037,80.625 139.585,80.844 139.919 C 81.064 140.253,81.384 140.800,81.555 141.135 C 81.727 141.469,82.091 142.107,82.364 142.553 C 82.638 142.999,82.965 143.614,83.092 143.921 C 83.219 144.227,83.396 144.478,83.485 144.478 C 83.575 144.478,83.752 144.729,83.880 145.035 C 84.120 145.615,84.574 146.443,85.407 147.822 C 85.677 148.267,86.014 148.860,86.156 149.139 C 86.299 149.417,86.480 149.693,86.559 149.751 C 86.638 149.809,86.801 150.082,86.922 150.359 C 87.043 150.635,87.362 151.226,87.630 151.672 C 87.899 152.118,88.261 152.756,88.436 153.090 C 88.610 153.425,88.933 153.972,89.152 154.306 C 89.372 154.640,89.692 155.187,89.863 155.522 C 90.035 155.856,90.398 156.494,90.670 156.940 C 90.943 157.386,91.282 157.979,91.425 158.257 C 91.567 158.536,91.740 158.810,91.809 158.865 C 91.925 158.960,92.050 159.181,92.895 160.790 C 93.071 161.125,93.438 161.763,93.710 162.209 C 93.982 162.655,94.322 163.247,94.464 163.526 C 94.607 163.804,94.788 164.080,94.867 164.138 C 94.946 164.196,95.109 164.469,95.230 164.746 C 95.351 165.022,95.670 165.613,95.938 166.059 C 96.207 166.505,96.569 167.143,96.744 167.477 C 96.918 167.812,97.241 168.359,97.460 168.693 C 97.680 169.027,98.000 169.574,98.171 169.909 C 98.343 170.243,98.706 170.881,98.978 171.327 C 99.251 171.773,99.590 172.366,99.733 172.644 C 99.875 172.923,100.048 173.197,100.117 173.252 C 100.233 173.347,100.358 173.568,101.203 175.177 C 101.379 175.512,101.746 176.150,102.020 176.596 C 102.293 177.042,102.621 177.657,102.747 177.964 C 102.874 178.270,103.051 178.521,103.141 178.521 C 103.230 178.521,103.405 178.772,103.529 179.078 C 103.652 179.384,103.974 180.000,104.244 180.446 C 104.513 180.892,104.877 181.530,105.052 181.864 C 105.226 182.199,105.549 182.746,105.768 183.080 C 105.988 183.414,106.308 183.961,106.479 184.296 C 106.651 184.630,107.014 185.268,107.286 185.714 C 107.559 186.160,107.898 186.753,108.041 187.031 C 108.183 187.310,108.364 187.585,108.443 187.643 C 108.522 187.701,108.686 187.975,108.807 188.251 C 108.928 188.528,109.246 189.119,109.515 189.564 C 109.783 190.010,110.145 190.648,110.320 190.983 C 110.495 191.317,110.817 191.864,111.037 192.199 C 111.256 192.533,111.576 193.080,111.748 193.414 C 111.919 193.749,112.281 194.387,112.551 194.833 C 112.821 195.279,113.185 195.917,113.360 196.251 C 113.534 196.586,113.857 197.133,114.076 197.467 C 114.296 197.801,114.616 198.349,114.787 198.683 C 114.959 199.017,115.322 199.656,115.594 200.101 C 115.867 200.547,116.206 201.140,116.349 201.418 C 116.491 201.697,116.672 201.972,116.751 202.030 C 116.830 202.088,116.994 202.362,117.115 202.638 C 117.236 202.915,117.554 203.506,117.823 203.951 C 118.091 204.397,118.453 205.035,118.628 205.370 C 118.803 205.704,119.125 206.251,119.345 206.586 C 119.564 206.920,119.884 207.467,120.056 207.801 C 120.227 208.136,120.589 208.774,120.859 209.220 C 121.129 209.666,121.493 210.304,121.668 210.638 C 121.842 210.973,122.165 211.520,122.384 211.854 C 122.604 212.188,122.924 212.736,123.095 213.070 C 123.267 213.404,123.630 214.043,123.903 214.488 C 124.175 214.934,124.514 215.527,124.657 215.805 C 124.799 216.084,124.980 216.360,125.059 216.417 C 125.138 216.475,125.302 216.749,125.423 217.025 C 125.544 217.302,125.862 217.893,126.131 218.338 C 126.399 218.784,126.761 219.422,126.936 219.757 C 127.111 220.091,127.433 220.638,127.653 220.973 C 127.872 221.307,128.192 221.854,128.364 222.188 C 128.535 222.523,128.899 223.161,129.171 223.607 C 129.443 224.053,129.783 224.645,129.925 224.924 C 130.068 225.203,130.240 225.476,130.309 225.532 C 130.425 225.626,130.550 225.847,131.396 227.457 C 131.571 227.791,131.938 228.430,132.211 228.875 C 132.483 229.321,132.822 229.914,132.965 230.193 C 133.107 230.471,133.288 230.747,133.367 230.805 C 133.446 230.863,133.610 231.136,133.731 231.412 C 133.852 231.689,134.170 232.280,134.439 232.725 C 134.707 233.171,135.069 233.810,135.244 234.144 C 135.419 234.478,135.741 235.025,135.961 235.360 C 136.180 235.694,136.500 236.241,136.672 236.575 C 136.843 236.910,137.207 237.548,137.479 237.994 C 137.751 238.440,138.091 239.032,138.233 239.311 C 138.376 239.590,138.548 239.863,138.617 239.919 C 138.733 240.013,138.858 240.234,139.704 241.844 C 139.879 242.178,140.247 242.817,140.520 243.262 C 140.794 243.708,141.121 244.324,141.248 244.630 C 141.375 244.937,141.552 245.187,141.641 245.187 C 141.731 245.187,141.906 245.438,142.029 245.745 C 142.153 246.051,142.475 246.667,142.744 247.112 C 143.014 247.558,143.377 248.197,143.552 248.531 C 143.727 248.865,144.049 249.412,144.269 249.747 C 144.488 250.081,144.808 250.628,144.980 250.963 C 145.151 251.297,145.515 251.935,145.787 252.381 C 146.059 252.827,146.399 253.419,146.541 253.698 C 146.684 253.977,146.856 254.250,146.925 254.306 C 147.041 254.400,147.166 254.621,148.012 256.231 C 148.187 256.565,148.554 257.204,148.826 257.649 C 149.098 258.095,149.422 258.686,149.546 258.962 C 149.670 259.239,149.837 259.512,149.915 259.570 C 149.994 259.628,150.173 259.904,150.312 260.182 C 150.451 260.461,150.785 261.054,151.054 261.499 C 151.323 261.945,151.685 262.584,151.860 262.918 C 152.035 263.252,152.357 263.799,152.577 264.134 C 152.796 264.468,153.116 265.015,153.288 265.350 C 153.459 265.684,153.823 266.322,154.095 266.768 C 154.367 267.214,154.707 267.806,154.849 268.085 C 154.992 268.364,155.173 268.639,155.252 268.697 C 155.331 268.755,155.494 269.029,155.615 269.305 C 155.736 269.581,156.055 270.172,156.323 270.618 C 156.592 271.064,156.954 271.702,157.129 272.036 C 157.303 272.371,157.626 272.918,157.845 273.252 C 158.065 273.587,158.385 274.134,158.556 274.468 C 158.728 274.802,159.089 275.441,159.359 275.887 C 159.630 276.332,159.993 276.971,160.168 277.305 C 160.343 277.639,160.665 278.186,160.885 278.521 C 161.104 278.855,161.424 279.402,161.596 279.737 C 161.767 280.071,162.131 280.709,162.403 281.155 C 162.675 281.601,163.015 282.194,163.157 282.472 C 163.300 282.751,163.481 283.026,163.560 283.084 C 163.639 283.142,163.802 283.416,163.923 283.692 C 164.044 283.968,164.363 284.559,164.631 285.005 C 164.900 285.451,165.262 286.089,165.437 286.424 C 165.611 286.758,165.934 287.305,166.153 287.639 C 166.373 287.974,166.693 288.521,166.864 288.855 C 167.036 289.189,167.399 289.828,167.672 290.274 C 167.944 290.719,168.283 291.312,168.426 291.591 C 168.568 291.869,168.741 292.143,168.810 292.199 C 168.926 292.293,169.051 292.514,169.896 294.124 C 170.072 294.458,170.439 295.096,170.711 295.542 C 170.983 295.988,171.323 296.581,171.465 296.859 C 171.608 297.138,171.789 297.413,171.868 297.471 C 171.947 297.529,172.110 297.803,172.231 298.079 C 172.352 298.355,172.671 298.946,172.939 299.392 C 173.208 299.838,173.570 300.476,173.745 300.811 C 173.919 301.145,174.242 301.692,174.461 302.026 C 174.681 302.361,175.001 302.908,175.172 303.242 C 175.344 303.576,175.707 304.215,175.980 304.661 C 176.252 305.106,176.591 305.699,176.734 305.978 C 176.876 306.256,177.049 306.530,177.118 306.586 C 177.234 306.680,177.359 306.901,178.204 308.511 C 178.380 308.845,178.747 309.483,179.019 309.929 C 179.291 310.375,179.631 310.968,179.773 311.246 C 179.916 311.525,180.097 311.800,180.176 311.858 C 180.255 311.916,180.418 312.190,180.539 312.466 C 180.660 312.742,180.979 313.333,181.247 313.779 C 181.516 314.225,181.878 314.863,182.053 315.198 C 182.227 315.532,182.550 316.079,182.769 316.413 C 182.989 316.748,183.309 317.295,183.480 317.629 C 183.652 317.964,184.015 318.602,184.288 319.048 C 184.560 319.493,184.899 320.086,185.042 320.365 C 185.184 320.643,185.357 320.917,185.426 320.973 C 185.542 321.067,185.667 321.288,186.512 322.898 C 186.688 323.232,187.054 323.870,187.326 324.316 C 187.598 324.762,187.923 325.353,188.047 325.629 C 188.171 325.905,188.337 326.179,188.416 326.237 C 188.495 326.295,188.673 326.570,188.813 326.849 C 188.952 327.128,189.286 327.720,189.554 328.166 C 189.823 328.612,190.186 329.250,190.361 329.585 C 190.535 329.919,190.858 330.466,191.077 330.800 C 191.297 331.135,191.617 331.682,191.788 332.016 C 191.960 332.351,192.323 332.989,192.596 333.435 C 192.868 333.880,193.207 334.473,193.350 334.752 C 193.492 335.030,193.673 335.306,193.752 335.364 C 193.831 335.422,193.995 335.695,194.116 335.972 C 194.237 336.248,194.555 336.839,194.824 337.285 C 195.092 337.730,195.454 338.369,195.629 338.703 C 195.804 339.037,196.126 339.585,196.346 339.919 C 196.565 340.253,196.885 340.800,197.057 341.135 C 197.228 341.469,197.590 342.107,197.860 342.553 C 198.130 342.999,198.497 343.637,198.676 343.972 C 199.435 345.389,199.635 345.721,199.696 345.659 C 199.784 345.567,203.850 338.562,203.850 338.501 C 203.850 338.473,204.330 337.641,204.916 336.652 C 205.502 335.663,206.118 334.580,206.283 334.245 C 206.449 333.911,206.635 333.592,206.696 333.536 C 206.933 333.321,208.713 330.145,208.713 329.938 C 208.713 329.818,208.787 329.689,208.878 329.652 C 209.007 329.599,213.301 322.279,215.752 317.933 C 215.972 317.543,216.553 316.540,217.043 315.704 C 217.532 314.868,218.070 313.911,218.237 313.576 C 218.404 313.242,218.590 312.923,218.652 312.867 C 218.889 312.652,220.669 309.477,220.669 309.270 C 220.669 309.149,220.743 309.021,220.833 308.983 C 220.962 308.931,225.256 301.610,227.708 297.264 C 227.928 296.874,228.508 295.871,228.998 295.035 C 229.488 294.200,230.025 293.242,230.192 292.908 C 230.359 292.573,230.546 292.254,230.607 292.199 C 230.844 291.983,232.624 288.808,232.624 288.601 C 232.624 288.481,232.698 288.352,232.789 288.315 C 232.918 288.262,237.212 280.942,239.663 276.596 C 239.883 276.206,240.464 275.203,240.954 274.367 C 241.443 273.531,241.981 272.573,242.148 272.239 C 242.315 271.905,242.501 271.586,242.563 271.530 C 242.799 271.314,244.580 268.139,244.580 267.932 C 244.580 267.812,244.653 267.683,244.744 267.646 C 244.896 267.583,253.060 253.565,253.988 251.773 C 254.219 251.327,254.457 250.917,254.518 250.861 C 254.755 250.645,256.535 247.470,256.535 247.264 C 256.535 247.143,256.609 247.015,256.699 246.977 C 256.852 246.914,265.016 232.896,265.943 231.104 C 266.174 230.659,266.413 230.248,266.474 230.193 C 266.711 229.976,268.490 226.801,268.490 226.595 C 268.490 226.475,268.564 226.346,268.654 226.309 C 268.807 226.246,276.971 212.227,277.899 210.436 C 278.129 209.990,278.368 209.580,278.429 209.524 C 278.666 209.308,280.446 206.133,280.446 205.926 C 280.446 205.806,280.520 205.677,280.610 205.640 C 280.763 205.577,288.927 191.559,289.854 189.767 C 290.085 189.321,290.324 188.911,290.385 188.855 C 290.622 188.639,292.401 185.464,292.401 185.257 C 292.401 185.137,292.475 185.008,292.565 184.971 C 292.718 184.908,300.882 170.890,301.809 169.098 C 302.040 168.652,302.279 168.242,302.340 168.186 C 302.577 167.970,304.357 164.795,304.357 164.589 C 304.357 164.469,304.430 164.340,304.521 164.303 C 304.673 164.240,312.838 150.221,313.765 148.430 C 313.996 147.984,314.234 147.573,314.295 147.518 C 314.532 147.301,316.312 144.127,316.312 143.920 C 316.312 143.800,316.386 143.671,316.476 143.634 C 316.629 143.571,324.793 129.553,325.720 127.761 C 325.951 127.315,326.190 126.905,326.251 126.849 C 326.488 126.633,328.267 123.458,328.267 123.251 C 328.267 123.131,328.341 123.002,328.431 122.965 C 328.584 122.902,336.748 108.884,337.676 107.092 C 337.906 106.646,338.145 106.236,338.206 106.180 C 338.443 105.964,340.223 102.789,340.223 102.583 C 340.223 102.462,340.297 102.334,340.388 102.297 C 340.570 102.222,349.404 87.004,349.508 86.585 C 349.562 86.370,322.382 86.322,199.812 86.322 C 77.066 86.322,50.051 86.370,50.051 86.586 M274.478 130.364 C 274.194 130.736,273.961 131.098,273.961 131.168 C 273.961 131.238,273.516 132.050,272.970 132.973 C 272.425 133.895,271.963 134.742,271.943 134.853 C 271.923 134.965,271.784 135.193,271.635 135.360 C 271.486 135.527,271.069 136.211,270.709 136.879 C 270.349 137.548,269.948 138.232,269.818 138.399 C 269.688 138.566,269.472 138.931,269.338 139.210 C 269.205 139.488,268.900 140.035,268.662 140.426 C 268.424 140.816,267.956 141.636,267.622 142.249 C 267.288 142.862,266.877 143.523,266.708 143.718 C 266.539 143.913,266.466 144.073,266.544 144.073 C 266.623 144.073,266.455 144.378,266.170 144.751 C 265.886 145.123,265.653 145.485,265.653 145.555 C 265.653 145.625,265.208 146.437,264.662 147.360 C 264.117 148.282,263.655 149.129,263.635 149.240 C 263.615 149.352,263.476 149.580,263.327 149.747 C 263.178 149.914,262.761 150.598,262.401 151.266 C 262.041 151.935,261.640 152.619,261.510 152.786 C 261.380 152.953,261.164 153.318,261.030 153.597 C 260.897 153.875,260.592 154.422,260.354 154.813 C 260.116 155.203,259.648 156.023,259.314 156.636 C 258.980 157.249,258.569 157.910,258.400 158.105 C 258.231 158.300,258.158 158.460,258.236 158.460 C 258.315 158.460,258.147 158.765,257.862 159.138 C 257.578 159.510,257.345 159.872,257.345 159.942 C 257.345 160.012,256.873 160.869,256.295 161.848 C 255.717 162.826,255.254 163.673,255.267 163.728 C 255.280 163.784,255.168 163.967,255.019 164.134 C 254.870 164.301,254.453 164.985,254.093 165.653 C 253.733 166.322,253.332 167.006,253.202 167.173 C 253.072 167.340,252.856 167.705,252.722 167.984 C 252.589 168.262,252.284 168.810,252.046 169.200 C 251.808 169.590,251.340 170.410,251.006 171.023 C 250.672 171.636,250.261 172.297,250.092 172.492 C 249.923 172.687,249.859 172.847,249.949 172.847 C 250.040 172.847,249.972 173.007,249.799 173.202 C 249.626 173.397,249.308 173.875,249.093 174.265 C 248.561 175.232,247.198 177.608,246.728 178.389 C 246.517 178.740,246.071 179.529,245.737 180.142 C 245.404 180.755,245.024 181.393,244.894 181.560 C 244.764 181.727,244.550 182.092,244.418 182.371 C 244.285 182.649,244.087 183.014,243.978 183.181 C 243.466 183.961,241.670 187.144,241.690 187.234 C 241.703 187.290,241.593 187.472,241.445 187.639 C 241.297 187.806,241.000 188.262,240.785 188.652 C 240.253 189.619,238.890 191.995,238.420 192.776 C 238.209 193.127,237.763 193.916,237.429 194.529 C 237.096 195.142,236.716 195.780,236.586 195.947 C 236.456 196.114,236.242 196.479,236.110 196.758 C 235.977 197.036,235.779 197.401,235.670 197.568 C 235.090 198.453,233.483 201.335,233.507 201.448 C 233.523 201.520,233.386 201.748,233.202 201.954 C 233.018 202.161,232.692 202.649,232.477 203.040 C 231.945 204.006,230.582 206.382,230.112 207.163 C 229.901 207.514,229.455 208.303,229.121 208.916 C 228.788 209.529,228.376 210.190,228.208 210.385 C 228.039 210.580,227.965 210.740,228.044 210.740 C 228.122 210.740,227.954 211.045,227.670 211.417 C 227.386 211.790,227.153 212.152,227.153 212.222 C 227.153 212.291,226.707 213.103,226.162 214.026 C 225.617 214.949,225.154 215.795,225.134 215.907 C 225.114 216.018,224.976 216.246,224.826 216.413 C 224.677 216.581,224.261 217.264,223.901 217.933 C 223.541 218.602,223.140 219.286,223.010 219.453 C 222.880 219.620,222.664 219.985,222.530 220.263 C 222.396 220.542,222.092 221.089,221.853 221.479 C 221.615 221.869,221.147 222.690,220.813 223.303 C 220.480 223.916,220.068 224.577,219.900 224.772 C 219.731 224.967,219.657 225.127,219.736 225.127 C 219.814 225.127,219.646 225.432,219.362 225.804 C 219.078 226.177,218.845 226.539,218.845 226.609 C 218.845 226.678,218.372 227.536,217.794 228.515 C 217.216 229.493,216.754 230.339,216.766 230.395 C 216.779 230.451,216.668 230.633,216.518 230.800 C 216.369 230.968,215.953 231.651,215.593 232.320 C 215.233 232.989,214.832 233.673,214.702 233.840 C 214.572 234.007,214.356 234.372,214.222 234.650 C 214.088 234.929,213.784 235.476,213.545 235.866 C 213.307 236.256,212.839 237.077,212.505 237.690 C 212.172 238.303,211.760 238.964,211.592 239.159 C 211.423 239.354,211.359 239.514,211.449 239.514 C 211.539 239.514,211.471 239.673,211.298 239.868 C 211.125 240.063,210.808 240.542,210.593 240.932 C 210.060 241.899,208.697 244.275,208.228 245.055 C 208.017 245.407,207.571 246.196,207.237 246.809 C 206.903 247.421,206.524 248.060,206.394 248.227 C 206.264 248.394,206.049 248.759,205.917 249.037 C 205.785 249.316,205.587 249.681,205.477 249.848 C 205.068 250.472,203.152 253.803,203.146 253.901 C 203.143 253.956,202.935 254.290,202.685 254.641 C 202.434 254.993,202.229 255.327,202.229 255.383 C 202.229 255.547,200.571 258.411,200.177 258.929 L 199.819 259.399 199.336 258.625 C 199.070 258.200,198.577 257.351,198.240 256.738 C 197.244 254.925,196.724 254.015,196.561 253.799 C 196.476 253.688,196.180 253.186,195.902 252.685 C 195.624 252.183,195.201 251.431,194.963 251.013 C 194.724 250.595,194.337 249.911,194.102 249.493 C 193.867 249.075,193.606 248.642,193.521 248.531 C 193.437 248.419,193.140 247.918,192.862 247.416 C 191.963 245.793,191.521 245.026,191.028 244.238 C 190.762 243.813,190.269 242.964,189.932 242.351 C 188.936 240.538,188.416 239.628,188.253 239.412 C 188.168 239.301,187.872 238.799,187.594 238.298 C 186.694 236.674,186.252 235.908,185.759 235.120 C 185.493 234.694,185.000 233.845,184.664 233.232 C 183.746 231.561,183.255 230.707,182.720 229.851 C 182.454 229.426,181.961 228.576,181.624 227.964 C 180.628 226.151,180.108 225.241,179.945 225.025 C 179.860 224.914,179.564 224.412,179.286 223.911 C 178.386 222.287,177.944 221.521,177.451 220.733 C 177.185 220.307,176.692 219.458,176.356 218.845 C 175.438 217.174,174.947 216.320,174.412 215.464 C 174.146 215.039,173.653 214.189,173.316 213.576 C 172.320 211.764,171.800 210.854,171.637 210.638 C 171.552 210.527,171.256 210.025,170.978 209.524 C 170.078 207.900,169.636 207.134,169.143 206.346 C 168.877 205.920,168.384 205.071,168.048 204.458 C 167.052 202.645,166.532 201.735,166.368 201.520 C 166.284 201.408,165.987 200.907,165.709 200.405 C 165.431 199.904,165.009 199.151,164.770 198.734 C 164.532 198.316,164.144 197.632,163.910 197.214 C 163.675 196.796,163.413 196.363,163.329 196.251 C 163.244 196.140,162.948 195.638,162.670 195.137 C 161.770 193.513,161.328 192.747,160.835 191.959 C 160.569 191.533,160.076 190.684,159.740 190.071 C 158.744 188.258,158.224 187.348,158.060 187.133 C 157.976 187.021,157.679 186.520,157.401 186.018 C 157.123 185.517,156.701 184.764,156.462 184.347 C 156.224 183.929,155.836 183.245,155.602 182.827 C 155.367 182.409,155.105 181.976,155.021 181.864 C 154.936 181.753,154.640 181.251,154.362 180.750 C 153.462 179.126,153.020 178.360,152.527 177.571 C 152.261 177.146,151.768 176.297,151.432 175.684 C 150.436 173.871,149.916 172.961,149.752 172.746 C 149.668 172.634,149.371 172.133,149.093 171.631 C 148.194 170.007,147.752 169.241,147.259 168.453 C 146.993 168.028,146.500 167.178,146.163 166.565 C 145.245 164.894,144.754 164.040,144.219 163.184 C 143.953 162.759,143.460 161.910,143.124 161.297 C 142.128 159.484,141.608 158.574,141.444 158.359 C 141.360 158.247,141.063 157.746,140.785 157.244 C 139.886 155.620,139.444 154.854,138.951 154.066 C 138.685 153.641,138.192 152.791,137.855 152.178 C 136.937 150.507,136.446 149.653,135.911 148.797 C 135.645 148.372,135.152 147.523,134.816 146.910 C 133.820 145.097,133.300 144.187,133.136 143.972 C 133.052 143.860,132.755 143.359,132.477 142.857 C 131.578 141.233,131.136 140.467,130.643 139.679 C 130.377 139.254,129.884 138.404,129.547 137.791 C 128.551 135.978,128.031 135.069,127.868 134.853 C 127.783 134.742,127.487 134.240,127.209 133.739 C 126.931 133.237,126.508 132.485,126.270 132.067 C 125.223 130.233,125.025 129.871,125.025 129.781 C 125.025 129.729,158.769 129.686,200.010 129.686 L 274.995 129.686 274.478 130.364 " stroke="none" fill="#043cc3" fill-rule="evenodd"></path><path id="path2" d="M3.951 7.092 C 4.124 7.427,4.311 7.700,4.367 7.700 C 4.423 7.700,4.327 7.427,4.154 7.092 C 3.981 6.758,3.794 6.484,3.738 6.484 C 3.683 6.484,3.778 6.758,3.951 7.092 M6.180 10.942 C 6.353 11.277,6.540 11.550,6.596 11.550 C 6.652 11.550,6.556 11.277,6.383 10.942 C 6.210 10.608,6.023 10.334,5.967 10.334 C 5.912 10.334,6.007 10.608,6.180 10.942 M13.678 23.911 C 13.851 24.245,14.038 24.519,14.093 24.519 C 14.149 24.519,14.053 24.245,13.880 23.911 C 13.708 23.576,13.520 23.303,13.465 23.303 C 13.409 23.303,13.505 23.576,13.678 23.911 M15.907 27.761 C 16.080 28.095,16.267 28.369,16.322 28.369 C 16.378 28.369,16.282 28.095,16.109 27.761 C 15.937 27.427,15.749 27.153,15.694 27.153 C 15.638 27.153,15.734 27.427,15.907 27.761 M21.175 36.879 C 21.348 37.214,21.535 37.487,21.591 37.487 C 21.647 37.487,21.551 37.214,21.378 36.879 C 21.205 36.545,21.018 36.272,20.962 36.272 C 20.907 36.272,21.002 36.545,21.175 36.879 M23.404 40.729 C 23.577 41.064,23.764 41.337,23.820 41.337 C 23.876 41.337,23.780 41.064,23.607 40.729 C 23.434 40.395,23.247 40.122,23.191 40.122 C 23.135 40.122,23.231 40.395,23.404 40.729 M51.773 89.970 C 51.946 90.304,52.133 90.578,52.189 90.578 C 52.244 90.578,52.149 90.304,51.976 89.970 C 51.803 89.635,51.616 89.362,51.560 89.362 C 51.504 89.362,51.600 89.635,51.773 89.970 M54.002 93.820 C 54.175 94.154,54.362 94.428,54.418 94.428 C 54.473 94.428,54.378 94.154,54.205 93.820 C 54.032 93.485,53.845 93.212,53.789 93.212 C 53.733 93.212,53.829 93.485,54.002 93.820 M57.042 99.088 C 57.214 99.422,57.401 99.696,57.457 99.696 C 57.513 99.696,57.417 99.422,57.244 99.088 C 57.071 98.754,56.884 98.480,56.828 98.480 C 56.773 98.480,56.869 98.754,57.042 99.088 M60.081 104.357 C 60.254 104.691,60.441 104.965,60.497 104.965 C 60.552 104.965,60.457 104.691,60.284 104.357 C 60.111 104.022,59.924 103.749,59.868 103.749 C 59.812 103.749,59.908 104.022,60.081 104.357 M62.310 108.207 C 62.483 108.541,62.670 108.815,62.726 108.815 C 62.781 108.815,62.686 108.541,62.513 108.207 C 62.340 107.872,62.153 107.599,62.097 107.599 C 62.041 107.599,62.137 107.872,62.310 108.207 M65.350 113.475 C 65.522 113.810,65.709 114.083,65.765 114.083 C 65.821 114.083,65.725 113.810,65.552 113.475 C 65.379 113.141,65.192 112.867,65.137 112.867 C 65.081 112.867,65.177 113.141,65.350 113.475 M68.389 118.744 C 68.562 119.078,68.749 119.352,68.805 119.352 C 68.860 119.352,68.765 119.078,68.592 118.744 C 68.419 118.409,68.232 118.136,68.176 118.136 C 68.120 118.136,68.216 118.409,68.389 118.744 M70.618 122.594 C 70.791 122.928,70.978 123.202,71.034 123.202 C 71.089 123.202,70.994 122.928,70.821 122.594 C 70.648 122.259,70.461 121.986,70.405 121.986 C 70.349 121.986,70.445 122.259,70.618 122.594 M73.658 127.862 C 73.830 128.197,74.017 128.470,74.073 128.470 C 74.129 128.470,74.033 128.197,73.860 127.862 C 73.687 127.528,73.500 127.254,73.445 127.254 C 73.389 127.254,73.485 127.528,73.658 127.862 M162.478 129.838 C 183.133 129.866,216.872 129.866,237.453 129.838 C 258.034 129.809,241.135 129.786,199.899 129.786 C 158.663 129.786,141.824 129.809,162.478 129.838 M78.926 136.981 C 79.099 137.315,79.286 137.589,79.342 137.589 C 79.397 137.589,79.302 137.315,79.129 136.981 C 78.956 136.646,78.769 136.373,78.713 136.373 C 78.657 136.373,78.753 136.646,78.926 136.981 M81.966 142.249 C 82.138 142.584,82.326 142.857,82.381 142.857 C 82.437 142.857,82.341 142.584,82.168 142.249 C 81.995 141.915,81.808 141.641,81.753 141.641 C 81.697 141.641,81.793 141.915,81.966 142.249 M87.234 151.368 C 87.407 151.702,87.594 151.976,87.650 151.976 C 87.705 151.976,87.610 151.702,87.437 151.368 C 87.264 151.033,87.077 150.760,87.021 150.760 C 86.965 150.760,87.061 151.033,87.234 151.368 M90.274 156.636 C 90.446 156.971,90.634 157.244,90.689 157.244 C 90.745 157.244,90.649 156.971,90.476 156.636 C 90.303 156.302,90.116 156.028,90.061 156.028 C 90.005 156.028,90.101 156.302,90.274 156.636 M92.503 160.486 C 92.675 160.821,92.862 161.094,92.918 161.094 C 92.974 161.094,92.878 160.821,92.705 160.486 C 92.532 160.152,92.345 159.878,92.289 159.878 C 92.234 159.878,92.330 160.152,92.503 160.486 M95.542 165.755 C 95.715 166.089,95.902 166.363,95.958 166.363 C 96.013 166.363,95.918 166.089,95.745 165.755 C 95.572 165.420,95.385 165.147,95.329 165.147 C 95.273 165.147,95.369 165.420,95.542 165.755 M98.582 171.023 C 98.754 171.358,98.942 171.631,98.997 171.631 C 99.053 171.631,98.957 171.358,98.784 171.023 C 98.611 170.689,98.424 170.415,98.369 170.415 C 98.313 170.415,98.409 170.689,98.582 171.023 M100.811 174.873 C 100.983 175.208,101.170 175.481,101.226 175.481 C 101.282 175.481,101.186 175.208,101.013 174.873 C 100.840 174.539,100.653 174.265,100.597 174.265 C 100.542 174.265,100.638 174.539,100.811 174.873 M103.850 180.142 C 104.023 180.476,104.210 180.750,104.266 180.750 C 104.321 180.750,104.226 180.476,104.053 180.142 C 103.880 179.807,103.693 179.534,103.637 179.534 C 103.581 179.534,103.677 179.807,103.850 180.142 M106.890 185.410 C 107.062 185.745,107.250 186.018,107.305 186.018 C 107.361 186.018,107.265 185.745,107.092 185.410 C 106.919 185.076,106.732 184.802,106.677 184.802 C 106.621 184.802,106.717 185.076,106.890 185.410 M109.119 189.260 C 109.291 189.595,109.478 189.868,109.534 189.868 C 109.590 189.868,109.494 189.595,109.321 189.260 C 109.148 188.926,108.961 188.652,108.905 188.652 C 108.850 188.652,108.946 188.926,109.119 189.260 M112.158 194.529 C 112.331 194.863,112.518 195.137,112.574 195.137 C 112.629 195.137,112.534 194.863,112.361 194.529 C 112.188 194.195,112.001 193.921,111.945 193.921 C 111.889 193.921,111.985 194.195,112.158 194.529 M117.427 203.647 C 117.599 203.982,117.786 204.255,117.842 204.255 C 117.898 204.255,117.802 203.982,117.629 203.647 C 117.456 203.313,117.269 203.040,117.214 203.040 C 117.158 203.040,117.254 203.313,117.427 203.647 M120.466 208.916 C 120.639 209.250,120.826 209.524,120.882 209.524 C 120.937 209.524,120.842 209.250,120.669 208.916 C 120.496 208.582,120.309 208.308,120.253 208.308 C 120.197 208.308,120.293 208.582,120.466 208.916 M125.735 218.034 C 125.907 218.369,126.095 218.642,126.150 218.642 C 126.206 218.642,126.110 218.369,125.937 218.034 C 125.764 217.700,125.577 217.427,125.522 217.427 C 125.466 217.427,125.562 217.700,125.735 218.034 M128.774 223.303 C 128.947 223.637,129.134 223.911,129.190 223.911 C 129.245 223.911,129.150 223.637,128.977 223.303 C 128.804 222.969,128.617 222.695,128.561 222.695 C 128.505 222.695,128.601 222.969,128.774 223.303 M131.003 227.153 C 131.176 227.487,131.363 227.761,131.419 227.761 C 131.474 227.761,131.379 227.487,131.206 227.153 C 131.033 226.819,130.846 226.545,130.790 226.545 C 130.734 226.545,130.830 226.819,131.003 227.153 M134.043 232.421 C 134.215 232.756,134.403 233.029,134.458 233.029 C 134.514 233.029,134.418 232.756,134.245 232.421 C 134.072 232.087,133.885 231.814,133.830 231.814 C 133.774 231.814,133.870 232.087,134.043 232.421 M137.082 237.690 C 137.255 238.024,137.442 238.298,137.498 238.298 C 137.553 238.298,137.458 238.024,137.285 237.690 C 137.112 237.356,136.925 237.082,136.869 237.082 C 136.813 237.082,136.909 237.356,137.082 237.690 M139.311 241.540 C 139.484 241.874,139.671 242.148,139.727 242.148 C 139.782 242.148,139.687 241.874,139.514 241.540 C 139.341 241.206,139.154 240.932,139.098 240.932 C 139.042 240.932,139.138 241.206,139.311 241.540 M142.351 246.809 C 142.523 247.143,142.711 247.416,142.766 247.416 C 142.822 247.416,142.726 247.143,142.553 246.809 C 142.380 246.474,142.193 246.201,142.138 246.201 C 142.082 246.201,142.178 246.474,142.351 246.809 M145.390 252.077 C 145.563 252.411,145.750 252.685,145.806 252.685 C 145.861 252.685,145.766 252.411,145.593 252.077 C 145.420 251.743,145.233 251.469,145.177 251.469 C 145.121 251.469,145.217 251.743,145.390 252.077 M147.619 255.927 C 147.792 256.261,147.979 256.535,148.035 256.535 C 148.090 256.535,147.995 256.261,147.822 255.927 C 147.649 255.593,147.462 255.319,147.406 255.319 C 147.350 255.319,147.446 255.593,147.619 255.927 M150.659 261.196 C 150.831 261.530,151.019 261.803,151.074 261.803 C 151.130 261.803,151.034 261.530,150.861 261.196 C 150.688 260.861,150.501 260.588,150.446 260.588 C 150.390 260.588,150.486 260.861,150.659 261.196 M155.927 270.314 C 156.100 270.648,156.287 270.922,156.343 270.922 C 156.398 270.922,156.303 270.648,156.130 270.314 C 155.957 269.980,155.770 269.706,155.714 269.706 C 155.658 269.706,155.754 269.980,155.927 270.314 M158.967 275.583 C 159.139 275.917,159.327 276.190,159.382 276.190 C 159.438 276.190,159.342 275.917,159.169 275.583 C 158.996 275.248,158.809 274.975,158.754 274.975 C 158.698 274.975,158.794 275.248,158.967 275.583 M164.235 284.701 C 164.408 285.035,164.595 285.309,164.651 285.309 C 164.706 285.309,164.611 285.035,164.438 284.701 C 164.265 284.367,164.078 284.093,164.022 284.093 C 163.966 284.093,164.062 284.367,164.235 284.701 M167.275 289.970 C 167.447 290.304,167.635 290.578,167.690 290.578 C 167.746 290.578,167.650 290.304,167.477 289.970 C 167.304 289.635,167.117 289.362,167.062 289.362 C 167.006 289.362,167.102 289.635,167.275 289.970 M169.504 293.820 C 169.676 294.154,169.863 294.428,169.919 294.428 C 169.975 294.428,169.879 294.154,169.706 293.820 C 169.533 293.485,169.346 293.212,169.291 293.212 C 169.235 293.212,169.331 293.485,169.504 293.820 M172.543 299.088 C 172.716 299.422,172.903 299.696,172.959 299.696 C 173.014 299.696,172.919 299.422,172.746 299.088 C 172.573 298.754,172.386 298.480,172.330 298.480 C 172.274 298.480,172.370 298.754,172.543 299.088 M175.583 304.357 C 175.755 304.691,175.943 304.965,175.998 304.965 C 176.054 304.965,175.958 304.691,175.785 304.357 C 175.612 304.022,175.425 303.749,175.370 303.749 C 175.314 303.749,175.410 304.022,175.583 304.357 M177.812 308.207 C 177.984 308.541,178.172 308.815,178.227 308.815 C 178.283 308.815,178.187 308.541,178.014 308.207 C 177.841 307.872,177.654 307.599,177.599 307.599 C 177.543 307.599,177.639 307.872,177.812 308.207 M180.851 313.475 C 181.024 313.810,181.211 314.083,181.267 314.083 C 181.322 314.083,181.227 313.810,181.054 313.475 C 180.881 313.141,180.694 312.867,180.638 312.867 C 180.582 312.867,180.678 313.141,180.851 313.475 M183.891 318.744 C 184.063 319.078,184.251 319.352,184.306 319.352 C 184.362 319.352,184.266 319.078,184.093 318.744 C 183.920 318.409,183.733 318.136,183.678 318.136 C 183.622 318.136,183.718 318.409,183.891 318.744 M186.120 322.594 C 186.292 322.928,186.480 323.202,186.535 323.202 C 186.591 323.202,186.495 322.928,186.322 322.594 C 186.149 322.259,185.962 321.986,185.907 321.986 C 185.851 321.986,185.947 322.259,186.120 322.594 M189.159 327.862 C 189.332 328.197,189.519 328.470,189.575 328.470 C 189.630 328.470,189.535 328.197,189.362 327.862 C 189.189 327.528,189.002 327.254,188.946 327.254 C 188.890 327.254,188.986 327.528,189.159 327.862 M194.428 336.981 C 194.600 337.315,194.788 337.589,194.843 337.589 C 194.899 337.589,194.803 337.315,194.630 336.981 C 194.457 336.646,194.270 336.373,194.215 336.373 C 194.159 336.373,194.255 336.646,194.428 336.981 M197.467 342.249 C 197.640 342.584,197.827 342.857,197.883 342.857 C 197.938 342.857,197.843 342.584,197.670 342.249 C 197.497 341.915,197.310 341.641,197.254 341.641 C 197.198 341.641,197.294 341.915,197.467 342.249 " stroke="none" fill="#0434bc" fill-rule="evenodd"></path><path id="path3" d="" stroke="none" fill="#0834c4" fill-rule="evenodd"></path><path id="path4" d="" stroke="none" fill="#0834c4" fill-rule="evenodd"></path></g></svg>