<?xml version="1.0" standalone="yes"?>
<svg xmlns="http://www.w3.org/2000/svg" width="931" height="794">
<path style="fill:#ffffff; stroke:none;" d="M0 0L0 450L1 450C8.46586 433.028 34.7277 434.39 35.5255 455C36.3459 476.196 9.20461 476.814 1 461L0 461L0 794L266 794L266 793C248.087 786.91 250 759.28 270 758.475C290.637 757.644 294.241 785.932 276 793L276 794L330 794L330 793C315.259 787.289 311.662 768.157 327 760.303C333.038 757.211 340.454 758 347 758L385 758L554 758C581.131 758 611.179 754.338 638 758.301C657.821 761.23 660.146 786.886 641 793L641 794L931 794L931 621L930 621C923.688 634.228 911.822 634 899 634L828 634L515 634C484.596 634 453.314 636.145 423 633.91C412.77 633.155 403.172 624.905 404.109 614C405.322 599.882 418.807 598 430 598L516 598L831 598L903 598C914.467 598 925.751 598.197 930 611L931 611L931 0L571 0L571 1C681.294 1 784.283 83.6779 824.396 183C835.697 210.982 840.526 239.322 844.424 269C845.715 278.823 848.02 295.729 838.957 302.347C828.835 309.739 808.866 306 797 306L692 306L418 306C372.695 306 326.181 309.08 281 305.91C259.251 304.385 263.351 283.577 264.039 268C265.658 231.367 277.677 193.584 293.969 161C338.056 72.8257 435.722 1 537 1C524.831 -4.10663 503.253 0 490 0L380 0L0 0z"/>
<path style="fill:#53cbc9; stroke:none;" d="M537 0.424377C510.748 3.87128 485.287 6.5965 460 15.3441C378.842 43.4196 309.459 108.172 281 190C271.779 216.512 265.203 243.886 263.961 272C263.519 281.992 259.738 295.32 269.044 302.567C278.23 309.721 298.007 306 309 306L411 306L695 306L786 306C800.788 306 817.455 308.131 832 305.381C850.439 301.895 845.102 278.826 844.089 265C841.105 224.292 828.084 184.772 808.691 149C766.652 71.4542 686.725 17.0259 600 3.57562C579.801 0.442871 557.412 -2.25574 537 0.424377z"/>
<path style="fill:#f3a2cb; stroke:none;" d="M150.667 357.333L151.333 357.667L150.667 357.333z"/>
<path style="fill:#ea5ea4; stroke:none;" d="M152 357L152 358L157 358L152 357z"/>
<path style="fill:#f3a2cb; stroke:none;" d="M157.667 357.333L158.333 357.667L157.667 357.333M214.667 357.333L215.333 357.667L214.667 357.333z"/>
<path style="fill:#ea5ea4; stroke:none;" d="M216 357L216 358L893 358L874 357L834 357L696 357L216 357z"/>
<path style="fill:#f3a2cb; stroke:none;" d="M893.667 357.333L894.333 357.667L893.667 357.333M147 358L148 359L147 358z"/>
<path style="fill:#ea5ea4; stroke:none;" d="M148 358L149 359L148 358z"/>
<path style="fill:#e1157b; stroke:none;" d="M149 358.653C127.504 365.393 138.707 397.526 160 391.362C181.615 385.105 170.503 351.911 149 358.653z"/>
<path style="fill:#ea5ea4; stroke:none;" d="M160 358L161 359L160 358z"/>
<path style="fill:#f3a2cb; stroke:none;" d="M161 358L162 359L161 358M211 358L212 359L211 358z"/>
<path style="fill:#e1157b; stroke:none;" d="M212 358.653C196.983 363.363 197.411 388.024 213 391.606C223.401 393.995 236.338 392 247 392L317 392L734 392L857 392C869.083 392 893.222 396.638 902.532 387.61C912.969 377.488 906.709 358.892 892 358.043C845.345 355.352 797.742 358 751 358L377 358L263 358C247.826 358 226.476 354.112 212 358.653z"/>
<path style="fill:#ea5ea4; stroke:none;" d="M896 358L897 359L896 358z"/>
<path style="fill:#f3a2cb; stroke:none;" d="M897 358L898 359L897 358z"/>
<path style="fill:#ea5ea4; stroke:none;" d="M146 359L147 360L146 359M162 359L163 360L162 359z"/>
<path style="fill:#f3a2cb; stroke:none;" d="M163 359L164 360L163 359z"/>
<path style="fill:#ea5ea4; stroke:none;" d="M209 359L210 360L209 359M898 359L899 360L898 359z"/>
<path style="fill:#f3a2cb; stroke:none;" d="M899 359L900 360L899 359M144 360L145 361L144 360z"/>
<path style="fill:#ea5ea4; stroke:none;" d="M164 360L165 361L164 360z"/>
<path style="fill:#f3a2cb; stroke:none;" d="M207 360L208 361L207 360z"/>
<path style="fill:#ea5ea4; stroke:none;" d="M900 360L901 361L900 360M143 361L144 362L143 361z"/>
<path style="fill:#f3a2cb; stroke:none;" d="M206 361L207 362L206 361z"/>
<path style="fill:#ea5ea4; stroke:none;" d="M901 361L902 362L901 361M142 362L143 363L142 362z"/>
<path style="fill:#f3a2cb; stroke:none;" d="M205 362L206 363L205 362z"/>
<path style="fill:#ea5ea4; stroke:none;" d="M141 363L142 364L141 363z"/>
<path style="fill:#f3a2cb; stroke:none;" d="M204 363L205 364L204 363z"/>
<path style="fill:#ea5ea4; stroke:none;" d="M140 364L141 365L140 364M168 364L169 365L168 364z"/>
<path style="fill:#f3a2cb; stroke:none;" d="M203 364L204 365L203 364z"/>
<path style="fill:#ea5ea4; stroke:none;" d="M904 364L905 365L904 364z"/>
<path style="fill:#f3a2cb; stroke:none;" d="M139 365L140 366L139 365M169 365L170 366L169 365M905 365L906 366L905 365M202 366L203 367L202 366M138 367L139 368L138 367z"/>
<path style="fill:#ea5ea4; stroke:none;" d="M170 367L171 368L170 367z"/>
<path style="fill:#f3a2cb; stroke:none;" d="M906 367L907 368L906 367M201 368L202 369L201 368M137.333 369.667L137.667 370.333L137.333 369.667M171 369L172 370L171 369z"/>
<path style="fill:#ea5ea4; stroke:none;" d="M201 369L202 370L201 369z"/>
<path style="fill:#f3a2cb; stroke:none;" d="M907.333 369.667L907.667 370.333L907.333 369.667z"/>
<path style="fill:#ea5ea4; stroke:none;" d="M171 370L172 371L171 370M137 371L138 372L137 371z"/>
<path style="fill:#f3a2cb; stroke:none;" d="M200 371L200 374L201 374L200 371z"/>
<path style="fill:#ea5ea4; stroke:none;" d="M907 371L908 372L907 371z"/>
<path style="fill:#f3a2cb; stroke:none;" d="M172 373L172 377L173 377L172 373z"/>
<path style="fill:#ea5ea4; stroke:none;" d="M200.333 374.667L200.667 375.333L200.333 374.667z"/>
<path style="fill:#f3a2cb; stroke:none;" d="M200 376L200 379L201 379L200 376z"/>
<path style="fill:#ea5ea4; stroke:none;" d="M137 378L138 379L137 378M907 378L908 379L907 378z"/>
<path style="fill:#f3a2cb; stroke:none;" d="M137.333 379.667L137.667 380.333L137.333 379.667z"/>
<path style="fill:#ea5ea4; stroke:none;" d="M171 379L172 380L171 379z"/>
<path style="fill:#f3a2cb; stroke:none;" d="M907.333 379.667L907.667 380.333L907.333 379.667M171 380L172 381L171 380z"/>
<path style="fill:#ea5ea4; stroke:none;" d="M201 380L202 381L201 380z"/>
<path style="fill:#f3a2cb; stroke:none;" d="M201 381L202 382L201 381M138 382L139 383L138 382z"/>
<path style="fill:#ea5ea4; stroke:none;" d="M170 382L171 383L170 382z"/>
<path style="fill:#f3a2cb; stroke:none;" d="M906 382L907 383L906 382M202 383L203 384L202 383M139 384L140 385L139 384M169 384L170 385L169 384M905 384L906 385L905 384z"/>
<path style="fill:#ea5ea4; stroke:none;" d="M140 385L141 386L140 385M168 385L169 386L168 385z"/>
<path style="fill:#f3a2cb; stroke:none;" d="M203 385L204 386L203 385z"/>
<path style="fill:#ea5ea4; stroke:none;" d="M904 385L905 386L904 385M141 386L142 387L141 386z"/>
<path style="fill:#f3a2cb; stroke:none;" d="M204 386L205 387L204 386z"/>
<path style="fill:#ea5ea4; stroke:none;" d="M903 386L904 387L903 386z"/>
<path style="fill:#f3a2cb; stroke:none;" d="M205 387L206 388L205 387z"/>
<path style="fill:#ea5ea4; stroke:none;" d="M143 388L144 389L143 388z"/>
<path style="fill:#f3a2cb; stroke:none;" d="M206 388L207 389L206 388z"/>
<path style="fill:#ea5ea4; stroke:none;" d="M144 389L145 390L144 389M164 389L165 390L164 389z"/>
<path style="fill:#f3a2cb; stroke:none;" d="M207 389L208 390L207 389z"/>
<path style="fill:#ea5ea4; stroke:none;" d="M900 389L901 390L900 389M146 390L147 391L146 390M162 390L163 391L162 390z"/>
<path style="fill:#f3a2cb; stroke:none;" d="M163 390L164 391L163 390z"/>
<path style="fill:#ea5ea4; stroke:none;" d="M209 390L210 391L209 390M898 390L899 391L898 390z"/>
<path style="fill:#f3a2cb; stroke:none;" d="M899 390L900 391L899 390M147 391L148 392L147 391z"/>
<path style="fill:#ea5ea4; stroke:none;" d="M148 391L149 392L148 391M160 391L161 392L160 391z"/>
<path style="fill:#f3a2cb; stroke:none;" d="M161 391L162 392L161 391M211 391L212 392L211 391z"/>
<path style="fill:#ea5ea4; stroke:none;" d="M896 391L897 392L896 391z"/>
<path style="fill:#f3a2cb; stroke:none;" d="M897 391L898 392L897 391M150.667 392.333L151.333 392.667L150.667 392.333z"/>
<path style="fill:#ea5ea4; stroke:none;" d="M152 392L152 393L157 393L152 392z"/>
<path style="fill:#f3a2cb; stroke:none;" d="M157.667 392.333L158.333 392.667L157.667 392.333M214.667 392.333L215.333 392.667L214.667 392.333z"/>
<path style="fill:#ea5ea4; stroke:none;" d="M216 392L216 393L893 393L874 392L834 392L696 392L216 392z"/>
<path style="fill:#f3a2cb; stroke:none;" d="M893.667 392.333L894.333 392.667L893.667 392.333M15 437L15 438L20 438L15 437M78 437L78 438L576 438C564.544 433.193 544.468 437 532 437L431 437L78 437M11 438L12 439L11 438z"/>
<path style="fill:#ea5ea4; stroke:none;" d="M12 438L13 439L12 438z"/>
<path style="fill:#e1157b; stroke:none;" d="M13 438.558C-8.55222 444.204 0.545116 477.727 22 472.068C43.9533 466.277 34.901 432.82 13 438.558z"/>
<path style="fill:#ea5ea4; stroke:none;" d="M22 438L23 439L22 438z"/>
<path style="fill:#f3a2cb; stroke:none;" d="M23 438L24 439L23 438M75 438L76 439L75 438z"/>
<path style="fill:#ea5ea4; stroke:none;" d="M76 438L77 439L76 438z"/>
<path style="fill:#e1157b; stroke:none;" d="M77 438.529C59.7443 442.518 60.1444 467.693 77 471.956C89.694 475.166 104.965 473 118 473L199 473L460 473L551 473C561.934 473 577.522 475.85 585.775 466.895C594.708 457.203 589.113 440.218 576 438.213C565.446 436.599 553.675 438 543 438L476 438L204 438L119 438C105.814 438 89.8589 435.557 77 438.529z"/>
<path style="fill:#ea5ea4; stroke:none;" d="M578 438L579 439L578 438z"/>
<path style="fill:#f3a2cb; stroke:none;" d="M579 438L580 439L579 438M9 439L10 440L9 439z"/>
<path style="fill:#ea5ea4; stroke:none;" d="M25 439L26 440L25 439z"/>
<path style="fill:#f3a2cb; stroke:none;" d="M72 439L73 440L72 439z"/>
<path style="fill:#ea5ea4; stroke:none;" d="M73 439L74 440L73 439M580 439L581 440L580 439z"/>
<path style="fill:#f3a2cb; stroke:none;" d="M581 439L582 440L581 439M7 440L8 441L7 440z"/>
<path style="fill:#ea5ea4; stroke:none;" d="M8 440L9 441L8 440z"/>
<path style="fill:#f3a2cb; stroke:none;" d="M27 440L28 441L27 440z"/>
<path style="fill:#ea5ea4; stroke:none;" d="M71 440L72 441L71 440M582 440L583 441L582 440z"/>
<path style="fill:#f3a2cb; stroke:none;" d="M6 441L7 442L6 441z"/>
<path style="fill:#ea5ea4; stroke:none;" d="M28 441L29 442L28 441z"/>
<path style="fill:#f3a2cb; stroke:none;" d="M584 441L585 442L584 441M5 442L6 443L5 442M68 442L69 443L68 442M585 442L586 443L585 442M4 443L5 444L4 443M586 443L587 444L586 443M3 444L4 445L3 444z"/>
<path style="fill:#ea5ea4; stroke:none;" d="M31 444L32 445L31 444z"/>
<path style="fill:#f3a2cb; stroke:none;" d="M32 445L33 446L32 445z"/>
<path style="fill:#ea5ea4; stroke:none;" d="M66 445L67 446L66 445M587 445L588 446L587 445M2 446L3 447L2 446z"/>
<path style="fill:#f3a2cb; stroke:none;" d="M65 446L66 447L65 446M588 446L589 447L588 446z"/>
<path style="fill:#ea5ea4; stroke:none;" d="M33 447L34 448L33 447M65 447L66 448L65 447M1 448L2 449L1 448z"/>
<path style="fill:#f3a2cb; stroke:none;" d="M589 448L590 449L589 448M34 449L35 450L34 449z"/>
<path style="fill:#ea5ea4; stroke:none;" d="M64 449L65 450L64 449M589 449L590 450L589 449z"/>
<path style="fill:#f3a2cb; stroke:none;" d="M0 450L1 451L0 450z"/>
<path style="fill:#ea5ea4; stroke:none;" d="M34 450L35 451L34 450M0.333333 451.667L0.666667 452.333L0.333333 451.667z"/>
<path style="fill:#f3a2cb; stroke:none;" d="M590.333 451.667L590.667 452.333L590.333 451.667M63 452L63 458L64 458L63 452M35 453L35 458L36 458L35 453z"/>
<path style="fill:#ea5ea4; stroke:none;" d="M590 453L590 456L591 456L590 453z"/>
<path style="fill:#f3a2cb; stroke:none;" d="M590 456L590 459L591 459L590 456z"/>
<path style="fill:#ea5ea4; stroke:none;" d="M0 458L1 459L0 458z"/>
<path style="fill:#f3a2cb; stroke:none;" d="M0.333333 459.667L0.666667 460.333L0.333333 459.667z"/>
<path style="fill:#ea5ea4; stroke:none;" d="M34 460L35 461L34 460z"/>
<path style="fill:#f3a2cb; stroke:none;" d="M64 460L65 461L64 460z"/>
<path style="fill:#ea5ea4; stroke:none;" d="M589 460L590 461L589 460z"/>
<path style="fill:#f3a2cb; stroke:none;" d="M34 461L35 462L34 461M589 461L590 462L589 461M1 462L2 463L1 462z"/>
<path style="fill:#ea5ea4; stroke:none;" d="M65 462L66 463L65 462z"/>
<path style="fill:#f3a2cb; stroke:none;" d="M33 463L34 464L33 463M65 463L66 464L65 463M588 463L589 464L588 463M2 464L3 465L2 464z"/>
<path style="fill:#ea5ea4; stroke:none;" d="M32 464L33 465L32 464M66 464L67 465L66 464M3 465L4 466L3 465z"/>
<path style="fill:#f3a2cb; stroke:none;" d="M587 465L588 466L587 465M31 466L32 467L31 466M67 466L68 467L67 466M586 466L587 467L586 466M30 467L31 468L30 467M68 467L69 468L68 467z"/>
<path style="fill:#ea5ea4; stroke:none;" d="M585 467L586 468L585 467z"/>
<path style="fill:#f3a2cb; stroke:none;" d="M29 468L30 469L29 468M69 468L70 469L69 468z"/>
<path style="fill:#ea5ea4; stroke:none;" d="M584 468L585 469L584 468M7 469L8 470L7 469z"/>
<path style="fill:#f3a2cb; stroke:none;" d="M28 469L29 470L28 469M70 469L71 470L70 469M583 469L584 470L583 469M8 470L9 471L8 470z"/>
<path style="fill:#ea5ea4; stroke:none;" d="M26 470L27 471L26 470M72 470L73 471L72 470M581 470L582 471L581 470z"/>
<path style="fill:#f3a2cb; stroke:none;" d="M10 471L11 472L10 471z"/>
<path style="fill:#ea5ea4; stroke:none;" d="M11 471L12 472L11 471M24 471L25 472L24 471M74 471L75 472L74 471M579 471L580 472L579 471z"/>
<path style="fill:#f3a2cb; stroke:none;" d="M580 471L581 472L580 471M13 472L14 473L13 472z"/>
<path style="fill:#ea5ea4; stroke:none;" d="M14.6667 472.333L15.3333 472.667L14.6667 472.333M20.6667 472.333L21.3333 472.667L20.6667 472.333z"/>
<path style="fill:#f3a2cb; stroke:none;" d="M22 472L23 473L22 472M76.6667 472.333L77.3333 472.667L76.6667 472.333z"/>
<path style="fill:#ea5ea4; stroke:none;" d="M78.6667 472.333L79.3333 472.667L78.6667 472.333M575.667 472.333L576.333 472.667L575.667 472.333z"/>
<path style="fill:#f3a2cb; stroke:none;" d="M577 472L578 473L577 472M149 518L150 519L149 518z"/>
<path style="fill:#ea5ea4; stroke:none;" d="M150 518L151 519L150 518z"/>
<path style="fill:#e1157b; stroke:none;" d="M151 518.53C129.091 523.488 136.264 557.388 158 552.47C180.006 547.491 172.703 513.619 151 518.53z"/>
<path style="fill:#ea5ea4; stroke:none;" d="M158 518L159 519L158 518z"/>
<path style="fill:#f3a2cb; stroke:none;" d="M159 518L160 519L159 518M212 518L213 519L212 518z"/>
<path style="fill:#ea5ea4; stroke:none;" d="M213.667 518.333L214.333 518.667L213.667 518.333z"/>
<path style="fill:#e1157b; stroke:none;" d="M215 518.468C197.957 521.745 195.889 546.92 213 552.057C226.529 556.119 244.923 553 259 553L356 553L674 553L784 553C795.836 553 815.968 556.973 824.606 546.895C834.229 535.667 826.033 519.245 812 518.093C771.593 514.778 729.557 518 689 518L368 518L266 518C249.742 518 230.968 515.398 215 518.468z"/>
<path style="fill:#ea5ea4; stroke:none;" d="M815 518L816 519L815 518z"/>
<path style="fill:#f3a2cb; stroke:none;" d="M816 518L817 519L816 518M146 519L147 520L146 519z"/>
<path style="fill:#ea5ea4; stroke:none;" d="M147 519L148 520L147 519M161 519L162 520L161 519z"/>
<path style="fill:#f3a2cb; stroke:none;" d="M162 519L163 520L162 519z"/>
<path style="fill:#ea5ea4; stroke:none;" d="M210 519L211 520L210 519M818 519L819 520L818 519z"/>
<path style="fill:#f3a2cb; stroke:none;" d="M819 519L820 520L819 519z"/>
<path style="fill:#ea5ea4; stroke:none;" d="M145 520L146 521L145 520M163 520L164 521L163 520z"/>
<path style="fill:#f3a2cb; stroke:none;" d="M208 520L209 521L208 520z"/>
<path style="fill:#ea5ea4; stroke:none;" d="M820 520L821 521L820 520z"/>
<path style="fill:#f3a2cb; stroke:none;" d="M143 521L144 522L143 521M165 521L166 522L165 521z"/>
<path style="fill:#ea5ea4; stroke:none;" d="M207 521L208 522L207 521z"/>
<path style="fill:#f3a2cb; stroke:none;" d="M822 521L823 522L822 521M142 522L143 523L142 522z"/>
<path style="fill:#ea5ea4; stroke:none;" d="M166 522L167 523L166 522M823 522L824 523L823 522z"/>
<path style="fill:#f3a2cb; stroke:none;" d="M141 523L142 524L141 523z"/>
<path style="fill:#ea5ea4; stroke:none;" d="M167 523L168 524L167 523M824 523L825 524L824 523z"/>
<path style="fill:#f3a2cb; stroke:none;" d="M140 524L141 525L140 524M168 524L169 525L168 524z"/>
<path style="fill:#ea5ea4; stroke:none;" d="M204 524L205 525L204 524z"/>
<path style="fill:#f3a2cb; stroke:none;" d="M825 524L826 525L825 524z"/>
<path style="fill:#ea5ea4; stroke:none;" d="M203 525L204 526L203 525M139 526L140 527L139 526M169 526L170 527L169 526z"/>
<path style="fill:#f3a2cb; stroke:none;" d="M202 526L203 527L202 526z"/>
<path style="fill:#ea5ea4; stroke:none;" d="M826 526L827 527L826 526z"/>
<path style="fill:#f3a2cb; stroke:none;" d="M138 527L139 528L138 527M170 527L171 528L170 527z"/>
<path style="fill:#ea5ea4; stroke:none;" d="M202 527L203 528L202 527z"/>
<path style="fill:#f3a2cb; stroke:none;" d="M827 527L828 528L827 527z"/>
<path style="fill:#ea5ea4; stroke:none;" d="M138 528L139 529L138 528M170 528L171 529L170 528M827 528L828 529L827 528z"/>
<path style="fill:#f3a2cb; stroke:none;" d="M171 529L172 530L171 529z"/>
<path style="fill:#ea5ea4; stroke:none;" d="M201 529L202 530L201 529z"/>
<path style="fill:#f3a2cb; stroke:none;" d="M137 530L138 531L137 530z"/>
<path style="fill:#ea5ea4; stroke:none;" d="M171.333 530.667L171.667 531.333L171.333 530.667z"/>
<path style="fill:#f3a2cb; stroke:none;" d="M828 530L829 531L828 530z"/>
<path style="fill:#ea5ea4; stroke:none;" d="M137 531L138 532L137 531M828 531L829 532L828 531z"/>
<path style="fill:#f3a2cb; stroke:none;" d="M200.333 532.667L200.667 533.333L200.333 532.667M172 534L172 537L173 537L172 534z"/>
<path style="fill:#ea5ea4; stroke:none;" d="M200.333 534.667L200.667 535.333L200.333 534.667z"/>
<path style="fill:#f3a2cb; stroke:none;" d="M200 536L200 539L201 539L200 536z"/>
<path style="fill:#ea5ea4; stroke:none;" d="M828.333 538.667L828.667 539.333L828.333 538.667M137 539L138 540L137 539M171.333 539.667L171.667 540.333L171.333 539.667z"/>
<path style="fill:#f3a2cb; stroke:none;" d="M137 540L138 541L137 540z"/>
<path style="fill:#ea5ea4; stroke:none;" d="M201 540L202 541L201 540z"/>
<path style="fill:#f3a2cb; stroke:none;" d="M828 540L829 541L828 540M171 541L172 542L171 541M201 541L202 542L201 541z"/>
<path style="fill:#ea5ea4; stroke:none;" d="M138 542L139 543L138 542z"/>
<path style="fill:#f3a2cb; stroke:none;" d="M827 542L828 543L827 542M138 543L139 544L138 543M170 543L171 544L170 543M202 543L203 544L202 543z"/>
<path style="fill:#ea5ea4; stroke:none;" d="M139 544L140 545L139 544M169 544L170 545L169 544z"/>
<path style="fill:#f3a2cb; stroke:none;" d="M826 544L827 545L826 544M169 545L170 546L169 545M203 545L204 546L203 545M140 546L141 547L140 546M168 546L169 547L168 546z"/>
<path style="fill:#ea5ea4; stroke:none;" d="M204 546L205 547L204 546z"/>
<path style="fill:#f3a2cb; stroke:none;" d="M825 546L826 547L825 546M141 547L142 548L141 547z"/>
<path style="fill:#ea5ea4; stroke:none;" d="M167 547L168 548L167 547M205 547L206 548L205 547z"/>
<path style="fill:#f3a2cb; stroke:none;" d="M824 547L825 548L824 547M142 548L143 549L142 548z"/>
<path style="fill:#ea5ea4; stroke:none;" d="M166 548L167 549L166 548M206 548L207 549L206 548z"/>
<path style="fill:#f3a2cb; stroke:none;" d="M823 548L824 549L823 548M143 549L144 550L143 549M165 549L166 550L165 549z"/>
<path style="fill:#ea5ea4; stroke:none;" d="M207 549L208 550L207 549z"/>
<path style="fill:#f3a2cb; stroke:none;" d="M822 549L823 550L822 549z"/>
<path style="fill:#ea5ea4; stroke:none;" d="M145 550L146 551L145 550M163 550L164 551L163 550z"/>
<path style="fill:#f3a2cb; stroke:none;" d="M208 550L209 551L208 550z"/>
<path style="fill:#ea5ea4; stroke:none;" d="M820 550L821 551L820 550z"/>
<path style="fill:#f3a2cb; stroke:none;" d="M146 551L147 552L146 551z"/>
<path style="fill:#ea5ea4; stroke:none;" d="M147 551L148 552L147 551M161 551L162 552L161 551z"/>
<path style="fill:#f3a2cb; stroke:none;" d="M162 551L163 552L162 551M210 551L211 552L210 551z"/>
<path style="fill:#ea5ea4; stroke:none;" d="M818 551L819 552L818 551z"/>
<path style="fill:#f3a2cb; stroke:none;" d="M819 551L820 552L819 551M149 552L150 553L149 552z"/>
<path style="fill:#ea5ea4; stroke:none;" d="M150 552L151 553L150 552M158 552L159 553L158 552z"/>
<path style="fill:#f3a2cb; stroke:none;" d="M159 552L160 553L159 552M212 552L213 553L212 552z"/>
<path style="fill:#ea5ea4; stroke:none;" d="M213.667 552.333L214.333 552.667L213.667 552.333M815 552L816 553L815 552z"/>
<path style="fill:#f3a2cb; stroke:none;" d="M816 552L817 553L816 552M154 553L155 554L154 553M218 553L218 554L812 554L795 553L760 553L639 553L218 553M48 598L49 599L48 598z"/>
<path style="fill:#ea5ea4; stroke:none;" d="M49.6667 598.333L50.3333 598.667L49.6667 598.333z"/>
<path style="fill:#e1157b; stroke:none;" d="M51 598.554C28.4584 601.073 32.3838 635.557 55 632.814C76.8592 630.163 72.9482 596.101 51 598.554z"/>
<path style="fill:#ea5ea4; stroke:none;" d="M54.6667 598.333L55.3333 598.667L54.6667 598.333z"/>
<path style="fill:#f3a2cb; stroke:none;" d="M56.6667 598.333L57.3333 598.667L56.6667 598.333M111 598L112 599L111 598z"/>
<path style="fill:#ea5ea4; stroke:none;" d="M112 598L112 599L115 599L112 598z"/>
<path style="fill:#e1157b; stroke:none;" d="M115 598.44C97.5306 601.254 92.6929 624.161 110 631.633C115.686 634.087 122.941 633 129 633L167 633L300 633L340 633C347.286 633 354.76 633.929 360.985 629.362C370.885 622.098 370.15 606.191 358.999 600.453C349.74 595.688 336.077 598 326 598L185 598C162.444 598 137.261 594.854 115 598.44z"/>
<path style="fill:#ea5ea4; stroke:none;" d="M352 598L352 599L355 599L352 598z"/>
<path style="fill:#f3a2cb; stroke:none;" d="M355 598L356 599L355 598M416.667 598.333L417.333 598.667L416.667 598.333z"/>
<path style="fill:#ea5ea4; stroke:none;" d="M418.667 598.333L419.333 598.667L418.667 598.333z"/>
<path style="fill:#e1157b; stroke:none;" d="M420 598.44C401.988 601.341 398.222 626.934 417 632.362C428.178 635.593 443.387 633 455 633L536 633L801 633L892 633C902.774 633 918.664 636.171 926.467 626.895C936.153 615.38 927.682 600.094 914 598.289C882.452 594.129 847.842 598 816 598L550 598L464 598C449.749 598 434.076 596.172 420 598.44z"/>
<path style="fill:#ea5ea4; stroke:none;" d="M915.667 598.333L916.333 598.667L915.667 598.333z"/>
<path style="fill:#f3a2cb; stroke:none;" d="M917 598L918 599L917 598M45 599L46 600L45 599z"/>
<path style="fill:#ea5ea4; stroke:none;" d="M46 599L47 600L46 599M59 599L60 600L59 599z"/>
<path style="fill:#f3a2cb; stroke:none;" d="M108 599L109 600L108 599z"/>
<path style="fill:#ea5ea4; stroke:none;" d="M109 599L110 600L109 599M357 599L358 600L357 599z"/>
<path style="fill:#f3a2cb; stroke:none;" d="M358 599L359 600L358 599M414 599L415 600L414 599M920 599L921 600L920 599M43 600L44 601L43 600z"/>
<path style="fill:#ea5ea4; stroke:none;" d="M61 600L62 601L61 600z"/>
<path style="fill:#f3a2cb; stroke:none;" d="M106 600L107 601L106 600z"/>
<path style="fill:#ea5ea4; stroke:none;" d="M107 600L108 601L107 600M359 600L360 601L359 600z"/>
<path style="fill:#f3a2cb; stroke:none;" d="M360 600L361 601L360 600M412 600L413 601L412 600M922 600L923 601L922 600z"/>
<path style="fill:#ea5ea4; stroke:none;" d="M42 601L43 602L42 601z"/>
<path style="fill:#f3a2cb; stroke:none;" d="M63 601L64 602L63 601M105 601L106 602L105 601M361 601L362 602L361 601z"/>
<path style="fill:#ea5ea4; stroke:none;" d="M923 601L924 602L923 601M41 602L42 603L41 602z"/>
<path style="fill:#f3a2cb; stroke:none;" d="M64 602L65 603L64 602z"/>
<path style="fill:#ea5ea4; stroke:none;" d="M104 602L105 603L104 602M362 602L363 603L362 602z"/>
<path style="fill:#f3a2cb; stroke:none;" d="M409 602L410 603L409 602M925 602L926 603L925 602M65 603L66 604L65 603z"/>
<path style="fill:#ea5ea4; stroke:none;" d="M103 603L104 604L103 603M363 603L364 604L363 603z"/>
<path style="fill:#f3a2cb; stroke:none;" d="M408 603L409 604L408 603z"/>
<path style="fill:#ea5ea4; stroke:none;" d="M39 604L40 605L39 604z"/>
<path style="fill:#f3a2cb; stroke:none;" d="M66 604L67 605L66 604z"/>
<path style="fill:#ea5ea4; stroke:none;" d="M102 604L103 605L102 604M364 604L365 605L364 604M38 605L39 606L38 605z"/>
<path style="fill:#f3a2cb; stroke:none;" d="M101 605L102 606L101 605M365 605L366 606L365 605z"/>
<path style="fill:#ea5ea4; stroke:none;" d="M407 605L408 606L407 605M927 605L928 606L927 605z"/>
<path style="fill:#f3a2cb; stroke:none;" d="M37 606L38 607L37 606z"/>
<path style="fill:#ea5ea4; stroke:none;" d="M67 606L68 607L67 606z"/>
<path style="fill:#f3a2cb; stroke:none;" d="M406 606L407 607L406 606M928 606L929 607L928 606M68 607L69 608L68 607M100 607L101 608L100 607M366 607L367 608L366 607M36 608L37 609L36 608z"/>
<path style="fill:#ea5ea4; stroke:none;" d="M405 608L406 609L405 608z"/>
<path style="fill:#f3a2cb; stroke:none;" d="M929 608L930 609L929 608z"/>
<path style="fill:#ea5ea4; stroke:none;" d="M36 609L37 610L36 609z"/>
<path style="fill:#f3a2cb; stroke:none;" d="M69 609L70 610L69 609M99 609L100 610L99 609M367 609L368 610L367 609z"/>
<path style="fill:#ea5ea4; stroke:none;" d="M929 609L930 610L929 609M69 610L70 611L69 610M99 610L100 611L99 610M367 610L368 611L367 610z"/>
<path style="fill:#f3a2cb; stroke:none;" d="M404 610L405 611L404 610M35 611L36 612L35 611z"/>
<path style="fill:#ea5ea4; stroke:none;" d="M404.333 611.667L404.667 612.333L404.333 611.667z"/>
<path style="fill:#f3a2cb; stroke:none;" d="M930 611L931 612L930 611z"/>
<path style="fill:#ea5ea4; stroke:none;" d="M35.3333 612.667L35.6667 613.333L35.3333 612.667M930.333 612.667L930.667 613.333L930.333 612.667z"/>
<path style="fill:#f3a2cb; stroke:none;" d="M70 613L70 619L71 619L70 613M98 613L98 618L99 618L98 613M368 613L368 618L369 618L368 613z"/>
<path style="fill:#ea5ea4; stroke:none;" d="M35.3333 618.667L35.6667 619.333L35.3333 618.667M404.333 618.667L404.667 619.333L404.333 618.667M930 618L931 619L930 618z"/>
<path style="fill:#f3a2cb; stroke:none;" d="M930.333 619.667L930.667 620.333L930.333 619.667M35 620L36 621L35 620z"/>
<path style="fill:#ea5ea4; stroke:none;" d="M69 620L70 621L69 620M99 620L100 621L99 620M367 620L368 621L367 620z"/>
<path style="fill:#f3a2cb; stroke:none;" d="M404 620L405 621L404 620M69 621L70 622L69 621M99 621L100 622L99 621M367 621L368 622L367 621z"/>
<path style="fill:#ea5ea4; stroke:none;" d="M36 622L37 623L36 622M405 622L406 623L405 622z"/>
<path style="fill:#f3a2cb; stroke:none;" d="M929 622L930 623L929 622z"/>
<path style="fill:#ea5ea4; stroke:none;" d="M68 623L69 624L68 623z"/>
<path style="fill:#f3a2cb; stroke:none;" d="M100 623L101 624L100 623z"/>
<path style="fill:#ea5ea4; stroke:none;" d="M366 623L367 624L366 623M37 624L38 625L37 624z"/>
<path style="fill:#f3a2cb; stroke:none;" d="M406 624L407 625L406 624M928 624L929 625L928 624z"/>
<path style="fill:#ea5ea4; stroke:none;" d="M67 625L68 626L67 625z"/>
<path style="fill:#f3a2cb; stroke:none;" d="M101 625L102 626L101 625M365 625L366 626L365 625z"/>
<path style="fill:#ea5ea4; stroke:none;" d="M927 625L928 626L927 625z"/>
<path style="fill:#f3a2cb; stroke:none;" d="M38 626L39 627L38 626z"/>
<path style="fill:#ea5ea4; stroke:none;" d="M66 626L67 627L66 626z"/>
<path style="fill:#f3a2cb; stroke:none;" d="M102 626L103 627L102 626z"/>
<path style="fill:#ea5ea4; stroke:none;" d="M364 626L365 627L364 626z"/>
<path style="fill:#f3a2cb; stroke:none;" d="M39 627L40 628L39 627z"/>
<path style="fill:#ea5ea4; stroke:none;" d="M103 627L104 628L103 627M363 627L364 628L363 627z"/>
<path style="fill:#f3a2cb; stroke:none;" d="M408 627L409 628L408 627M926 627L927 628L926 627M40 628L41 629L40 628M104 628L105 629L104 628z"/>
<path style="fill:#ea5ea4; stroke:none;" d="M362 628L363 629L362 628z"/>
<path style="fill:#f3a2cb; stroke:none;" d="M409 628L410 629L409 628M925 628L926 629L925 628M41 629L42 630L41 629z"/>
<path style="fill:#ea5ea4; stroke:none;" d="M63 629L64 630L63 629z"/>
<path style="fill:#f3a2cb; stroke:none;" d="M105 629L106 630L105 629M361 629L362 630L361 629M410 629L411 630L410 629M42 630L43 631L42 630z"/>
<path style="fill:#ea5ea4; stroke:none;" d="M43 630L44 631L43 630M62 630L63 631L62 630M107 630L108 631L107 630M359 630L360 631L359 630M412 630L413 631L412 630M922 630L923 631L922 630z"/>
<path style="fill:#f3a2cb; stroke:none;" d="M44 631L45 632L44 631z"/>
<path style="fill:#ea5ea4; stroke:none;" d="M60 631L61 632L60 631z"/>
<path style="fill:#f3a2cb; stroke:none;" d="M108 631L109 632L108 631z"/>
<path style="fill:#ea5ea4; stroke:none;" d="M109 631L110 632L109 631M357 631L358 632L357 631z"/>
<path style="fill:#f3a2cb; stroke:none;" d="M358 631L359 632L358 631M413 631L414 632L413 631z"/>
<path style="fill:#ea5ea4; stroke:none;" d="M414 631L415 632L414 631M920 631L921 632L920 631z"/>
<path style="fill:#f3a2cb; stroke:none;" d="M921 631L922 632L921 631M46 632L47 633L46 632z"/>
<path style="fill:#ea5ea4; stroke:none;" d="M47 632L48 633L47 632M57 632L58 633L57 632z"/>
<path style="fill:#f3a2cb; stroke:none;" d="M58 632L59 633L58 632z"/>
<path style="fill:#ea5ea4; stroke:none;" d="M111 632L112 633L111 632M355 632L356 633L355 632z"/>
<path style="fill:#f3a2cb; stroke:none;" d="M415 632L416 633L415 632z"/>
<path style="fill:#ea5ea4; stroke:none;" d="M416 632L417 633L416 632M918 632L919 633L918 632z"/>
<path style="fill:#f3a2cb; stroke:none;" d="M50 633L50 634L56 634L50 633M114 633L114 634L353 634L331 633L282 633L114 633M419 633L419 634L916 634C904.544 629.193 884.468 633 872 633L771 633L419 633M452.667 678.333L453.333 678.667L452.667 678.333z"/>
<path style="fill:#ea5ea4; stroke:none;" d="M454 678L454 679L458 679L454 678z"/>
<path style="fill:#f3a2cb; stroke:none;" d="M458.667 678.333L459.333 678.667L458.667 678.333M515 678L515 679L518 679L515 678z"/>
<path style="fill:#ea5ea4; stroke:none;" d="M518 678L518 679L824 679L796 678L734 678L518 678z"/>
<path style="fill:#f3a2cb; stroke:none;" d="M824 678L824 679L827 679L824 678M449 679L450 680L449 679z"/>
<path style="fill:#ea5ea4; stroke:none;" d="M450 679L451 680L450 679z"/>
<path style="fill:#e1157b; stroke:none;" d="M451 679.558C429.085 685.308 440.018 719.242 462 712.347C482.728 705.846 472.033 674.039 451 679.558z"/>
<path style="fill:#ea5ea4; stroke:none;" d="M461 679L462 680L461 679z"/>
<path style="fill:#f3a2cb; stroke:none;" d="M462 679L463 680L462 679M512 679L513 680L512 679z"/>
<path style="fill:#ea5ea4; stroke:none;" d="M513 679L514 680L513 679z"/>
<path style="fill:#e1157b; stroke:none;" d="M514 679.558C497.319 683.941 499.69 707.937 515 712.362C522.521 714.536 532.213 713 540 713L590 713L755 713L810 713C818.147 713 827.25 714.383 833.895 708.61C842.738 700.926 840.908 685.135 829.996 680.367C816.016 674.259 791.199 679 776 679L597 679L541 679C532.546 679 522.208 677.401 514 679.558z"/>
<path style="fill:#ea5ea4; stroke:none;" d="M828 679L829 680L828 679z"/>
<path style="fill:#f3a2cb; stroke:none;" d="M829 679L830 680L829 679M447 680L448 681L447 680M464 680L465 681L464 680M510 680L511 681L510 680z"/>
<path style="fill:#ea5ea4; stroke:none;" d="M830 680L831 681L830 680z"/>
<path style="fill:#f3a2cb; stroke:none;" d="M831 680L832 681L831 680z"/>
<path style="fill:#ea5ea4; stroke:none;" d="M446 681L447 682L446 681z"/>
<path style="fill:#f3a2cb; stroke:none;" d="M466 681L467 682L466 681z"/>
<path style="fill:#ea5ea4; stroke:none;" d="M509 681L510 682L509 681M832 681L833 682L832 681z"/>
<path style="fill:#f3a2cb; stroke:none;" d="M444 682L445 683L444 682M467 682L468 683L467 682M443 683L444 684L443 683z"/>
<path style="fill:#ea5ea4; stroke:none;" d="M468 683L469 684L468 683z"/>
<path style="fill:#f3a2cb; stroke:none;" d="M442 684L443 685L442 684M469 684L470 685L469 684M470 685L471 686L470 685z"/>
<path style="fill:#ea5ea4; stroke:none;" d="M505 685L506 686L505 685M836 685L837 686L836 685M441 686L442 687L441 686z"/>
<path style="fill:#f3a2cb; stroke:none;" d="M504 686L505 687L504 686M837 686L838 687L837 686M440 687L441 688L440 687z"/>
<path style="fill:#ea5ea4; stroke:none;" d="M471 687L472 688L471 687z"/>
<path style="fill:#f3a2cb; stroke:none;" d="M503 688L504 689L503 688M838 688L839 689L838 688M439 689L440 690L439 689M472 689L473 690L472 689z"/>
<path style="fill:#ea5ea4; stroke:none;" d="M838 689L839 690L838 689M439 690L440 691L439 690z"/>
<path style="fill:#f3a2cb; stroke:none;" d="M502.333 690.667L502.667 691.333L502.333 690.667M839 691L840 692L839 691M438.333 692.667L438.667 693.333L438.333 692.667M473 692L474 693L473 692z"/>
<path style="fill:#ea5ea4; stroke:none;" d="M502 692L503 693L502 692M839.333 692.667L839.667 693.333L839.333 692.667M473 693L473 699L474 699L473 693M438 694L438 698L439 698L438 694z"/>
<path style="fill:#f3a2cb; stroke:none;" d="M438.333 698.667L438.667 699.333L438.333 698.667z"/>
<path style="fill:#ea5ea4; stroke:none;" d="M839.333 698.667L839.667 699.333L839.333 698.667z"/>
<path style="fill:#f3a2cb; stroke:none;" d="M473.333 699.667L473.667 700.333L473.333 699.667z"/>
<path style="fill:#ea5ea4; stroke:none;" d="M502 699L503 700L502 699z"/>
<path style="fill:#f3a2cb; stroke:none;" d="M502 700L503 701L502 700M839 700L840 701L839 700z"/>
<path style="fill:#ea5ea4; stroke:none;" d="M439 701L440 702L439 701z"/>
<path style="fill:#f3a2cb; stroke:none;" d="M439 702L440 703L439 702z"/>
<path style="fill:#ea5ea4; stroke:none;" d="M472 702L473 703L472 702M503 702L504 703L503 702M838 702L839 703L838 702z"/>
<path style="fill:#f3a2cb; stroke:none;" d="M503 703L504 704L503 703M838 703L839 704L838 703M440 704L441 705L440 704z"/>
<path style="fill:#ea5ea4; stroke:none;" d="M471 704L472 705L471 704M504 704L505 705L504 704M837 704L838 705L837 704z"/>
<path style="fill:#f3a2cb; stroke:none;" d="M504 705L505 706L504 705M441 706L442 707L441 706M470 706L471 707L470 706M505 706L506 707L505 706M836 706L837 707L836 706M442 707L443 708L442 707z"/>
<path style="fill:#ea5ea4; stroke:none;" d="M469 707L470 708L469 707M506 707L507 708L506 707z"/>
<path style="fill:#f3a2cb; stroke:none;" d="M835 707L836 708L835 707M443 708L444 709L443 708z"/>
<path style="fill:#ea5ea4; stroke:none;" d="M468 708L469 709L468 708z"/>
<path style="fill:#f3a2cb; stroke:none;" d="M507 708L508 709L507 708M834 708L835 709L834 708M444 709L445 710L444 709z"/>
<path style="fill:#ea5ea4; stroke:none;" d="M467 709L468 710L467 709z"/>
<path style="fill:#f3a2cb; stroke:none;" d="M508 709L509 710L508 709M833 709L834 710L833 709M445 710L446 711L445 710M466 710L467 711L466 710z"/>
<path style="fill:#ea5ea4; stroke:none;" d="M510 710L511 711L510 710M831 710L832 711L831 710z"/>
<path style="fill:#f3a2cb; stroke:none;" d="M447 711L448 712L447 711z"/>
<path style="fill:#ea5ea4; stroke:none;" d="M464 711L465 712L464 711z"/>
<path style="fill:#f3a2cb; stroke:none;" d="M511 711L512 712L511 711z"/>
<path style="fill:#ea5ea4; stroke:none;" d="M512 711L513 712L512 711M829 711L830 712L829 711z"/>
<path style="fill:#f3a2cb; stroke:none;" d="M830 711L831 712L830 711M449 712L450 713L449 712z"/>
<path style="fill:#ea5ea4; stroke:none;" d="M450 712L451 713L450 712z"/>
<path style="fill:#f3a2cb; stroke:none;" d="M462 712L463 713L462 712M513 712L514 713L513 712z"/>
<path style="fill:#ea5ea4; stroke:none;" d="M514 712L515 713L514 712M827 712L828 713L827 712z"/>
<path style="fill:#f3a2cb; stroke:none;" d="M828 712L829 713L828 712M452.667 713.333L453.333 713.667L452.667 713.333z"/>
<path style="fill:#ea5ea4; stroke:none;" d="M454 713L454 714L459 714L454 713z"/>
<path style="fill:#f3a2cb; stroke:none;" d="M459 713L460 714L459 713M516.667 713.333L517.333 713.667L516.667 713.333z"/>
<path style="fill:#ea5ea4; stroke:none;" d="M518 713L518 714L824 714L796 713L734 713L518 713z"/>
<path style="fill:#f3a2cb; stroke:none;" d="M824.667 713.333L825.333 713.667L824.667 713.333M268 758L268 759L273 759L268 758M332 758L332 759L640 759L612 758L549 758L332 758M264 759L265 760L264 759z"/>
<path style="fill:#ea5ea4; stroke:none;" d="M265 759L266 760L265 759z"/>
<path style="fill:#e1157b; stroke:none;" d="M266 759.638C244.85 765.743 253.848 798.647 275 793.068C297.065 787.248 287.818 753.34 266 759.638z"/>
<path style="fill:#ea5ea4; stroke:none;" d="M275 759L276 760L275 759z"/>
<path style="fill:#f3a2cb; stroke:none;" d="M276 759L277 760L276 759M328 759L329 760L328 759z"/>
<path style="fill:#ea5ea4; stroke:none;" d="M329 759L330 760L329 759z"/>
<path style="fill:#e1157b; stroke:none;" d="M330 759.529C312.303 763.622 314.004 787.654 330 792.776C338.014 795.342 347.682 794 356 794L405 794L569 794L622 794C630.648 794 640.677 795.144 647.957 789.442C657.249 782.164 655.809 765.758 644.999 760.573C639.651 758.007 632.758 759 627 759L592 759L414 759L358 759C349.108 759 338.689 757.52 330 759.529z"/>
<path style="fill:#ea5ea4; stroke:none;" d="M642 759L643 760L642 759z"/>
<path style="fill:#f3a2cb; stroke:none;" d="M643 759L644 760L643 759M262 760L263 761L262 760z"/>
<path style="fill:#ea5ea4; stroke:none;" d="M263 760L264 761L263 760M278 760L279 761L278 760z"/>
<path style="fill:#f3a2cb; stroke:none;" d="M325 760L326 761L325 760z"/>
<path style="fill:#ea5ea4; stroke:none;" d="M326 760L327 761L326 760z"/>
<path style="fill:#f3a2cb; stroke:none;" d="M645 760L646 761L645 760z"/>
<path style="fill:#ea5ea4; stroke:none;" d="M261 761L262 762L261 761z"/>
<path style="fill:#f3a2cb; stroke:none;" d="M280 761L281 762L280 761z"/>
<path style="fill:#ea5ea4; stroke:none;" d="M324 761L325 762L324 761z"/>
<path style="fill:#f3a2cb; stroke:none;" d="M647 761L648 762L647 761M259 762L260 763L259 762z"/>
<path style="fill:#ea5ea4; stroke:none;" d="M281 762L282 763L281 762z"/>
<path style="fill:#f3a2cb; stroke:none;" d="M648 762L649 763L648 762M258 763L259 764L258 763M649 763L650 764L649 763M257 764L258 765L257 764M650 764L651 765L650 764M256 765L257 766L256 765z"/>
<path style="fill:#ea5ea4; stroke:none;" d="M284 765L285 766L284 765M320 765L321 766L320 765z"/>
<path style="fill:#f3a2cb; stroke:none;" d="M651 765L652 766L651 765z"/>
<path style="fill:#ea5ea4; stroke:none;" d="M285 766L286 767L285 766M319 766L320 767L319 766z"/>
<path style="fill:#f3a2cb; stroke:none;" d="M255 767L256 768L255 767M652 767L653 768L652 767z"/>
<path style="fill:#ea5ea4; stroke:none;" d="M286 768L287 769L286 768M318 768L319 769L318 768z"/>
<path style="fill:#f3a2cb; stroke:none;" d="M254 769L255 770L254 769M653 769L654 770L653 769z"/>
<path style="fill:#ea5ea4; stroke:none;" d="M287 770L288 771L287 770z"/>
<path style="fill:#f3a2cb; stroke:none;" d="M317 770L318 771L317 770z"/>
<path style="fill:#ea5ea4; stroke:none;" d="M653 770L654 771L653 770z"/>
<path style="fill:#f3a2cb; stroke:none;" d="M253.333 771.667L253.667 772.333L253.333 771.667z"/>
<path style="fill:#ea5ea4; stroke:none;" d="M317 771L318 772L317 771z"/>
<path style="fill:#f3a2cb; stroke:none;" d="M654.333 772.667L654.667 773.333L654.333 772.667z"/>
<path style="fill:#ea5ea4; stroke:none;" d="M253.333 773.667L253.667 774.333L253.333 773.667z"/>
<path style="fill:#f3a2cb; stroke:none;" d="M288 773L288 780L289 780L288 773M316 774L316 778L317 778L316 774z"/>
<path style="fill:#ea5ea4; stroke:none;" d="M654 774L654 778L655 778L654 774M253 777L253 780L254 780L253 777z"/>
<path style="fill:#f3a2cb; stroke:none;" d="M654.333 778.667L654.667 779.333L654.333 778.667M253 780L254 781L253 780z"/>
<path style="fill:#ea5ea4; stroke:none;" d="M317 780L318 781L317 780M287 781L288 782L287 781z"/>
<path style="fill:#f3a2cb; stroke:none;" d="M317 781L318 782L317 781z"/>
<path style="fill:#ea5ea4; stroke:none;" d="M254 782L255 783L254 782z"/>
<path style="fill:#f3a2cb; stroke:none;" d="M287 782L288 783L287 782M653 782L654 783L653 782M254 783L255 784L254 783z"/>
<path style="fill:#ea5ea4; stroke:none;" d="M318 783L319 784L318 783z"/>
<path style="fill:#f3a2cb; stroke:none;" d="M286 784L287 785L286 784z"/>
<path style="fill:#ea5ea4; stroke:none;" d="M652 784L653 785L652 784z"/>
<path style="fill:#f3a2cb; stroke:none;" d="M255 785L256 786L255 785z"/>
<path style="fill:#ea5ea4; stroke:none;" d="M319 785L320 786L319 785M256 786L257 787L256 786z"/>
<path style="fill:#f3a2cb; stroke:none;" d="M285 786L286 787L285 786z"/>
<path style="fill:#ea5ea4; stroke:none;" d="M320 786L321 787L320 786z"/>
<path style="fill:#f3a2cb; stroke:none;" d="M651 786L652 787L651 786z"/>
<path style="fill:#ea5ea4; stroke:none;" d="M257 787L258 788L257 787z"/>
<path style="fill:#f3a2cb; stroke:none;" d="M284 787L285 788L284 787M650 787L651 788L650 787z"/>
<path style="fill:#ea5ea4; stroke:none;" d="M283 788L284 789L283 788z"/>
<path style="fill:#f3a2cb; stroke:none;" d="M649 788L650 789L649 788z"/>
<path style="fill:#ea5ea4; stroke:none;" d="M259 789L260 790L259 789M282 789L283 790L282 789M323 789L324 790L323 789z"/>
<path style="fill:#f3a2cb; stroke:none;" d="M648 789L649 790L648 789z"/>
<path style="fill:#ea5ea4; stroke:none;" d="M260 790L261 791L260 790z"/>
<path style="fill:#f3a2cb; stroke:none;" d="M281 790L282 791L281 790M324 790L325 791L324 790z"/>
<path style="fill:#ea5ea4; stroke:none;" d="M646 790L647 791L646 790z"/>
<path style="fill:#f3a2cb; stroke:none;" d="M261 791L262 792L261 791z"/>
<path style="fill:#ea5ea4; stroke:none;" d="M279 791L280 792L279 791M326 791L327 792L326 791z"/>
<path style="fill:#f3a2cb; stroke:none;" d="M645 791L646 792L645 791M263 792L264 793L263 792z"/>
<path style="fill:#ea5ea4; stroke:none;" d="M264 792L265 793L264 792M277 792L278 793L277 792z"/>
<path style="fill:#f3a2cb; stroke:none;" d="M278 792L279 793L278 792M327 792L328 793L327 792z"/>
<path style="fill:#ea5ea4; stroke:none;" d="M328 792L329 793L328 792M642 792L643 793L642 792z"/>
<path style="fill:#f3a2cb; stroke:none;" d="M643 792L644 793L643 792M266 793L267 794L266 793z"/>
<path style="fill:#ea5ea4; stroke:none;" d="M267.667 793.333L268.333 793.667L267.667 793.333M273.667 793.333L274.333 793.667L273.667 793.333z"/>
<path style="fill:#f3a2cb; stroke:none;" d="M275 793L276 794L275 793M330 793L331 794L330 793z"/>
<path style="fill:#ea5ea4; stroke:none;" d="M331.667 793.333L332.333 793.667L331.667 793.333M638.667 793.333L639.333 793.667L638.667 793.333z"/>
<path style="fill:#f3a2cb; stroke:none;" d="M640 793L641 794L640 793z"/>
</svg>
