<svg id="svg" version="1.1" xmlns="http://www.w3.org/2000/svg" xmlns:xlink="http://www.w3.org/1999/xlink" width="400" height="94.04965191120452" viewBox="0, 0, 400,94.04965191120452"><g id="svgg"><path id="path0" d="M125.616 18.490 C 125.665 18.679,125.772 18.833,125.853 18.833 C 126.078 18.833,126.028 18.564,125.763 18.344 C 125.569 18.183,125.542 18.209,125.616 18.490 M31.958 23.458 C 42.523 23.482,59.810 23.482,70.375 23.458 C 80.940 23.435,72.296 23.415,51.167 23.415 C 30.037 23.415,21.394 23.435,31.958 23.458 M328.645 24.390 C 328.747 24.513,328.781 24.663,328.721 24.724 C 328.660 24.784,328.699 24.833,328.806 24.833 C 329.029 24.833,329.038 24.793,328.899 24.430 C 328.843 24.285,328.722 24.167,328.628 24.167 C 328.522 24.167,328.528 24.250,328.645 24.390 M310.389 28.762 C 310.275 29.004,310.260 29.205,310.353 29.262 C 310.438 29.315,310.494 29.296,310.478 29.221 C 310.461 29.145,310.506 28.949,310.577 28.784 C 310.778 28.324,310.605 28.304,310.389 28.762 M204.909 29.376 C 204.865 29.491,204.849 32.210,204.873 35.418 L 204.917 41.250 219.417 41.251 L 233.917 41.253 219.458 41.209 L 205.000 41.165 205.000 35.250 L 205.000 29.335 220.125 29.292 L 235.250 29.248 220.120 29.207 C 208.103 29.175,204.973 29.210,204.909 29.376 M133.341 38.021 C 133.332 38.347,133.797 39.500,133.937 39.500 C 133.991 39.500,133.980 39.369,133.912 39.208 C 133.844 39.048,133.689 38.654,133.568 38.333 C 133.447 38.012,133.345 37.872,133.341 38.021 M234.241 46.833 C 234.241 49.904,234.264 51.160,234.291 49.625 C 234.319 48.090,234.319 45.577,234.291 44.042 C 234.264 42.506,234.241 43.762,234.241 46.833 M61.089 52.264 C 60.934 52.502,60.835 52.724,60.870 52.759 C 60.906 52.794,61.066 52.600,61.227 52.328 C 61.586 51.720,61.478 51.670,61.089 52.264 M204.833 58.307 L 204.917 64.250 220.042 64.251 L 235.167 64.253 220.083 64.209 L 205.000 64.165 205.000 58.342 C 205.000 55.140,204.944 52.485,204.875 52.442 C 204.806 52.400,204.787 55.039,204.833 58.307 M364.951 62.411 C 365.115 62.638,365.319 62.825,365.404 62.828 C 365.489 62.831,365.382 62.646,365.167 62.417 C 364.667 61.885,364.565 61.882,364.951 62.411 M271.540 64.291 L 285.496 64.335 285.543 70.209 L 285.590 76.083 285.586 70.167 L 285.583 64.250 271.583 64.249 L 257.583 64.247 271.540 64.291 M50.000 68.261 C 50.000 68.486,50.360 69.000,50.518 69.000 C 50.613 69.000,50.572 68.881,50.427 68.737 C 50.282 68.592,50.206 68.404,50.258 68.320 C 50.310 68.236,50.274 68.167,50.177 68.167 C 50.079 68.167,50.000 68.209,50.000 68.261 M52.180 92.111 C 52.173 92.310,52.073 92.510,51.958 92.556 C 51.795 92.622,51.796 92.643,51.964 92.654 C 52.217 92.669,52.401 92.267,52.279 91.964 C 52.232 91.846,52.187 91.912,52.180 92.111 " stroke="none" fill="#0434c4" fill-rule="evenodd"></path><path id="path1" d="M0.260 0.151 C 0.159 0.314,1.452 2.713,1.691 2.806 C 1.770 2.837,1.793 2.930,1.741 3.014 C 1.689 3.098,1.726 3.167,1.823 3.167 C 1.921 3.167,1.985 3.223,1.967 3.292 C 1.907 3.519,2.186 4.167,2.345 4.167 C 2.430 4.167,2.500 4.279,2.500 4.417 C 2.500 4.554,2.559 4.667,2.631 4.667 C 2.703 4.667,2.774 4.825,2.789 5.019 C 2.803 5.212,2.919 5.493,3.045 5.644 C 3.171 5.794,3.491 6.342,3.757 6.862 C 4.022 7.383,4.309 7.765,4.395 7.712 C 4.481 7.659,4.502 7.696,4.441 7.794 C 4.380 7.893,4.440 8.083,4.574 8.217 C 4.708 8.351,4.771 8.507,4.714 8.563 C 4.658 8.620,4.699 8.667,4.806 8.667 C 4.913 8.667,4.984 8.723,4.965 8.792 C 4.945 8.860,5.034 9.104,5.162 9.333 C 5.291 9.563,5.625 10.200,5.906 10.750 L 6.417 11.750 51.286 11.792 C 96.019 11.834,96.155 11.833,96.333 11.500 C 96.431 11.317,96.453 11.166,96.381 11.164 C 96.309 11.163,96.338 11.106,96.445 11.038 C 96.552 10.969,96.665 10.810,96.695 10.684 C 96.725 10.558,96.919 10.267,97.125 10.037 C 97.331 9.806,97.500 9.558,97.500 9.484 C 97.500 9.411,97.875 8.661,98.333 7.817 C 98.792 6.973,99.167 6.188,99.167 6.072 C 99.167 5.956,99.225 5.836,99.297 5.806 C 99.496 5.721,100.167 4.513,100.167 4.240 C 100.167 4.108,100.237 4.000,100.323 4.000 C 100.408 4.000,100.573 3.739,100.688 3.421 C 100.803 3.102,100.926 2.870,100.961 2.905 C 101.022 2.966,102.500 0.258,102.500 0.085 C 102.500 -0.072,0.357 -0.006,0.260 0.151 M375.333 15.547 C 375.287 15.591,374.581 15.677,373.763 15.738 C 372.945 15.800,372.200 15.896,372.107 15.954 C 372.014 16.011,371.671 16.072,371.344 16.088 C 371.017 16.105,370.750 16.136,370.750 16.156 C 370.750 16.176,370.637 16.215,370.500 16.242 C 368.893 16.562,367.553 16.901,367.425 17.020 C 367.338 17.101,367.094 17.167,366.883 17.167 C 366.672 17.167,366.500 17.226,366.500 17.298 C 366.500 17.370,366.338 17.441,366.140 17.456 C 365.942 17.471,365.736 17.543,365.682 17.617 C 365.628 17.690,365.471 17.771,365.333 17.797 C 364.930 17.874,364.000 18.397,364.000 18.548 C 364.000 18.624,363.931 18.644,363.847 18.592 C 363.762 18.540,363.575 18.615,363.430 18.760 C 363.285 18.905,363.167 18.977,363.167 18.920 C 363.167 18.804,362.091 19.589,361.630 20.042 C 361.467 20.202,361.263 20.333,361.177 20.333 C 360.959 20.333,358.500 22.847,358.500 23.070 C 358.500 23.171,358.343 23.351,358.150 23.471 C 357.958 23.592,357.838 23.727,357.883 23.772 C 357.928 23.817,357.787 24.046,357.569 24.281 C 357.351 24.516,357.209 24.768,357.254 24.840 C 357.299 24.912,357.271 24.997,357.193 25.027 C 356.935 25.129,356.027 27.231,355.692 28.502 C 355.293 30.019,355.324 29.709,355.262 32.787 C 355.212 35.256,355.254 35.689,355.773 38.039 C 356.036 39.231,357.274 41.938,357.728 42.315 C 357.878 42.439,358.000 42.615,358.000 42.707 C 358.000 42.880,360.413 45.333,360.583 45.333 C 360.637 45.333,360.839 45.481,361.032 45.661 C 361.226 45.841,361.447 45.949,361.525 45.901 C 361.603 45.853,361.667 45.888,361.667 45.979 C 361.667 46.146,365.591 48.186,365.803 48.129 C 365.865 48.112,366.143 48.219,366.419 48.366 C 366.875 48.610,368.312 49.079,369.102 49.242 C 369.275 49.278,369.867 49.430,370.417 49.579 C 370.967 49.729,371.642 49.880,371.917 49.913 C 372.192 49.947,373.017 50.091,373.750 50.234 C 374.483 50.376,375.496 50.527,376.000 50.570 C 377.025 50.657,377.851 50.773,379.083 51.003 C 379.542 51.089,380.108 51.190,380.341 51.229 C 380.574 51.267,381.287 51.452,381.924 51.638 C 382.562 51.825,383.233 52.001,383.417 52.030 C 383.600 52.060,383.853 52.181,383.980 52.301 C 384.106 52.421,384.329 52.473,384.475 52.417 C 384.621 52.361,384.689 52.366,384.628 52.428 C 384.566 52.490,384.906 52.732,385.383 52.967 C 385.860 53.202,386.311 53.494,386.385 53.617 C 386.460 53.740,386.591 53.797,386.677 53.744 C 386.763 53.690,386.833 53.760,386.833 53.897 C 386.833 54.035,387.054 54.278,387.324 54.438 C 387.594 54.597,387.781 54.784,387.738 54.852 C 387.696 54.921,387.737 55.024,387.830 55.081 C 388.746 55.648,389.288 58.563,388.803 60.314 C 388.641 60.900,388.556 61.462,388.614 61.564 C 388.672 61.666,388.660 61.696,388.587 61.629 C 388.420 61.479,387.838 62.523,387.962 62.750 C 388.012 62.842,387.994 62.863,387.920 62.796 C 387.847 62.730,387.523 62.977,387.200 63.346 C 386.601 64.029,384.982 65.081,384.245 65.266 C 384.014 65.324,383.883 65.446,383.945 65.546 C 384.012 65.654,383.955 65.685,383.798 65.625 C 383.656 65.570,383.470 65.597,383.383 65.684 C 383.296 65.770,383.081 65.872,382.904 65.909 C 382.728 65.946,382.058 66.101,381.417 66.254 C 379.265 66.766,374.062 66.670,371.750 66.075 C 371.200 65.933,370.675 65.799,370.583 65.777 C 370.492 65.755,369.992 65.540,369.473 65.301 C 368.953 65.061,368.372 64.815,368.181 64.755 C 367.990 64.694,367.833 64.574,367.833 64.489 C 367.833 64.403,367.683 64.333,367.500 64.333 C 367.317 64.333,367.167 64.271,367.167 64.195 C 367.167 64.119,366.961 63.950,366.710 63.820 C 366.458 63.690,366.093 63.415,365.899 63.208 C 365.704 63.002,365.479 62.830,365.398 62.826 C 365.316 62.822,364.950 62.417,364.583 61.924 C 364.217 61.432,363.890 61.056,363.857 61.089 C 363.824 61.121,363.532 60.646,363.208 60.032 C 362.884 59.419,362.550 58.872,362.467 58.818 C 362.384 58.764,362.332 58.651,362.352 58.568 C 362.449 58.160,362.123 57.526,361.860 57.612 C 361.257 57.808,359.500 58.743,359.500 58.867 C 359.500 58.940,359.444 58.985,359.375 58.966 C 359.166 58.910,357.833 59.662,357.833 59.837 C 357.833 59.927,357.777 59.985,357.708 59.967 C 357.481 59.907,356.833 60.186,356.833 60.345 C 356.833 60.430,356.693 60.500,356.522 60.500 C 356.352 60.500,356.014 60.655,355.772 60.845 C 355.531 61.035,355.332 61.129,355.331 61.054 C 355.329 60.978,355.273 61.000,355.206 61.103 C 355.138 61.205,354.671 61.487,354.167 61.729 C 352.820 62.377,352.033 63.333,352.847 63.333 C 352.947 63.333,352.994 63.427,352.953 63.542 C 352.862 63.795,354.628 67.333,354.846 67.333 C 354.931 67.333,355.000 67.440,355.000 67.571 C 355.000 67.702,355.096 67.909,355.214 68.030 C 355.331 68.151,355.611 68.512,355.835 68.833 C 357.362 71.021,362.373 75.071,362.900 74.544 C 362.955 74.489,363.000 74.524,363.000 74.620 C 363.000 74.781,364.759 75.619,365.338 75.734 C 365.674 75.801,366.191 75.993,366.544 76.182 C 366.847 76.344,369.082 76.850,369.296 76.805 C 369.362 76.791,369.630 76.867,369.890 76.975 C 370.150 77.082,370.565 77.154,370.811 77.136 C 371.058 77.117,371.350 77.157,371.461 77.226 C 371.571 77.294,372.619 77.389,373.789 77.437 C 374.959 77.484,376.015 77.555,376.134 77.593 C 376.416 77.684,381.337 77.353,381.667 77.221 C 381.804 77.167,382.179 77.105,382.500 77.085 C 383.359 77.031,385.050 76.685,385.157 76.541 C 385.208 76.473,385.487 76.399,385.777 76.376 C 386.067 76.354,386.517 76.249,386.777 76.142 C 387.037 76.036,387.386 75.923,387.552 75.891 C 387.718 75.859,388.374 75.611,389.010 75.340 C 389.646 75.070,390.168 74.901,390.169 74.966 C 390.171 75.030,390.227 75.005,390.294 74.909 C 390.362 74.813,390.768 74.531,391.197 74.284 C 391.625 74.036,392.077 73.733,392.200 73.610 C 392.322 73.487,392.507 73.356,392.611 73.318 C 393.047 73.160,396.324 70.167,396.062 70.167 C 396.021 70.167,396.147 69.998,396.343 69.792 C 397.036 69.060,398.631 66.500,398.393 66.500 C 398.338 66.500,398.367 66.406,398.459 66.292 C 398.739 65.939,399.361 64.012,399.251 63.834 C 399.194 63.742,399.217 63.667,399.302 63.667 C 399.387 63.667,399.517 63.273,399.591 62.792 C 399.665 62.310,399.755 61.767,399.792 61.583 C 399.923 60.935,399.962 56.337,399.836 56.415 C 399.766 56.458,399.726 56.190,399.748 55.818 C 399.786 55.165,399.547 53.724,399.142 52.167 C 399.034 51.754,398.681 50.892,398.357 50.250 C 398.033 49.608,397.782 49.027,397.800 48.958 C 397.819 48.890,397.721 48.833,397.583 48.833 C 397.446 48.833,397.352 48.777,397.374 48.708 C 397.453 48.465,396.636 47.333,396.460 47.441 C 396.362 47.502,396.327 47.479,396.382 47.390 C 396.437 47.301,396.186 46.914,395.824 46.531 C 395.462 46.147,395.164 45.889,395.162 45.958 C 395.159 46.027,395.080 45.952,394.987 45.792 C 394.893 45.631,394.753 45.500,394.676 45.500 C 394.599 45.500,394.298 45.278,394.008 45.008 C 393.495 44.529,391.709 43.566,391.458 43.633 C 391.390 43.652,391.333 43.599,391.333 43.516 C 391.333 43.382,390.488 43.005,390.224 43.022 C 390.167 43.026,390.075 42.958,390.019 42.872 C 389.908 42.703,388.163 42.076,387.958 42.132 C 387.890 42.151,387.833 42.079,387.833 41.972 C 387.833 41.865,387.789 41.822,387.735 41.876 C 387.681 41.930,387.325 41.859,386.943 41.719 C 385.866 41.321,383.127 40.684,382.155 40.605 C 381.827 40.578,381.490 40.513,381.405 40.461 C 381.320 40.409,380.875 40.314,380.417 40.251 C 379.958 40.189,379.396 40.108,379.167 40.072 C 378.107 39.906,376.876 39.775,376.458 39.784 C 376.206 39.790,376.000 39.735,376.000 39.662 C 376.000 39.589,375.805 39.551,375.566 39.577 C 375.327 39.603,374.934 39.561,374.691 39.484 C 374.448 39.407,373.537 39.178,372.667 38.976 C 371.318 38.664,368.621 37.527,368.333 37.149 C 368.287 37.089,367.947 36.787,367.576 36.478 C 367.205 36.169,366.888 35.860,366.871 35.790 C 366.854 35.720,366.711 35.420,366.552 35.123 C 366.260 34.574,366.093 31.667,366.354 31.667 C 366.420 31.667,366.523 31.442,366.583 31.167 C 366.644 30.892,366.767 30.667,366.856 30.667 C 366.946 30.667,366.977 30.598,366.925 30.513 C 366.873 30.429,366.943 30.247,367.082 30.109 C 367.220 29.970,367.334 29.796,367.334 29.720 C 367.335 29.468,368.746 28.232,369.586 27.746 C 370.043 27.482,370.454 27.217,370.500 27.158 C 370.546 27.099,370.696 27.046,370.833 27.040 C 370.971 27.034,371.590 26.878,372.208 26.693 C 372.827 26.508,373.333 26.398,373.333 26.449 C 373.333 26.499,373.427 26.471,373.542 26.386 C 374.017 26.033,380.457 26.295,381.223 26.699 C 381.391 26.788,381.729 26.893,381.973 26.933 C 382.217 26.972,383.109 27.344,383.955 27.758 C 384.802 28.173,385.535 28.507,385.584 28.502 C 385.633 28.497,385.877 28.682,386.127 28.913 C 386.376 29.144,386.639 29.333,386.711 29.333 C 386.783 29.333,387.180 29.671,387.592 30.083 C 388.005 30.496,388.415 30.833,388.504 30.833 C 388.594 30.833,388.667 30.905,388.667 30.993 C 388.667 31.080,388.849 31.420,389.071 31.748 C 389.294 32.076,389.502 32.424,389.535 32.520 C 389.572 32.632,389.818 32.589,390.206 32.404 C 390.543 32.243,390.779 32.047,390.730 31.968 C 390.682 31.890,390.704 31.842,390.779 31.862 C 391.015 31.926,391.667 31.652,391.667 31.489 C 391.667 31.403,391.723 31.348,391.792 31.366 C 392.026 31.428,392.667 31.145,392.667 30.979 C 392.667 30.888,392.734 30.855,392.816 30.906 C 392.898 30.957,393.010 30.881,393.065 30.738 C 393.119 30.596,393.240 30.526,393.332 30.583 C 393.424 30.640,393.500 30.602,393.500 30.500 C 393.500 30.398,393.562 30.352,393.637 30.398 C 393.712 30.445,394.031 30.323,394.345 30.129 C 394.902 29.784,395.176 29.631,397.250 28.504 C 398.591 27.776,398.684 27.566,398.016 26.763 C 397.797 26.500,397.794 26.468,398.000 26.583 C 398.213 26.703,398.211 26.676,397.991 26.404 C 397.848 26.227,397.639 25.869,397.527 25.606 C 397.235 24.923,395.283 22.345,395.129 22.440 C 395.058 22.484,395.000 22.422,395.000 22.302 C 395.000 22.017,392.993 20.151,392.809 20.265 C 392.731 20.313,392.667 20.271,392.667 20.171 C 392.667 19.990,391.612 19.287,391.409 19.332 C 391.351 19.345,391.216 19.244,391.110 19.107 C 390.741 18.633,388.864 17.667,388.313 17.667 C 388.141 17.667,388.000 17.600,388.000 17.518 C 388.000 17.371,387.204 17.085,386.952 17.142 C 386.879 17.158,386.656 17.083,386.456 16.976 C 385.630 16.534,382.310 15.873,380.268 15.743 C 377.042 15.539,375.409 15.474,375.333 15.547 M125.500 17.813 C 125.500 17.985,125.607 18.215,125.739 18.324 C 125.870 18.433,125.969 18.648,125.959 18.803 C 125.941 19.060,126.287 19.966,126.694 20.727 C 126.785 20.898,126.885 21.170,126.916 21.332 C 126.947 21.493,127.163 22.103,127.395 22.688 C 127.955 24.098,128.121 24.550,128.155 24.750 C 128.170 24.842,128.295 25.088,128.432 25.296 C 128.569 25.505,128.635 25.749,128.580 25.838 C 128.525 25.927,128.551 26.000,128.637 26.000 C 128.724 26.000,128.835 26.169,128.884 26.375 C 129.072 27.166,129.447 27.998,129.563 27.882 C 129.630 27.815,129.635 27.889,129.574 28.047 C 129.509 28.217,129.543 28.333,129.659 28.333 C 129.766 28.333,129.807 28.408,129.750 28.500 C 129.693 28.592,129.731 28.667,129.833 28.667 C 129.936 28.667,129.975 28.738,129.921 28.826 C 129.867 28.914,129.949 29.270,130.103 29.618 C 130.256 29.965,130.401 30.325,130.423 30.417 C 130.527 30.835,131.212 32.437,131.368 32.625 C 131.463 32.739,131.491 32.833,131.431 32.833 C 131.371 32.833,131.414 33.002,131.528 33.208 C 131.641 33.415,131.751 33.658,131.773 33.750 C 131.821 33.958,132.559 35.912,132.842 36.583 C 132.959 36.858,133.042 37.140,133.027 37.208 C 133.012 37.277,133.075 37.333,133.167 37.333 C 133.258 37.333,133.321 37.390,133.307 37.458 C 133.277 37.598,133.408 37.983,133.762 38.797 C 133.893 39.098,134.000 39.415,134.000 39.501 C 134.000 39.587,134.198 40.091,134.439 40.620 C 134.681 41.150,134.895 41.696,134.915 41.833 C 134.962 42.154,136.195 45.223,136.321 45.333 C 136.374 45.379,136.418 45.492,136.419 45.583 C 136.425 45.970,137.040 47.500,137.190 47.500 C 137.280 47.500,137.308 47.573,137.252 47.663 C 137.197 47.753,137.246 47.997,137.361 48.205 C 137.476 48.413,137.555 48.640,137.535 48.708 C 137.516 48.777,137.587 48.833,137.694 48.833 C 137.801 48.833,137.841 48.881,137.782 48.940 C 137.723 48.999,137.778 49.242,137.903 49.482 C 138.027 49.721,138.415 50.704,138.763 51.667 C 139.112 52.629,139.548 53.754,139.733 54.167 C 139.918 54.579,140.076 54.954,140.083 55.000 C 140.131 55.278,140.609 56.535,140.969 57.325 C 141.200 57.834,141.410 58.359,141.435 58.493 C 141.478 58.723,141.695 59.235,142.019 59.873 C 142.100 60.032,142.167 60.257,142.168 60.373 C 142.168 60.489,142.265 60.771,142.383 61.000 C 142.501 61.229,142.769 61.904,142.978 62.500 C 143.188 63.096,143.458 63.808,143.578 64.083 C 143.698 64.358,143.851 64.771,143.919 65.000 C 143.986 65.229,144.122 65.518,144.221 65.642 C 144.321 65.766,144.420 65.953,144.441 66.058 C 144.463 66.164,144.519 66.400,144.566 66.583 C 144.675 67.008,145.944 70.167,146.142 70.505 C 146.224 70.646,146.344 71.002,146.409 71.297 C 146.473 71.592,146.600 71.833,146.690 71.833 C 146.780 71.833,146.807 71.908,146.750 72.000 C 146.693 72.092,146.724 72.167,146.818 72.167 C 146.912 72.167,146.946 72.279,146.894 72.417 C 146.841 72.554,146.885 72.667,146.992 72.667 C 147.099 72.667,147.143 72.737,147.090 72.822 C 146.991 72.982,147.480 74.174,147.717 74.349 C 147.791 74.403,147.830 74.515,147.804 74.599 C 147.779 74.682,147.906 75.106,148.087 75.541 L 148.417 76.332 154.052 76.333 C 157.326 76.333,159.648 76.271,159.594 76.184 C 159.543 76.102,159.598 75.998,159.716 75.953 C 159.909 75.879,160.406 74.435,160.346 74.119 C 160.333 74.047,160.437 73.873,160.577 73.732 C 160.718 73.591,160.833 73.378,160.833 73.259 C 160.833 73.139,161.020 72.620,161.248 72.104 C 161.476 71.588,161.617 71.167,161.562 71.167 C 161.507 71.167,161.568 70.998,161.699 70.792 C 161.830 70.585,162.076 70.042,162.246 69.583 C 162.416 69.125,162.656 68.507,162.780 68.209 C 162.903 67.912,163.009 67.612,163.016 67.542 C 163.023 67.473,163.087 67.342,163.158 67.250 C 163.229 67.158,163.348 66.858,163.422 66.583 C 163.610 65.884,164.018 64.862,164.338 64.294 C 164.427 64.135,164.500 63.910,164.501 63.794 C 164.501 63.678,164.690 63.211,164.921 62.756 C 165.152 62.300,165.307 61.838,165.265 61.728 C 165.222 61.618,165.292 61.488,165.419 61.439 C 165.547 61.390,165.621 61.197,165.585 61.008 C 165.549 60.820,165.585 60.667,165.665 60.667 C 165.745 60.667,165.859 60.498,165.919 60.292 C 165.978 60.085,166.139 59.667,166.277 59.361 C 166.416 59.056,166.488 58.766,166.439 58.717 C 166.390 58.667,166.462 58.514,166.601 58.375 C 166.739 58.237,166.812 58.017,166.761 57.887 C 166.711 57.755,166.744 57.695,166.835 57.751 C 166.986 57.844,167.065 57.577,167.045 57.042 C 167.041 56.927,167.098 56.833,167.172 56.833 C 167.247 56.833,167.397 56.552,167.507 56.208 C 167.617 55.865,167.773 55.512,167.853 55.425 C 167.934 55.338,168.000 55.150,168.001 55.008 C 168.002 54.866,168.100 54.563,168.219 54.333 C 168.338 54.104,168.614 53.410,168.832 52.792 C 169.050 52.173,169.287 51.667,169.359 51.667 C 169.431 51.667,169.450 51.564,169.402 51.439 C 169.354 51.313,169.469 50.936,169.657 50.600 C 169.846 50.264,170.000 49.861,170.001 49.703 C 170.002 49.546,170.120 49.192,170.265 48.917 C 170.742 48.009,171.726 45.422,171.706 45.125 C 171.696 44.965,171.752 44.833,171.831 44.833 C 171.910 44.833,172.065 44.557,172.177 44.218 C 172.289 43.880,172.537 43.261,172.730 42.843 C 172.922 42.425,173.085 42.008,173.093 41.917 C 173.101 41.825,173.236 41.453,173.393 41.089 C 173.551 40.725,173.700 40.293,173.725 40.128 C 173.751 39.964,173.860 39.740,173.969 39.631 C 174.078 39.522,174.167 39.362,174.167 39.274 C 174.167 39.186,174.548 38.155,175.014 36.981 C 175.479 35.808,175.877 34.751,175.898 34.633 C 175.918 34.514,176.062 34.177,176.217 33.884 C 176.372 33.591,176.526 33.216,176.559 33.051 C 176.620 32.740,176.998 31.788,177.407 30.917 C 177.608 30.488,178.042 29.256,178.082 29.000 C 178.089 28.954,178.175 28.767,178.274 28.583 C 178.460 28.235,179.402 25.815,179.411 25.661 C 179.416 25.576,179.802 24.635,180.260 23.590 C 180.379 23.319,180.440 23.038,180.395 22.965 C 180.350 22.893,180.401 22.833,180.508 22.833 C 180.615 22.833,180.659 22.721,180.606 22.583 C 180.554 22.446,180.577 22.333,180.659 22.333 C 180.793 22.333,181.399 20.813,181.422 20.417 C 181.428 20.325,181.520 20.091,181.627 19.897 C 181.734 19.703,181.774 19.496,181.716 19.439 C 181.658 19.381,181.687 19.333,181.779 19.333 C 181.872 19.333,182.042 19.015,182.157 18.625 C 182.273 18.235,182.444 17.823,182.538 17.708 C 182.673 17.542,181.437 17.500,176.457 17.500 C 171.654 17.500,170.170 17.548,170.047 17.708 C 169.902 17.897,169.086 20.013,169.004 20.417 C 168.985 20.508,168.858 20.846,168.721 21.167 C 168.585 21.488,168.444 21.863,168.410 22.000 C 168.347 22.248,167.854 23.563,167.159 25.333 C 166.962 25.837,166.784 26.375,166.765 26.528 C 166.746 26.681,166.652 26.906,166.555 27.028 C 166.458 27.150,166.320 27.475,166.247 27.750 C 166.174 28.025,166.084 28.363,166.048 28.500 C 166.011 28.637,165.972 28.844,165.962 28.958 C 165.953 29.073,165.895 29.167,165.834 29.167 C 165.773 29.167,165.546 29.710,165.330 30.375 C 165.115 31.040,164.887 31.658,164.824 31.750 C 164.702 31.928,164.321 33.055,164.271 33.385 C 164.254 33.494,164.190 33.664,164.128 33.763 C 164.066 33.863,163.896 34.313,163.749 34.763 C 163.603 35.214,163.408 35.737,163.315 35.924 C 163.223 36.111,163.129 36.374,163.107 36.507 C 163.085 36.641,162.987 36.900,162.889 37.083 C 162.682 37.470,162.259 38.673,162.245 38.917 C 162.239 39.008,162.152 39.233,162.051 39.417 C 161.949 39.600,161.840 39.900,161.808 40.083 C 161.776 40.267,161.712 40.454,161.667 40.500 C 161.546 40.621,161.160 41.642,160.943 42.417 C 160.840 42.783,160.713 43.121,160.661 43.167 C 160.528 43.285,159.480 46.179,159.419 46.599 C 159.391 46.791,159.285 47.091,159.183 47.266 C 159.081 47.440,158.743 48.296,158.433 49.167 C 158.124 50.038,157.559 51.575,157.178 52.583 C 156.797 53.592,156.456 54.529,156.419 54.667 C 156.383 54.804,156.193 55.329,155.998 55.833 C 155.802 56.337,155.566 56.975,155.471 57.250 C 155.377 57.525,155.206 57.975,155.090 58.250 C 154.974 58.525,154.704 59.275,154.489 59.917 C 154.274 60.558,154.080 61.111,154.057 61.145 C 154.011 61.214,153.566 60.797,153.547 60.667 C 153.541 60.621,153.455 60.283,153.356 59.917 C 153.257 59.550,153.181 59.183,153.186 59.102 C 153.191 59.021,153.132 58.908,153.056 58.852 C 152.931 58.761,152.654 58.019,151.458 54.583 C 151.267 54.033,151.010 53.465,150.888 53.320 C 150.766 53.175,150.714 53.008,150.772 52.950 C 150.831 52.892,150.756 52.657,150.606 52.428 C 150.456 52.199,150.333 51.872,150.333 51.700 C 150.333 51.529,150.281 51.337,150.217 51.273 C 150.154 51.209,150.085 51.065,150.065 50.954 C 150.012 50.654,149.488 49.184,149.162 48.417 C 149.006 48.050,148.775 47.450,148.648 47.083 C 148.522 46.717,148.381 46.379,148.334 46.333 C 148.288 46.288,148.229 46.063,148.203 45.833 C 148.178 45.604,148.088 45.393,148.004 45.364 C 147.921 45.335,147.893 45.204,147.944 45.073 C 147.994 44.941,147.953 44.833,147.851 44.833 C 147.750 44.833,147.667 44.661,147.667 44.450 C 147.667 44.239,147.577 43.977,147.467 43.867 C 147.357 43.757,147.317 43.667,147.377 43.667 C 147.438 43.667,147.343 43.329,147.167 42.917 C 146.990 42.504,146.889 42.167,146.942 42.167 C 146.995 42.167,146.927 41.997,146.791 41.789 C 146.655 41.582,146.490 41.169,146.425 40.873 C 146.360 40.576,146.238 40.333,146.153 40.333 C 146.069 40.333,146.015 40.277,146.034 40.208 C 146.114 39.910,145.802 38.833,145.660 38.921 C 145.574 38.974,145.548 38.901,145.603 38.759 C 145.658 38.616,145.622 38.500,145.523 38.500 C 145.424 38.500,145.387 38.387,145.440 38.250 C 145.492 38.112,145.448 38.000,145.341 38.000 C 145.234 38.000,145.193 37.925,145.250 37.833 C 145.307 37.742,145.274 37.667,145.177 37.667 C 145.079 37.667,145.009 37.610,145.020 37.542 C 145.031 37.473,145.025 37.379,145.008 37.333 C 144.991 37.287,144.950 37.043,144.916 36.790 C 144.883 36.536,144.738 36.094,144.594 35.806 C 144.451 35.518,144.333 35.181,144.333 35.058 C 144.333 34.934,144.250 34.833,144.149 34.833 C 144.047 34.833,144.008 34.721,144.060 34.583 C 144.113 34.446,144.071 34.333,143.967 34.333 C 143.863 34.333,143.823 34.288,143.879 34.232 C 143.984 34.127,143.188 31.812,142.996 31.667 C 142.935 31.621,142.838 31.340,142.780 31.042 C 142.722 30.744,142.523 30.167,142.338 29.759 C 142.152 29.352,142.000 28.906,142.000 28.769 C 142.000 28.632,141.924 28.473,141.831 28.415 C 141.737 28.357,141.706 28.237,141.762 28.148 C 141.817 28.059,141.792 27.895,141.707 27.784 C 141.523 27.545,140.992 26.213,140.906 25.775 C 140.873 25.605,140.765 25.369,140.667 25.251 C 140.569 25.132,140.503 24.971,140.521 24.893 C 140.539 24.814,140.455 24.525,140.335 24.250 C 140.214 23.975,140.094 23.641,140.067 23.507 C 140.041 23.374,139.945 23.111,139.855 22.924 C 139.765 22.737,139.525 22.058,139.323 21.417 C 139.121 20.775,138.875 20.100,138.777 19.917 C 138.680 19.733,138.579 19.463,138.555 19.317 C 138.530 19.170,138.360 18.702,138.177 18.275 L 137.845 17.500 131.673 17.500 C 125.745 17.500,125.500 17.512,125.500 17.813 M193.667 46.749 L 193.667 76.000 214.500 76.000 L 235.333 76.000 235.333 70.167 L 235.333 64.333 220.087 64.333 L 204.841 64.333 204.796 58.375 L 204.750 52.417 219.458 52.460 L 234.167 52.504 234.167 46.918 L 234.167 41.333 219.500 41.333 L 204.833 41.333 204.833 35.250 L 204.833 29.167 220.085 29.167 L 235.338 29.167 235.294 23.375 L 235.250 17.583 214.458 17.541 L 193.667 17.499 193.667 46.749 M246.444 17.611 C 246.383 17.672,246.333 30.835,246.333 46.861 L 246.333 76.000 265.917 76.000 L 285.500 76.000 285.500 70.167 L 285.500 64.333 271.500 64.333 L 257.500 64.333 257.500 40.917 L 257.500 17.500 252.028 17.500 C 249.018 17.500,246.506 17.550,246.444 17.611 M314.746 17.899 C 314.601 18.121,314.470 18.460,314.455 18.651 C 314.441 18.843,314.370 19.000,314.298 19.000 C 314.226 19.000,314.167 19.084,314.167 19.187 C 314.167 19.291,313.987 19.797,313.767 20.312 C 312.887 22.378,312.344 23.882,312.429 24.021 C 312.479 24.101,312.442 24.167,312.346 24.167 C 312.251 24.167,312.123 24.368,312.061 24.614 C 311.999 24.860,311.854 25.244,311.737 25.468 C 311.621 25.692,311.571 25.990,311.625 26.131 C 311.685 26.288,311.654 26.345,311.546 26.278 C 311.388 26.181,311.128 26.762,311.216 27.016 C 311.235 27.071,311.165 27.221,311.061 27.349 C 310.957 27.478,310.817 27.846,310.750 28.167 C 310.683 28.488,310.553 28.844,310.460 28.958 C 310.368 29.073,310.358 29.168,310.438 29.169 C 310.518 29.171,310.496 29.228,310.388 29.296 C 310.281 29.364,310.169 29.530,310.138 29.664 C 310.108 29.799,309.990 30.010,309.875 30.133 C 309.691 30.331,309.593 30.883,309.708 31.066 C 309.731 31.102,309.625 31.271,309.471 31.441 C 309.318 31.611,309.139 31.975,309.074 32.250 C 309.009 32.525,308.858 32.862,308.739 33.000 C 308.621 33.137,308.526 33.309,308.530 33.381 C 308.543 33.666,307.909 35.497,307.797 35.499 C 307.731 35.499,307.720 35.612,307.773 35.750 C 307.826 35.887,307.795 36.000,307.705 36.000 C 307.615 36.000,307.500 36.206,307.450 36.458 C 307.399 36.710,307.286 37.104,307.199 37.333 C 307.111 37.563,307.025 37.825,307.006 37.917 C 306.987 38.008,306.894 38.177,306.799 38.292 C 306.704 38.406,306.678 38.500,306.741 38.500 C 306.805 38.500,306.739 38.618,306.595 38.762 C 306.451 38.906,306.333 39.164,306.333 39.335 C 306.333 39.507,306.253 39.697,306.155 39.757 C 306.057 39.818,306.018 39.972,306.067 40.100 C 306.116 40.228,306.092 40.333,306.014 40.333 C 305.852 40.333,305.624 40.941,305.624 41.375 C 305.623 41.535,305.554 41.667,305.468 41.667 C 305.383 41.667,305.360 41.742,305.417 41.833 C 305.473 41.925,305.432 42.000,305.325 42.000 C 305.218 42.000,305.172 42.108,305.223 42.239 C 305.273 42.371,305.251 42.502,305.173 42.531 C 305.094 42.560,305.005 42.733,304.974 42.917 C 304.942 43.100,304.878 43.288,304.832 43.333 C 304.703 43.459,303.989 45.048,303.933 45.333 C 303.869 45.656,303.701 46.124,303.424 46.750 C 302.860 48.025,302.670 48.479,302.351 49.323 C 302.162 49.822,302.044 50.266,302.088 50.310 C 302.132 50.354,302.036 50.540,301.875 50.723 C 301.666 50.963,301.654 51.017,301.833 50.917 C 302.034 50.804,302.030 50.839,301.813 51.096 C 301.591 51.358,301.198 52.299,301.070 52.875 C 301.054 52.944,301.023 53.038,301.000 53.083 C 300.977 53.129,300.944 53.223,300.927 53.292 C 300.909 53.360,300.760 53.717,300.595 54.083 C 299.788 55.880,299.667 56.199,299.745 56.325 C 299.792 56.401,299.725 56.549,299.598 56.655 C 299.394 56.824,299.092 57.639,299.167 57.815 C 299.183 57.850,299.132 57.925,299.056 57.981 C 298.979 58.037,298.736 58.608,298.515 59.250 C 298.293 59.892,297.993 60.601,297.848 60.826 C 297.702 61.051,297.603 61.258,297.627 61.285 C 297.651 61.313,297.550 61.616,297.404 61.959 C 297.257 62.302,297.125 62.752,297.110 62.958 C 297.095 63.164,297.039 63.333,296.985 63.333 C 296.865 63.333,295.961 65.604,295.930 65.982 C 295.918 66.129,295.791 66.475,295.648 66.750 C 295.505 67.025,295.213 67.700,295.000 68.250 C 294.787 68.800,294.543 69.340,294.458 69.451 C 294.374 69.562,294.353 69.730,294.412 69.826 C 294.471 69.922,294.446 70.000,294.356 70.000 C 294.267 70.000,294.140 70.244,294.075 70.542 C 294.010 70.840,293.854 71.231,293.729 71.412 C 293.603 71.593,293.500 71.897,293.500 72.087 C 293.500 72.278,293.434 72.505,293.354 72.592 C 293.274 72.679,293.056 73.162,292.870 73.667 C 292.684 74.171,292.375 74.978,292.184 75.460 L 291.837 76.337 298.102 76.294 L 304.368 76.250 304.948 74.667 C 305.267 73.796,305.718 72.558,305.951 71.917 C 306.183 71.275,306.437 70.600,306.516 70.417 C 306.595 70.233,306.779 69.708,306.926 69.250 C 307.073 68.792,307.337 68.112,307.513 67.741 C 307.688 67.369,307.848 66.863,307.869 66.616 C 307.889 66.369,307.965 66.167,308.036 66.167 C 308.108 66.167,308.167 66.032,308.167 65.867 C 308.167 65.702,308.246 65.488,308.342 65.391 C 308.439 65.295,308.541 65.036,308.571 64.816 C 308.600 64.596,308.788 64.057,308.989 63.618 C 309.191 63.179,309.380 62.690,309.411 62.531 C 309.441 62.373,309.660 61.767,309.897 61.184 C 310.133 60.601,310.279 60.048,310.221 59.953 C 310.160 59.855,310.197 59.832,310.308 59.901 C 310.425 59.974,310.502 59.903,310.506 59.718 C 310.509 59.552,310.774 58.742,311.095 57.917 C 311.416 57.092,311.717 56.267,311.766 56.083 C 311.814 55.900,311.873 55.675,311.897 55.583 C 311.921 55.492,312.074 55.117,312.237 54.750 C 312.788 53.509,313.163 52.295,313.054 52.105 C 312.995 52.002,313.012 51.976,313.092 52.050 C 313.172 52.123,313.361 51.823,313.512 51.383 C 313.663 50.943,314.031 49.908,314.330 49.083 C 314.629 48.258,314.896 47.471,314.924 47.333 C 314.952 47.196,314.990 47.065,315.008 47.042 C 315.027 47.019,315.052 46.944,315.065 46.875 C 315.078 46.806,315.137 46.674,315.197 46.580 C 315.454 46.178,315.980 44.603,315.901 44.474 C 315.853 44.397,315.898 44.333,316.000 44.333 C 316.102 44.333,316.140 44.258,316.083 44.167 C 316.027 44.075,316.064 44.000,316.167 44.000 C 316.269 44.000,316.311 43.932,316.259 43.848 C 316.207 43.765,316.271 43.483,316.400 43.223 C 316.932 42.148,317.166 41.467,317.060 41.296 C 316.998 41.196,317.025 41.163,317.121 41.222 C 317.266 41.312,317.506 40.711,317.574 40.083 C 317.584 39.992,317.663 39.804,317.750 39.667 C 317.836 39.529,317.925 39.342,317.946 39.250 C 317.968 39.158,318.181 38.558,318.419 37.917 C 318.658 37.275,318.873 36.675,318.897 36.583 C 318.921 36.492,319.055 36.154,319.194 35.833 C 319.333 35.512,319.544 34.950,319.662 34.583 C 319.780 34.217,319.933 33.842,320.002 33.750 C 320.072 33.658,320.181 33.335,320.246 33.031 C 320.354 32.526,320.383 32.504,320.584 32.779 C 320.705 32.944,320.772 33.132,320.732 33.195 C 320.693 33.259,320.769 33.559,320.902 33.864 C 321.140 34.411,321.307 34.889,321.343 35.127 C 321.353 35.195,321.443 35.348,321.542 35.468 C 321.642 35.588,321.749 35.921,321.780 36.209 C 321.812 36.497,321.902 36.774,321.981 36.825 C 322.060 36.875,322.178 37.160,322.242 37.458 C 322.307 37.756,322.427 38.000,322.508 38.000 C 322.590 38.000,322.616 38.105,322.567 38.233 C 322.518 38.361,322.557 38.516,322.655 38.576 C 322.753 38.637,322.833 38.802,322.833 38.943 C 322.833 39.084,322.937 39.436,323.063 39.725 C 323.189 40.014,323.421 40.625,323.579 41.083 C 323.736 41.542,323.970 42.153,324.099 42.442 C 324.228 42.731,324.333 43.087,324.333 43.234 C 324.333 43.380,324.392 43.500,324.464 43.500 C 324.536 43.500,324.604 43.631,324.615 43.792 C 324.636 44.115,325.088 45.440,325.313 45.839 C 325.393 45.979,325.511 46.336,325.575 46.630 C 325.640 46.925,325.767 47.167,325.856 47.167 C 325.946 47.167,325.973 47.242,325.917 47.333 C 325.860 47.425,325.898 47.500,326.000 47.500 C 326.102 47.500,326.145 47.567,326.094 47.649 C 326.044 47.731,326.111 48.106,326.244 48.482 C 326.377 48.859,326.439 49.167,326.383 49.167 C 326.327 49.167,326.395 49.298,326.534 49.458 C 326.673 49.619,326.829 49.900,326.880 50.083 C 327.112 50.903,328.025 53.245,328.191 53.445 C 328.292 53.567,328.331 53.667,328.278 53.667 C 328.193 53.667,328.484 54.639,328.778 55.333 C 328.836 55.471,328.912 55.730,328.946 55.909 C 328.980 56.089,329.063 56.276,329.129 56.326 C 329.196 56.376,329.276 56.567,329.308 56.750 C 329.339 56.933,329.446 57.181,329.544 57.301 C 329.643 57.421,329.746 57.725,329.773 57.978 C 329.801 58.230,330.012 58.864,330.243 59.386 C 330.474 59.908,330.659 60.353,330.653 60.376 C 330.642 60.420,330.942 61.256,331.116 61.667 C 331.174 61.804,331.231 61.954,331.242 62.000 C 331.384 62.555,331.908 63.953,332.020 64.075 C 332.101 64.162,332.167 64.371,332.167 64.540 C 332.167 64.709,332.309 65.125,332.482 65.465 C 332.656 65.805,332.807 66.158,332.817 66.250 C 332.853 66.549,333.022 67.072,333.275 67.667 C 333.411 67.987,333.583 68.400,333.657 68.583 C 333.731 68.767,333.889 69.142,334.007 69.417 C 334.126 69.692,334.230 69.992,334.238 70.083 C 334.247 70.175,334.475 70.887,334.745 71.667 C 335.015 72.446,335.242 73.121,335.249 73.167 C 335.256 73.212,335.340 73.400,335.435 73.583 C 335.530 73.767,335.749 74.348,335.921 74.875 C 336.094 75.402,336.293 75.833,336.363 75.833 C 336.432 75.833,336.446 75.946,336.394 76.083 C 336.309 76.303,337.063 76.333,342.566 76.333 C 348.026 76.333,348.833 76.301,348.833 76.083 C 348.833 75.946,348.774 75.833,348.702 75.833 C 348.630 75.833,348.562 75.702,348.549 75.542 C 348.510 75.018,348.406 74.705,348.181 74.433 C 348.059 74.287,348.014 74.167,348.082 74.167 C 348.150 74.167,348.082 73.979,347.932 73.750 C 347.782 73.521,347.696 73.333,347.740 73.333 C 347.785 73.333,347.643 72.980,347.423 72.547 C 347.204 72.115,347.061 71.702,347.106 71.631 C 347.150 71.559,347.102 71.500,347.000 71.500 C 346.898 71.500,346.859 71.427,346.915 71.337 C 346.970 71.247,346.921 71.003,346.805 70.795 C 346.690 70.587,346.589 70.379,346.582 70.333 C 346.515 69.903,345.544 67.486,345.160 66.794 C 345.072 66.635,345.000 66.359,345.000 66.181 C 345.000 66.003,344.891 65.748,344.758 65.615 C 344.625 65.482,344.555 65.334,344.604 65.285 C 344.652 65.237,344.558 64.947,344.394 64.640 C 344.231 64.334,344.090 64.046,344.082 64.000 C 344.041 63.777,343.796 63.047,343.661 62.750 C 343.456 62.296,342.862 60.764,342.498 59.750 C 342.333 59.292,342.005 58.485,341.768 57.958 C 341.531 57.430,341.342 56.959,341.348 56.911 C 341.363 56.787,340.489 54.484,340.274 54.083 C 340.079 53.720,340.052 53.630,340.021 53.240 C 340.009 53.092,339.919 53.030,339.812 53.097 C 339.697 53.168,339.655 53.123,339.706 52.982 C 339.751 52.854,339.672 52.525,339.530 52.250 C 339.388 51.975,339.261 51.612,339.246 51.443 C 339.232 51.274,339.152 51.087,339.068 51.026 C 338.916 50.916,338.812 50.629,338.759 50.167 C 338.743 50.029,338.648 49.767,338.548 49.583 C 338.448 49.400,338.349 49.175,338.329 49.083 C 338.259 48.777,338.129 48.422,337.838 47.750 C 337.680 47.383,337.418 46.746,337.258 46.333 C 337.097 45.921,336.898 45.453,336.816 45.294 C 336.734 45.135,336.667 44.938,336.667 44.856 C 336.667 44.774,336.553 44.436,336.415 44.104 C 336.276 43.773,336.165 43.463,336.168 43.416 C 336.171 43.368,336.045 43.087,335.887 42.790 C 335.730 42.493,335.596 42.175,335.590 42.083 C 335.568 41.761,335.098 40.667,334.982 40.667 C 334.917 40.667,334.904 40.517,334.952 40.333 C 335.000 40.147,334.957 40.000,334.853 40.000 C 334.750 40.000,334.667 39.878,334.667 39.729 C 334.667 39.580,334.266 38.473,333.777 37.271 C 333.287 36.068,332.712 34.633,332.498 34.083 C 332.284 33.533,332.028 33.028,331.929 32.961 C 331.831 32.894,331.805 32.837,331.873 32.836 C 331.940 32.834,331.847 32.458,331.667 32.000 C 331.486 31.542,331.393 31.166,331.461 31.164 C 331.528 31.163,331.501 31.106,331.400 31.039 C 331.299 30.972,331.086 30.523,330.928 30.042 C 330.769 29.560,330.558 29.167,330.459 29.167 C 330.359 29.167,330.322 29.122,330.376 29.068 C 330.431 29.014,330.336 28.646,330.167 28.250 C 329.997 27.854,329.903 27.486,329.957 27.432 C 330.011 27.378,329.968 27.333,329.861 27.333 C 329.754 27.333,329.683 27.277,329.703 27.208 C 329.723 27.140,329.637 26.821,329.512 26.500 C 329.388 26.179,329.296 25.860,329.309 25.792 C 329.323 25.723,329.274 25.667,329.202 25.667 C 329.130 25.667,329.059 25.505,329.044 25.307 C 329.029 25.109,328.919 24.885,328.800 24.809 C 328.681 24.734,328.649 24.671,328.729 24.669 C 328.809 24.668,328.791 24.566,328.689 24.443 C 328.586 24.320,328.552 24.170,328.613 24.110 C 328.673 24.049,328.627 24.000,328.510 24.000 C 328.390 24.000,328.339 23.892,328.394 23.750 C 328.446 23.613,328.419 23.500,328.333 23.500 C 328.247 23.500,328.220 23.387,328.273 23.250 C 328.326 23.113,328.286 23.000,328.184 23.000 C 328.083 23.000,328.000 22.831,327.999 22.625 C 327.999 22.419,327.850 22.006,327.668 21.708 C 327.487 21.410,327.384 21.167,327.440 21.167 C 327.495 21.167,327.447 21.054,327.333 20.917 C 327.219 20.779,327.167 20.667,327.218 20.667 C 327.268 20.667,327.028 19.973,326.685 19.125 L 326.060 17.583 320.535 17.539 L 315.011 17.496 314.746 17.899 M12.873 23.625 C 13.248 24.415,13.406 24.641,13.529 24.565 C 13.609 24.516,13.655 24.537,13.632 24.613 C 13.552 24.865,15.398 28.313,15.559 28.213 C 15.647 28.159,15.668 28.196,15.608 28.294 C 15.547 28.393,15.615 28.592,15.760 28.737 C 15.905 28.881,15.977 29.000,15.919 29.000 C 15.861 29.000,16.025 29.375,16.282 29.833 C 16.539 30.291,16.806 30.666,16.875 30.666 C 16.944 30.667,17.005 30.798,17.012 30.958 C 17.019 31.119,17.164 31.475,17.336 31.750 C 17.507 32.025,17.834 32.625,18.063 33.083 C 18.656 34.272,19.223 35.230,19.417 35.372 C 19.528 35.454,19.528 35.498,19.417 35.503 C 19.325 35.507,19.391 35.617,19.563 35.747 C 19.743 35.884,19.833 36.093,19.776 36.242 C 19.722 36.384,19.736 36.500,19.808 36.500 C 19.880 36.500,20.063 36.762,20.216 37.083 C 20.369 37.404,20.571 37.667,20.664 37.667 C 20.757 37.667,20.820 37.723,20.805 37.792 C 20.754 38.013,21.365 39.333,21.518 39.333 C 21.600 39.333,21.667 39.448,21.667 39.589 C 21.667 39.830,22.117 40.652,22.349 40.833 C 22.407 40.879,22.513 41.104,22.583 41.333 C 22.654 41.563,22.758 41.787,22.814 41.833 C 22.871 41.879,23.047 42.198,23.206 42.542 C 23.365 42.885,23.575 43.167,23.674 43.167 C 23.772 43.167,23.810 43.236,23.758 43.320 C 23.706 43.404,23.782 43.592,23.927 43.737 C 24.082 43.892,24.112 44.000,24.000 44.000 C 23.890 44.000,23.923 44.113,24.079 44.269 C 24.227 44.417,24.580 44.998,24.863 45.559 C 25.146 46.120,25.499 46.680,25.647 46.802 C 25.848 46.968,25.853 46.993,25.667 46.900 C 25.464 46.800,25.468 46.837,25.689 47.096 C 25.838 47.273,26.012 47.587,26.076 47.794 C 26.140 48.006,26.270 48.123,26.371 48.060 C 26.479 47.993,26.503 48.026,26.432 48.143 C 26.366 48.249,26.466 48.532,26.654 48.771 C 26.842 49.010,26.955 49.272,26.905 49.353 C 26.855 49.434,26.898 49.500,27.000 49.500 C 27.102 49.500,27.148 49.561,27.102 49.636 C 27.056 49.711,27.204 49.974,27.432 50.220 C 27.660 50.466,27.805 50.667,27.753 50.667 C 27.702 50.667,27.973 51.248,28.356 51.958 C 28.739 52.669,29.231 53.584,29.448 53.992 C 29.665 54.400,29.953 54.856,30.088 55.006 C 30.224 55.155,30.284 55.327,30.223 55.389 C 30.161 55.450,30.211 55.500,30.333 55.500 C 30.456 55.500,30.507 55.549,30.447 55.609 C 30.331 55.725,30.947 56.834,31.241 57.039 C 31.350 57.115,31.354 57.163,31.250 57.167 C 31.145 57.170,31.148 57.217,31.257 57.294 C 31.353 57.362,31.716 57.998,32.064 58.708 C 32.411 59.419,32.768 60.000,32.858 60.000 C 32.947 60.000,32.977 60.069,32.925 60.154 C 32.827 60.312,33.470 61.540,33.703 61.639 C 33.775 61.669,33.833 61.792,33.833 61.910 C 33.833 62.029,33.945 62.219,34.081 62.332 C 34.218 62.445,34.289 62.604,34.238 62.686 C 34.188 62.767,34.226 62.833,34.323 62.833 C 34.421 62.833,34.500 62.980,34.500 63.158 C 34.500 63.337,34.631 63.557,34.792 63.647 C 34.952 63.736,35.057 63.856,35.026 63.913 C 34.965 64.021,35.531 65.180,36.329 66.583 C 36.913 67.609,37.526 68.740,38.702 70.960 C 39.201 71.900,39.659 72.631,39.721 72.585 C 39.783 72.538,39.798 72.548,39.755 72.606 C 39.651 72.747,41.108 75.475,41.560 75.985 C 41.756 76.206,41.808 76.324,41.676 76.247 C 41.515 76.153,41.542 76.269,41.760 76.595 C 41.938 76.864,42.227 77.365,42.402 77.708 C 42.576 78.052,42.766 78.333,42.824 78.333 C 42.882 78.333,42.940 78.473,42.952 78.643 C 42.984 79.057,43.584 80.027,43.723 79.888 C 43.784 79.828,43.833 79.970,43.833 80.204 C 43.833 80.439,43.947 80.674,44.085 80.728 C 44.223 80.781,44.327 80.882,44.315 80.954 C 44.266 81.253,44.352 81.457,44.673 81.802 C 44.860 82.003,44.971 82.167,44.920 82.167 C 44.869 82.167,45.018 82.542,45.250 83.000 C 45.482 83.458,45.750 83.833,45.846 83.833 C 45.942 83.833,45.975 83.906,45.920 83.994 C 45.866 84.082,46.012 84.456,46.244 84.824 C 46.476 85.192,46.667 85.570,46.667 85.663 C 46.667 85.757,46.817 85.983,47.000 86.167 C 47.183 86.350,47.287 86.500,47.231 86.500 C 47.174 86.500,47.239 86.669,47.374 86.875 C 47.509 87.081,48.090 88.150,48.665 89.250 C 49.240 90.350,49.782 91.296,49.870 91.352 C 49.957 91.408,50.032 91.521,50.037 91.602 C 50.055 91.930,50.391 92.484,50.522 92.403 C 50.600 92.355,50.618 92.432,50.564 92.575 C 50.509 92.717,50.547 92.833,50.649 92.833 C 50.750 92.833,50.833 92.946,50.833 93.083 C 50.833 93.221,50.913 93.333,51.010 93.333 C 51.107 93.333,51.143 93.403,51.090 93.488 C 51.038 93.574,51.067 93.688,51.156 93.743 C 51.319 93.844,51.701 93.286,51.775 92.836 C 51.797 92.701,51.894 92.563,51.991 92.531 C 52.088 92.499,52.167 92.328,52.167 92.153 C 52.167 91.977,52.231 91.833,52.310 91.833 C 52.390 91.833,52.702 91.327,53.004 90.708 C 53.307 90.090,53.611 89.545,53.680 89.499 C 53.749 89.452,54.253 88.552,54.799 87.499 C 55.345 86.445,56.029 85.181,56.319 84.689 C 56.610 84.197,57.232 83.072,57.701 82.189 C 58.171 81.306,58.655 80.435,58.777 80.255 C 58.900 80.074,59.000 79.825,59.000 79.702 C 59.000 79.579,59.188 79.232,59.417 78.931 C 59.646 78.631,59.833 78.335,59.833 78.273 C 59.833 78.211,60.024 77.859,60.256 77.490 C 60.488 77.122,60.639 76.757,60.590 76.678 C 60.542 76.599,60.602 76.497,60.724 76.450 C 60.846 76.403,61.194 75.889,61.498 75.307 C 62.053 74.247,62.663 73.112,63.096 72.333 C 63.224 72.104,63.330 71.781,63.331 71.615 C 63.332 71.449,63.400 71.355,63.481 71.405 C 63.618 71.489,63.893 70.910,63.851 70.625 C 63.841 70.556,63.921 70.500,64.028 70.500 C 64.135 70.500,64.178 70.456,64.125 70.403 C 64.072 70.349,64.177 70.156,64.360 69.973 C 64.559 69.775,64.650 69.531,64.587 69.367 C 64.530 69.217,64.537 69.148,64.603 69.214 C 64.756 69.367,65.531 68.019,65.407 67.817 C 65.355 67.734,65.381 67.667,65.464 67.667 C 65.547 67.667,65.757 67.385,65.932 67.042 C 66.107 66.698,66.296 66.379,66.353 66.333 C 66.545 66.178,67.340 64.500,67.221 64.500 C 67.156 64.500,67.220 64.406,67.363 64.292 C 67.505 64.177,67.732 63.858,67.867 63.583 C 68.001 63.308,68.233 62.858,68.381 62.583 C 68.529 62.308,68.843 61.727,69.078 61.292 C 69.313 60.856,69.464 60.500,69.413 60.500 C 69.362 60.500,69.455 60.354,69.619 60.176 C 69.960 59.806,71.557 56.833,71.414 56.833 C 71.363 56.833,71.455 56.689,71.620 56.512 C 71.785 56.335,72.173 55.697,72.481 55.095 C 72.790 54.493,73.104 54.000,73.179 54.000 C 73.253 54.000,73.285 53.850,73.250 53.667 C 73.215 53.483,73.256 53.333,73.343 53.333 C 73.429 53.333,73.500 53.221,73.500 53.083 C 73.500 52.946,73.567 52.833,73.649 52.833 C 73.730 52.833,73.847 52.637,73.907 52.397 C 73.967 52.156,74.125 51.851,74.258 51.718 C 74.391 51.585,74.500 51.327,74.500 51.145 C 74.500 50.963,74.566 50.855,74.647 50.905 C 74.799 50.999,75.280 50.024,75.202 49.779 C 75.178 49.704,75.226 49.684,75.310 49.735 C 75.393 49.787,75.619 49.474,75.812 49.039 C 76.239 48.078,76.693 47.292,76.917 47.128 C 77.008 47.060,77.018 47.004,76.938 47.003 C 76.858 47.001,76.886 46.887,77.000 46.750 C 77.114 46.612,77.155 46.500,77.092 46.500 C 77.028 46.500,77.075 46.390,77.196 46.256 C 77.724 45.671,77.833 45.499,77.833 45.257 C 77.833 45.116,77.908 45.000,78.000 45.000 C 78.092 45.000,78.167 44.854,78.167 44.677 C 78.167 44.499,78.236 44.310,78.321 44.258 C 78.535 44.125,80.056 41.312,80.056 41.048 C 80.056 40.930,80.101 40.833,80.157 40.833 C 80.212 40.833,80.405 40.552,80.586 40.208 C 80.766 39.865,80.952 39.546,80.998 39.500 C 81.245 39.258,82.305 37.027,82.216 36.938 C 82.158 36.880,82.200 36.833,82.310 36.833 C 82.494 36.833,82.823 36.225,82.931 35.683 C 82.957 35.555,83.046 35.405,83.128 35.350 C 83.398 35.171,84.169 33.725,84.055 33.611 C 83.994 33.550,84.030 33.500,84.135 33.500 C 84.344 33.500,84.920 32.502,84.713 32.497 C 84.642 32.496,84.669 32.440,84.773 32.372 C 84.878 32.305,85.290 31.639,85.690 30.891 C 86.090 30.144,86.770 28.894,87.202 28.113 C 87.633 27.333,88.035 26.501,88.094 26.265 C 88.154 26.029,88.264 25.874,88.339 25.920 C 88.474 26.004,88.763 25.366,88.700 25.125 C 88.682 25.056,88.746 25.000,88.843 25.000 C 88.940 25.000,88.978 24.933,88.927 24.851 C 88.877 24.769,88.958 24.654,89.108 24.597 C 89.258 24.539,89.336 24.447,89.282 24.393 C 89.227 24.338,89.291 24.185,89.425 24.052 C 89.558 23.918,89.667 23.740,89.667 23.655 C 89.667 23.560,74.776 23.500,51.240 23.500 C 30.106 23.500,12.840 23.556,12.873 23.625 M70.370 35.259 C 70.421 35.310,70.285 35.666,70.067 36.051 C 69.849 36.435,69.618 36.862,69.554 37.000 C 69.489 37.137,69.181 37.687,68.869 38.221 C 68.558 38.755,68.339 39.228,68.384 39.273 C 68.429 39.317,68.290 39.543,68.076 39.774 C 67.862 40.004,67.728 40.300,67.778 40.430 C 67.828 40.560,67.792 40.667,67.697 40.667 C 67.602 40.667,67.302 41.079,67.029 41.583 C 66.756 42.087,66.614 42.449,66.713 42.388 C 66.812 42.327,66.701 42.533,66.466 42.846 C 66.231 43.160,65.987 43.585,65.925 43.792 C 65.862 43.998,65.733 44.167,65.638 44.167 C 65.542 44.167,65.505 44.274,65.556 44.404 C 65.606 44.535,65.534 44.736,65.396 44.851 C 65.118 45.081,64.603 46.000,64.752 46.000 C 64.804 46.000,64.693 46.165,64.506 46.366 C 64.318 46.567,64.075 46.979,63.966 47.282 C 63.856 47.585,63.702 47.833,63.623 47.833 C 63.545 47.833,63.532 47.917,63.595 48.019 C 63.658 48.121,63.634 48.252,63.542 48.310 C 63.370 48.419,61.833 50.949,61.833 51.123 C 61.833 51.175,61.555 51.713,61.215 52.317 C 60.875 52.922,60.579 53.528,60.557 53.664 C 60.536 53.799,60.443 53.936,60.352 53.966 C 60.260 53.997,60.231 54.141,60.288 54.288 C 60.349 54.448,60.321 54.512,60.219 54.449 C 60.074 54.359,59.581 55.129,59.665 55.315 C 59.682 55.350,59.632 55.425,59.556 55.481 C 59.479 55.537,59.237 55.958,59.017 56.417 C 58.798 56.875,58.505 57.381,58.367 57.542 C 58.228 57.702,58.169 57.833,58.236 57.833 C 58.303 57.833,58.239 57.951,58.095 58.095 C 57.952 58.239,57.784 58.555,57.723 58.798 C 57.662 59.040,57.469 59.391,57.295 59.578 C 57.120 59.764,56.936 60.118,56.887 60.364 C 56.837 60.611,56.687 60.854,56.554 60.905 C 56.421 60.956,56.356 61.068,56.409 61.154 C 56.462 61.240,56.428 61.358,56.333 61.417 C 56.239 61.475,56.212 61.612,56.274 61.720 C 56.336 61.828,56.325 61.860,56.249 61.791 C 56.068 61.628,55.300 62.979,55.443 63.209 C 55.503 63.306,55.477 63.339,55.387 63.283 C 55.214 63.176,54.667 64.168,54.667 64.589 C 54.667 64.723,54.599 64.833,54.517 64.833 C 54.434 64.833,54.202 65.152,54.001 65.542 C 53.800 65.931,53.486 66.494,53.304 66.792 C 53.122 67.090,53.035 67.334,53.111 67.336 C 53.188 67.337,53.154 67.399,53.038 67.473 C 52.921 67.547,52.794 67.769,52.756 67.966 C 52.718 68.164,52.535 68.488,52.349 68.688 C 52.164 68.887,52.051 69.114,52.099 69.192 C 52.147 69.270,52.116 69.333,52.030 69.333 C 51.944 69.333,51.781 69.558,51.667 69.833 C 51.553 70.108,51.352 70.333,51.220 70.333 C 51.088 70.333,51.027 70.258,51.084 70.165 C 51.141 70.073,51.071 69.953,50.927 69.898 C 50.784 69.843,50.667 69.656,50.667 69.482 C 50.667 69.309,50.517 69.017,50.333 68.833 C 50.150 68.650,50.000 68.364,50.000 68.198 C 50.000 68.032,49.847 67.732,49.660 67.531 C 49.473 67.331,49.369 67.167,49.429 67.167 C 49.489 67.167,49.412 66.973,49.257 66.737 C 49.014 66.366,48.448 65.313,46.958 62.458 C 46.779 62.115,46.552 61.833,46.455 61.833 C 46.357 61.833,46.326 61.785,46.386 61.725 C 46.520 61.591,45.670 60.000,45.464 60.000 C 45.381 60.000,45.356 59.931,45.408 59.847 C 45.460 59.764,45.325 59.482,45.109 59.222 C 44.893 58.963,44.744 58.672,44.777 58.576 C 44.811 58.480,44.684 58.236,44.496 58.034 C 44.308 57.832,44.197 57.667,44.249 57.667 C 44.409 57.667,43.968 56.926,43.722 56.781 C 43.596 56.707,43.544 56.564,43.605 56.464 C 43.667 56.365,43.579 56.182,43.410 56.058 C 43.241 55.934,43.159 55.833,43.228 55.833 C 43.372 55.833,42.479 54.111,42.292 54.028 C 42.223 53.997,42.167 53.883,42.167 53.775 C 42.167 53.666,41.983 53.307,41.759 52.977 C 41.534 52.646,41.302 52.182,41.242 51.945 C 41.183 51.707,40.972 51.333,40.775 51.112 C 40.578 50.892,40.393 50.608,40.364 50.481 C 40.334 50.354,40.202 50.081,40.068 49.875 C 39.935 49.670,39.463 48.807,39.020 47.959 C 38.576 47.111,38.039 46.117,37.827 45.750 C 37.615 45.383,37.261 44.727,37.039 44.292 C 36.818 43.856,36.556 43.500,36.457 43.500 C 36.359 43.500,36.326 43.451,36.386 43.392 C 36.516 43.262,35.673 41.667,35.474 41.667 C 35.396 41.667,35.333 41.571,35.333 41.454 C 35.333 41.338,34.915 40.457,34.404 39.496 C 33.893 38.536,33.181 37.196,32.821 36.520 C 32.461 35.843,32.167 35.262,32.167 35.228 C 32.167 35.128,70.269 35.158,70.370 35.259 " stroke="none" fill="#043cc1" fill-rule="evenodd"></path><path id="path2" d="M6.475 11.875 C 6.544 11.944,26.772 11.982,51.425 11.959 L 96.250 11.917 51.300 11.833 C 26.577 11.787,6.406 11.806,6.475 11.875 M246.208 46.792 L 246.167 76.167 265.875 76.126 L 285.583 76.085 265.959 76.042 L 246.334 75.999 246.292 46.708 L 246.249 17.417 246.208 46.792 M257.581 40.917 C 257.581 53.842,257.601 59.154,257.625 52.721 C 257.649 46.289,257.649 35.714,257.625 29.221 C 257.601 22.729,257.581 27.992,257.581 40.917 M376.375 26.286 C 376.627 26.324,377.040 26.324,377.292 26.286 C 377.544 26.248,377.337 26.217,376.833 26.217 C 376.329 26.217,376.123 26.248,376.375 26.286 M332.253 33.450 C 332.503 34.048,332.667 34.318,332.667 34.131 C 332.667 33.952,332.160 32.833,332.079 32.833 C 332.033 32.833,332.111 33.111,332.253 33.450 M32.167 35.292 C 32.167 35.405,45.586 35.404,63.583 35.290 C 67.342 35.266,61.810 35.228,51.292 35.206 C 40.773 35.185,32.167 35.223,32.167 35.292 M82.167 37.333 C 81.980 37.700,81.864 38.000,81.910 38.000 C 81.956 38.000,82.146 37.700,82.333 37.333 C 82.520 36.967,82.636 36.667,82.590 36.667 C 82.544 36.667,82.354 36.967,82.167 37.333 M358.167 43.219 C 358.167 43.248,358.410 43.491,358.708 43.760 L 359.250 44.250 358.760 43.708 C 358.304 43.203,358.167 43.090,358.167 43.219 M315.871 44.875 C 315.587 45.660,315.627 45.872,315.927 45.179 C 316.064 44.865,316.153 44.541,316.125 44.459 C 316.098 44.377,315.983 44.564,315.871 44.875 M362.333 46.578 C 362.333 46.624,362.708 46.851,363.167 47.083 C 363.625 47.316,364.000 47.468,364.000 47.422 C 364.000 47.376,363.625 47.149,363.167 46.917 C 362.708 46.684,362.333 46.532,362.333 46.578 M138.929 52.500 C 138.990 52.729,139.110 53.029,139.195 53.167 C 139.302 53.340,139.315 53.290,139.238 53.000 C 139.176 52.771,139.057 52.471,138.972 52.333 C 138.865 52.160,138.851 52.210,138.929 52.500 M28.917 53.333 C 29.059 53.608,29.213 53.833,29.259 53.833 C 29.304 53.833,29.226 53.608,29.083 53.333 C 28.941 53.058,28.787 52.833,28.741 52.833 C 28.696 52.833,28.774 53.058,28.917 53.333 M71.680 56.475 C 71.408 56.983,71.464 57.125,71.767 56.693 C 71.914 56.483,71.995 56.273,71.947 56.225 C 71.899 56.177,71.779 56.290,71.680 56.475 M45.333 59.397 C 45.333 59.576,45.829 60.500,45.925 60.500 C 45.971 60.500,45.885 60.256,45.733 59.958 C 45.424 59.350,45.333 59.223,45.333 59.397 M33.650 61.917 C 33.931 62.460,34.162 62.762,34.160 62.583 C 34.160 62.492,34.006 62.229,33.818 62.000 C 33.592 61.723,33.535 61.695,33.650 61.917 M37.503 68.917 C 37.502 69.101,38.320 70.481,38.328 70.309 C 38.331 70.249,38.147 69.874,37.919 69.475 C 37.691 69.076,37.503 68.825,37.503 68.917 M358.250 71.667 C 358.608 72.033,358.938 72.333,358.984 72.333 C 359.030 72.333,358.775 72.033,358.417 71.667 C 358.059 71.300,357.728 71.000,357.682 71.000 C 357.637 71.000,357.892 71.300,358.250 71.667 M359.667 72.792 C 359.667 72.867,359.892 73.061,360.167 73.223 C 360.442 73.386,360.667 73.491,360.667 73.457 C 360.667 73.424,360.442 73.230,360.167 73.026 C 359.892 72.823,359.667 72.718,359.667 72.792 M361.514 74.050 C 361.552 74.078,361.808 74.233,362.083 74.394 L 362.583 74.686 362.190 74.343 C 361.973 74.154,361.717 74.000,361.620 74.000 C 361.524 74.000,361.476 74.023,361.514 74.050 M204.055 76.125 C 209.814 76.149,219.189 76.149,224.888 76.125 C 230.587 76.101,225.875 76.081,214.417 76.081 C 202.958 76.081,198.295 76.101,204.055 76.125 M151.125 76.458 C 152.706 76.485,155.294 76.485,156.875 76.458 C 158.456 76.431,157.162 76.408,154.000 76.408 C 150.837 76.408,149.544 76.431,151.125 76.458 M60.157 77.624 C 59.781 78.376,59.786 78.450,60.175 77.868 C 60.377 77.566,60.507 77.285,60.465 77.242 C 60.422 77.200,60.284 77.372,60.157 77.624 M59.417 79.000 C 59.274 79.275,59.196 79.500,59.241 79.500 C 59.287 79.500,59.441 79.275,59.583 79.000 C 59.726 78.725,59.804 78.500,59.759 78.500 C 59.713 78.500,59.559 78.725,59.417 79.000 " stroke="none" fill="#0434bc" fill-rule="evenodd"></path><path id="path3" d="" stroke="none" fill="#0834c4" fill-rule="evenodd"></path><path id="path4" d="" stroke="none" fill="#0834c4" fill-rule="evenodd"></path></g></svg>