<svg width="52" height="49" fill="none" xmlns="http://www.w3.org/2000/svg"><circle cx="25" cy="32" r="17" fill="#F6F7F8"/><path fill-rule="evenodd" clip-rule="evenodd" d="M27.919 14.248C30.062 12.168 32.969 11 36 11c3.031 0 5.938 1.168 8.081 3.248s3.347 4.9 3.347 7.84c0 4.849 1.068 7.803 2.007 9.473.473.84.925 1.38 1.224 1.685a3.786 3.786 0 0 0 .364.33 2.183 2.183 0 0 1 .879 2.462c-.292.935-1.18 1.575-2.188 1.575H22.286c-1.007 0-1.896-.64-2.188-1.575-.287-.92.07-1.913.88-2.461a3.786 3.786 0 0 0 .364-.33c.298-.307.75-.845 1.223-1.686.939-1.67 2.007-4.624 2.007-9.472 0-2.941 1.204-5.762 3.347-7.841zm17.23 18.93c-1.234-2.4-2.292-5.962-2.292-11.09a6.555 6.555 0 0 0-2.008-4.704A6.965 6.965 0 0 0 36 15.435a6.96 6.96 0 0 0-4.849 1.95 6.555 6.555 0 0 0-2.008 4.704c0 5.127-1.058 8.688-2.292 11.088H45.15zM32.217 39.39c1.092-.615 2.49-.254 3.124.805a.752.752 0 0 0 .279.27.78.78 0 0 0 .76 0 .752.752 0 0 0 .279-.27c.633-1.06 2.032-1.42 3.124-.805 1.092.614 1.464 1.971.83 3.03a5.258 5.258 0 0 1-1.951 1.888A5.46 5.46 0 0 1 36 45a5.46 5.46 0 0 1-2.662-.69 5.258 5.258 0 0 1-1.951-1.888c-.634-1.06-.262-2.417.83-3.031z" fill="#EEEFF0"/><path d="M.49 18h5.684v-1.512H2.94l-.014-.028 3.332-4.06v-1.246H.742v1.512h3.024l.014.042L.49 16.74V18zm10-4h5.684v-1.512H12.94l-.014-.028 3.332-4.06V7.154h-5.516v1.512h3.024l.014.042-3.29 4.032V14zm-8-7h5.684V5.488H4.94l-.014-.028L8.258 1.4V.154H2.742v1.512h3.024l.014.042L2.49 5.74V7z" fill="#EEEFF0"/></svg>